<svg width="80" height="60" viewBox="0 0 80 60" fill="none" xmlns="http://www.w3.org/2000/svg">
<g clip-path="url(#clip0_84_325)">
<path fill-rule="evenodd" clip-rule="evenodd" d="M0 0H80V60H0V0Z" fill="#FFE800"/>
<path fill-rule="evenodd" clip-rule="evenodd" d="M0 30H80V60H0V30Z" fill="#00148E"/>
<path fill-rule="evenodd" clip-rule="evenodd" d="M0 45H80V60H0V45Z" fill="#DA0010"/>
<path fill-rule="evenodd" clip-rule="evenodd" d="M33.7 36.35L24.625 45.9125L24.475 45.7125L33.525 36.15L33.675 36.35H33.7ZM40 37.9125L28.15 50.4125L27.95 50.2125L39.7875 37.7125L40 37.9125Z" fill="black"/>
<path fill-rule="evenodd" clip-rule="evenodd" d="M28.1864 50.2665L27.0789 51.374L25.8165 52.3267L26.7692 51.0643L27.8767 49.9568L28.1864 50.2665Z" fill="#808080" stroke="black" stroke-width="0.0606398"/>
<path fill-rule="evenodd" clip-rule="evenodd" d="M25.1365 45.379L24.029 46.4865L22.7666 47.4392L23.7192 46.1768L24.8267 45.0693L25.1365 45.379Z" fill="#808080" stroke="black" stroke-width="0.0606398"/>
<path fill-rule="evenodd" clip-rule="evenodd" d="M25.9925 14.349C25.9925 14.349 24.9968 41.277 28.9793 41.277C32.9618 41.277 34.9587 38.445 34.9587 38.445L34.9137 23.645L25.9925 14.349Z" fill="#FFDF00" stroke="black" stroke-width="0.0894427"/>
<path fill-rule="evenodd" clip-rule="evenodd" d="M28.4282 16.861C28.4282 18.277 27.9838 38.445 29.9751 38.445C31.9663 38.445 34.9588 37.029 34.9588 37.029L34.9138 23.645L28.4282 16.861Z" fill="#0000C4" stroke="black" stroke-width="0.0894427"/>
<path fill-rule="evenodd" clip-rule="evenodd" d="M29.7219 18.221C29.7219 19.637 29.975 35.613 31.9719 35.613H34.9588L34.9138 23.645L29.7219 18.221Z" fill="#E10000" stroke="black" stroke-width="0.0894427"/>
<path fill-rule="evenodd" clip-rule="evenodd" d="M25.775 14.5L34.825 24.0625L34.9875 23.8625L25.9375 14.3L25.775 14.5Z" fill="black"/>
<path fill-rule="evenodd" clip-rule="evenodd" d="M23.037 19.867C23.037 19.867 20.4705 45.9535 28.17 45.9535C34.5862 45.9535 34.5862 41.8383 35.8695 41.8383L34.5862 32.2283L23.0297 19.867H23.037Z" fill="#FFDF00" stroke="black" stroke-width="0.0999444"/>
<path d="M29.3975 24.204C29.4525 24.1999 31.4 19.9854 36.2675 17.3177" stroke="black" stroke-width="0.108269"/>
<path fill-rule="evenodd" clip-rule="evenodd" d="M28.6007 20.2313C29.2795 20.548 29.709 20.9125 30.1 21.3375C29.3232 21.1748 28.9225 21.109 28.2437 20.7923C27.565 20.4755 27.0465 19.991 26.6345 19.599C27.1397 19.7528 27.9182 19.9128 28.6007 20.2313Z" fill="#005B00" stroke="black" stroke-width="0.0489698"/>
<path fill-rule="evenodd" clip-rule="evenodd" d="M30.3033 22.8124C30.3533 22.8974 30.3103 23.0171 30.2046 23.0759C30.0988 23.1346 29.9721 23.112 29.9208 23.0249C29.8696 22.9378 29.9151 22.8223 30.0208 22.7635C30.1266 22.7048 30.2533 22.7274 30.3033 22.8124Z" fill="#FF0000" stroke="black" stroke-width="0.0335875"/>
<path fill-rule="evenodd" clip-rule="evenodd" d="M32.4364 17.5336C32.1423 18.2802 31.8178 18.7723 31.4438 19.2313C31.6119 18.4006 31.6833 17.9743 31.9774 17.2276C32.2715 16.481 32.7008 15.8817 33.0478 15.4047C32.898 15.9507 32.7322 16.7829 32.4364 17.5336Z" fill="#005B00" stroke="black" stroke-width="0.0461669"/>
<path fill-rule="evenodd" clip-rule="evenodd" d="M31.4434 17.4949C31.3755 18.2415 31.2268 18.8198 31.0313 19.4062C30.9801 18.6806 30.942 18.318 31.0099 17.5714C31.0778 16.8248 31.286 16.098 31.456 15.516C31.4584 16.0189 31.5116 16.7441 31.4434 17.4949Z" fill="#005B00" stroke="black" stroke-width="0.0398615"/>
<path fill-rule="evenodd" clip-rule="evenodd" d="M32.0919 18.3488C31.7073 18.8013 31.3838 18.9975 31.0438 19.125C31.3864 18.4975 31.5543 18.1638 31.9389 17.7113C32.3235 17.2588 32.7358 17.0463 33.0668 16.8813C32.8205 17.2631 32.4786 17.8938 32.0919 18.3488Z" fill="#005B00" stroke="black" stroke-width="0.0432966"/>
<path fill-rule="evenodd" clip-rule="evenodd" d="M28.815 18.981C29.2675 19.524 29.4925 20.047 29.6625 20.625C29.07 20.222 28.7575 20.034 28.305 19.491C27.8525 18.948 27.5975 18.268 27.3975 17.72C27.765 18.0345 28.36 18.435 28.815 18.981Z" fill="#005B00" stroke="black" stroke-width="0.0495432"/>
<path fill-rule="evenodd" clip-rule="evenodd" d="M27.9042 23.1665C28.4698 23.619 28.7683 24.0855 29.0063 24.6125C28.2867 24.314 27.9088 24.18 27.3432 23.7275C26.7775 23.275 26.4333 22.663 26.1623 22.169C26.613 22.4158 27.3354 22.7115 27.9042 23.1665Z" fill="#005B00" stroke="black" stroke-width="0.0526016"/>
<path fill-rule="evenodd" clip-rule="evenodd" d="M30.553 22.918C30.1005 23.642 29.611 24.1285 29.05 24.5875C29.3205 23.7935 29.4375 23.387 29.89 22.663C30.3425 21.939 30.9885 21.344 31.5105 20.87C31.2753 21.3948 31.008 22.19 30.553 22.918Z" fill="#005B00" stroke="black" stroke-width="0.0540371"/>
<path fill-rule="evenodd" clip-rule="evenodd" d="M31.0258 22.8892C30.3018 23.387 29.6716 23.646 29.0001 23.85C29.6191 23.2122 29.9193 22.877 30.6433 22.3792C31.3673 21.8815 32.1748 21.584 32.8238 21.35C32.3709 21.7485 31.7538 22.3887 31.0258 22.8892Z" fill="#005B00" stroke="black" stroke-width="0.0519301"/>
<path fill-rule="evenodd" clip-rule="evenodd" d="M35.9068 17.6865C35.5901 18.0485 35.3061 18.263 35.0001 18.45C35.2608 18.018 35.3861 17.7935 35.7028 17.4315C36.0196 17.0695 36.3851 16.8145 36.6791 16.6125C36.4851 16.8893 36.2253 17.3225 35.9068 17.6865Z" fill="#005B00" stroke="black" stroke-width="0.0275007"/>
<path fill-rule="evenodd" clip-rule="evenodd" d="M35.2205 16.6186C35.0395 17.0032 34.846 17.2922 34.625 17.5812C34.736 17.1966 34.7845 17.0032 34.9655 16.6186C35.1465 16.234 35.4015 15.8727 35.6075 15.5837C35.5123 15.8472 35.4025 16.2319 35.2205 16.6186Z" fill="#005B00" stroke="black" stroke-width="0.0228451"/>
<path fill-rule="evenodd" clip-rule="evenodd" d="M36.2803 17.309C35.9636 17.49 35.7256 17.5455 35.4876 17.5625C35.8043 17.2835 35.9636 17.133 36.2803 16.952C36.5971 16.771 36.8946 16.72 37.1326 16.682C36.9156 16.8463 36.5988 17.127 36.2803 17.309Z" fill="#005B00" stroke="black" stroke-width="0.0250413"/>
<path fill-rule="evenodd" clip-rule="evenodd" d="M31.9092 19.3369C31.3436 19.6763 30.8783 19.8738 30.3938 20.0438C30.9104 19.6344 31.1651 19.4213 31.7307 19.0819C32.2963 18.7425 32.8871 18.5088 33.3611 18.3238C32.9937 18.585 32.4779 18.9956 31.9092 19.3369Z" fill="#005B00" stroke="black" stroke-width="0.0314413"/>
<path fill-rule="evenodd" clip-rule="evenodd" d="M33.5602 19.8435C32.8135 20.296 32.1778 20.5095 31.5063 20.6625C32.1619 20.056 32.482 19.735 33.2287 19.2825C33.9753 18.83 34.787 18.592 35.439 18.406C34.9649 18.7793 34.3109 19.3885 33.5602 19.8435Z" fill="#005B00" stroke="black" stroke-width="0.052336"/>
<path d="M28.486 27.167C28.5342 27.1395 28.0792 23.1695 31.1163 19.04" stroke="black" stroke-width="0.106572"/>
<path fill-rule="evenodd" clip-rule="evenodd" d="M33.1407 18.7999C33.1907 18.8849 33.1477 19.0046 33.042 19.0634C32.9362 19.1221 32.8095 19.0995 32.7582 19.0124C32.707 18.9252 32.7525 18.8097 32.8582 18.751C32.964 18.6922 33.0907 18.7149 33.1407 18.7999Z" fill="#FF0000" stroke="black" stroke-width="0.0335875"/>
<path fill-rule="evenodd" clip-rule="evenodd" d="M34.4908 18.0124C34.5408 18.0974 34.4978 18.2171 34.3921 18.2759C34.2863 18.3346 34.1596 18.312 34.1083 18.2249C34.0571 18.1378 34.1026 18.0223 34.2083 17.9635C34.3141 17.9048 34.4408 17.9274 34.4908 18.0124Z" fill="#FF0000" stroke="black" stroke-width="0.0335875"/>
<path fill-rule="evenodd" clip-rule="evenodd" d="M30.7236 20.6589C30.7586 20.7239 30.6934 20.8266 30.5759 20.8854C30.4584 20.9441 30.3345 20.938 30.2986 20.8714C30.2627 20.8047 30.3297 20.7052 30.4472 20.6465C30.5647 20.5877 30.6886 20.5939 30.7236 20.6589Z" fill="#FF0000" stroke="black" stroke-width="0.0302835"/>
<path fill-rule="evenodd" clip-rule="evenodd" d="M31.1236 20.4839C31.1586 20.5489 31.0934 20.6516 30.9759 20.7104C30.8584 20.7691 30.7345 20.763 30.6986 20.6964C30.6628 20.6298 30.7298 20.5303 30.8473 20.4715C30.9648 20.4128 31.0886 20.4189 31.1236 20.4839Z" fill="#FF0000" stroke="black" stroke-width="0.0302835"/>
<path fill-rule="evenodd" clip-rule="evenodd" d="M30.8862 20.8589C30.9212 20.9239 30.856 21.0266 30.7385 21.0854C30.621 21.1441 30.4971 21.138 30.4612 21.0714C30.4253 21.0048 30.4923 20.9053 30.6098 20.8465C30.7273 20.7878 30.8512 20.7939 30.8862 20.8589Z" fill="#FF0000" stroke="black" stroke-width="0.0302835"/>
<path fill-rule="evenodd" clip-rule="evenodd" d="M31.5876 20.9125C31.6376 21.0125 31.5876 21.1375 31.4626 21.2C31.3376 21.2625 31.2126 21.225 31.1626 21.1125C31.1126 21 31.1626 20.8875 31.2876 20.825C31.4126 20.7625 31.5376 20.8 31.5751 20.9125H31.5876Z" fill="#FF0000" stroke="black" stroke-width="0.0375"/>
<path fill-rule="evenodd" clip-rule="evenodd" d="M31.875 20.6125C31.9125 20.7125 31.875 20.8375 31.75 20.9C31.625 20.9625 31.5 20.925 31.4375 20.825C31.375 20.725 31.4375 20.5875 31.5625 20.525C31.6875 20.4625 31.8125 20.5125 31.8625 20.6125H31.875Z" fill="#FF0000" stroke="black" stroke-width="0.0375"/>
<path fill-rule="evenodd" clip-rule="evenodd" d="M31.9376 20.75C31.9876 20.85 31.9376 20.9875 31.8126 21.0375C31.6876 21.0875 31.5626 21.0625 31.5126 20.9625C31.4626 20.8625 31.5126 20.7375 31.6376 20.675C31.7626 20.6125 31.8876 20.65 31.9376 20.75Z" fill="#FF0000" stroke="black" stroke-width="0.0375"/>
<path fill-rule="evenodd" clip-rule="evenodd" d="M25.6035 22.6182C25.6035 23.99 23.037 39.0947 29.4605 43.21C32.027 44.5817 35.8767 41.8382 35.8767 43.21L34.5935 32.2282L25.6035 22.6182Z" fill="#0000C4" stroke="black" stroke-width="0.0999444"/>
<path fill-rule="evenodd" clip-rule="evenodd" d="M28.1699 25.3618C28.1699 26.7335 26.8867 37.7153 30.7437 40.4665C33.3102 43.21 39.7337 42.466 39.7337 42.466L34.5934 32.2283L28.1699 25.3618Z" fill="#E10000" stroke="black" stroke-width="0.0999444"/>
<path fill-rule="evenodd" clip-rule="evenodd" d="M22.975 19.75L34.825 32.25L35.0375 32.05L23.1875 19.5625L22.9875 19.7625L22.975 19.75Z" fill="black"/>
<path fill-rule="evenodd" clip-rule="evenodd" d="M21.1518 18.2683L21.904 18.401L22.1253 18.6223C22.095 18.62 22.3465 18.8435 22.0368 19.1533C21.727 19.463 21.2863 19.0188 21.2863 19.0188C21.2863 19.0188 21.419 19.771 21.8628 20.2148C22.3065 20.6585 22.8363 20.5688 22.8363 20.5688C22.8363 20.5688 22.332 20.1555 22.7035 19.8165C23.0755 19.4745 23.2345 19.728 23.2345 19.728L23.677 20.1705L23.9885 19.859L22.2173 18.0878L22.0845 17.3355L20.9435 17.1465L21.1523 18.2653L21.1518 18.2683Z" fill="#CECECC" stroke="black" stroke-width="0.0278887"/>
<path fill-rule="evenodd" clip-rule="evenodd" d="M22.8972 13.0152L23.8075 14.4262L24.9597 14.7372L24.2075 15.224L25.5792 15.1797L26.2005 15.6235L26.423 15.2675L25.8 14.8225L25.3145 13.4487L25.1805 14.38L24.472 13.359L22.8967 13.012L22.8972 13.0152Z" fill="#CECECC" stroke="black" stroke-width="0.0300285"/>
<path fill-rule="evenodd" clip-rule="evenodd" d="M26.6001 13.8625C26.6001 13.9375 26.5001 14.0013 26.3851 14.0013C26.2701 14.0013 26.1651 13.9375 26.1651 13.8625C26.1651 13.7875 26.2651 13.72 26.3851 13.72C26.5051 13.72 26.6001 13.7838 26.6001 13.8625ZM26.2901 14.1587C26.2901 15.5012 27.3351 21.2013 27.4201 21.34C27.4251 21.5088 27.1801 21.58 27.0651 21.3738C26.7351 20.7213 26.0251 15.3738 26.0001 14.125C25.9851 13.6113 26.1851 13.57 26.4151 13.5813C26.6001 13.5888 26.8301 13.72 26.8301 13.8775C26.8301 14.065 26.5401 14.2037 26.2901 14.1587Z" fill="#E10000" stroke="black" stroke-width="0.057735"/>
<path fill-rule="evenodd" clip-rule="evenodd" d="M26.9999 15.1937C26.9624 15.2687 26.8356 15.3075 26.7263 15.2787C26.6171 15.25 26.5492 15.16 26.5867 15.085C26.6242 15.01 26.7529 14.9675 26.8669 14.9975C26.9809 15.0275 27.0393 15.115 26.9999 15.1937ZM26.5573 15.4125C26.9023 18.1087 25.7449 22.2725 25.7544 22.4362C25.6767 22.6025 25.4064 22.6162 25.4022 22.3775C25.3453 22.2225 26.6777 18.4612 26.2987 15.3062C26.5413 14.7887 26.7519 14.7975 26.9648 14.8662C27.1368 14.92 27.2897 15.1087 27.2109 15.2662C27.1172 15.4537 26.7723 15.52 26.5573 15.4125Z" fill="#0000C4" stroke="black" stroke-width="0.060506"/>
<path fill-rule="evenodd" clip-rule="evenodd" d="M23.3375 18.9375C23.3375 19.0625 23.2125 19.1875 23.0625 19.1875C22.9125 19.1875 22.7875 19.0625 22.7875 18.9375C22.7875 18.8125 22.9125 18.7125 23.0625 18.7125C23.2125 18.7125 23.325 18.8125 23.325 18.9375H23.3375ZM22.9375 19.4375C22.9375 21.675 24.25 31.175 24.35 31.4125C24.35 31.6875 24.0625 31.8125 23.9125 31.4625C23.5 30.375 22.6125 21.4625 22.575 19.3875C22.5625 18.525 22.8125 18.4625 23.1 18.475C23.3375 18.4875 23.6125 18.7125 23.6125 18.975C23.6125 19.275 23.25 19.5125 22.9375 19.4375Z" fill="#E10000" stroke="black" stroke-width="0.0875"/>
<path fill-rule="evenodd" clip-rule="evenodd" d="M24.0124 20.0918C23.9624 20.2118 23.7999 20.2763 23.6619 20.2332C23.5239 20.1901 23.4404 20.0487 23.4904 19.9287C23.5404 19.8087 23.7054 19.7382 23.8494 19.7832C23.9934 19.8282 24.0649 19.9658 24.0124 20.0918ZM23.4429 20.4496C23.7979 24.7242 22.1974 31.3647 22.2044 31.6246C22.1004 31.8905 21.7564 31.9186 21.7584 31.5395C21.6909 31.2946 23.5014 25.2893 23.1174 20.2868C23.4419 19.4592 23.7094 19.4682 23.9779 19.5725C24.1949 19.6538 24.3834 19.9501 24.2784 20.2021C24.1534 20.5021 23.7129 20.6153 23.4429 20.4496Z" fill="#0000C4" stroke="black" stroke-width="0.0852291"/>
<path fill-rule="evenodd" clip-rule="evenodd" d="M46.3 36.35L55.3625 45.9125L55.525 45.7125L46.4625 36.15L46.3 36.35ZM40 37.9125L51.85 50.4125L52.05 50.2125L40.2125 37.7125L40 37.9125Z" fill="black"/>
<path fill-rule="evenodd" clip-rule="evenodd" d="M51.8135 50.2665L52.921 51.374L54.1834 52.3267L53.2307 51.0643L52.1232 49.9568L51.8135 50.2665Z" fill="#808080" stroke="black" stroke-width="0.0606398"/>
<path fill-rule="evenodd" clip-rule="evenodd" d="M54.8635 45.379L55.971 46.4865L57.2334 47.4392L56.2808 46.1768L55.1733 45.0693L54.8635 45.379Z" fill="#808080" stroke="black" stroke-width="0.0606398"/>
<path fill-rule="evenodd" clip-rule="evenodd" d="M54.0075 14.349C54.0075 14.349 55.0032 41.277 51.0207 41.277C47.0382 41.277 45.0413 38.445 45.0413 38.445L45.0863 23.645L54.0075 14.349Z" fill="#FFDF00" stroke="black" stroke-width="0.0894427"/>
<path fill-rule="evenodd" clip-rule="evenodd" d="M51.5718 16.861C51.5718 18.277 52.0162 38.445 50.0249 38.445C48.0337 38.445 45.0412 37.029 45.0412 37.029L45.0862 23.645L51.5718 16.861Z" fill="#0000C4" stroke="black" stroke-width="0.0894427"/>
<path fill-rule="evenodd" clip-rule="evenodd" d="M50.2781 18.221C50.2781 19.637 50.025 35.613 48.0281 35.613H45.0412L45.0862 23.645L50.2781 18.221Z" fill="#E10000" stroke="black" stroke-width="0.0894427"/>
<path fill-rule="evenodd" clip-rule="evenodd" d="M54.2249 14.5L45.1749 24.0625L45.0125 23.8625L54.0625 14.3L54.2249 14.5Z" fill="black"/>
<path fill-rule="evenodd" clip-rule="evenodd" d="M47.0814 21.8845C47.0814 21.8845 49.6184 25.1395 50.8424 27.6551C52.0654 30.176 53.4934 34.0172 53.4934 34.0172C53.4934 34.0172 52.6774 30.2355 51.1374 27.2036C49.1194 23.3895 47.0804 22.1015 47.0814 21.8845Z" fill="#005B00" stroke="black" stroke-width="0.0417337"/>
<path fill-rule="evenodd" clip-rule="evenodd" d="M46.9938 19.2987C46.9938 19.2987 49.8249 23.3243 51.1172 26.31C52.4078 29.3012 53.8448 33.785 53.8448 33.785C53.8448 33.785 53.1473 29.4712 51.511 25.8618C49.3545 21.3075 46.9757 19.5381 46.9938 19.2987Z" fill="#005B00" stroke="black" stroke-width="0.0482227"/>
<path fill-rule="evenodd" clip-rule="evenodd" d="M49.437 15.3185C49.437 15.3185 51.44 21.2797 52.0503 24.966C52.6575 28.6555 53.0282 33.733 53.0282 33.733C53.0282 33.733 53.414 29.4715 52.5958 24.9477C51.464 19.156 49.354 15.5032 49.437 15.3185Z" fill="#005B00" stroke="black" stroke-width="0.0547737"/>
<path fill-rule="evenodd" clip-rule="evenodd" d="M47.6387 15.0457C47.6387 15.0457 50.4124 20.3398 51.4927 23.9375C52.5702 27.5402 53.5835 32.738 53.5835 32.738C53.5835 32.738 53.4372 28.0162 52.0416 23.6368C50.1695 18.0735 47.5781 15.2846 47.6387 15.0457Z" fill="#005B00" stroke="black" stroke-width="0.0555036"/>
<path fill-rule="evenodd" clip-rule="evenodd" d="M50.9695 16.7305C50.9695 16.7305 52.3497 22.4305 52.6965 25.8311C53.0405 29.234 53.139 33.8252 53.139 33.8252C53.139 33.8252 53.6185 30.1095 53.1372 25.9226C52.453 20.5455 50.8952 16.8785 50.9695 16.7305Z" fill="#005B00" stroke="black" stroke-width="0.0492217"/>
<path fill-rule="evenodd" clip-rule="evenodd" d="M47.322 16.8875C47.322 16.8875 50.0052 21.4225 51.0911 24.5925C52.1745 27.7675 53.2412 32.4075 53.2412 32.4075C53.2412 32.4075 52.982 28.1075 51.5863 24.2575C49.7225 19.3775 47.2727 17.1125 47.322 16.8875Z" fill="#005B00" stroke="black" stroke-width="0.0506234"/>
<path fill-rule="evenodd" clip-rule="evenodd" d="M46.8187 20.0457C46.8187 20.0457 49.6499 23.6408 50.9421 26.3942C52.2327 29.1532 53.6697 33.3425 53.6697 33.3425C53.6697 33.3425 52.9722 29.2382 51.336 25.9176C49.1795 21.7375 46.8006 20.2796 46.8187 20.0457Z" fill="#005B00" stroke="black" stroke-width="0.0476898"/>
<path fill-rule="evenodd" clip-rule="evenodd" d="M47.1863 18.3942C47.1863 18.3942 49.7907 22.6236 50.9244 25.683C52.0563 28.7477 53.2613 33.294 53.2613 33.294C53.2613 33.294 52.7788 28.9857 51.335 25.2801C49.4225 20.5955 47.1569 18.6279 47.1863 18.3942Z" fill="#005B00" stroke="black" stroke-width="0.0475875"/>
<path fill-rule="evenodd" clip-rule="evenodd" d="M50.0067 15.4088C50.0067 15.4088 51.6811 21.2451 52.0961 24.8098C52.5077 28.3773 52.6152 33.254 52.6152 33.254C52.6152 33.254 53.2132 29.2103 52.6357 24.8309C51.813 19.218 49.9153 15.5794 50.0067 15.4088Z" fill="#005B00" stroke="black" stroke-width="0.0532434"/>
<path fill-rule="evenodd" clip-rule="evenodd" d="M47.7085 13.9537C47.7085 13.9537 50.1535 19.4516 51.0385 23.123C51.9205 26.7992 52.6705 32.0595 52.6705 32.0595C52.6705 32.0595 52.7365 27.3432 51.5815 22.8676C50.0185 17.174 47.6395 14.1869 47.7085 13.9537Z" fill="#005B00" stroke="black" stroke-width="0.0547386"/>
<path fill-rule="evenodd" clip-rule="evenodd" d="M51.6017 17.148C51.6017 17.148 52.6534 22.6213 52.8047 25.8634C52.9532 29.1075 52.7885 33.4668 52.7885 33.4668C52.7885 33.4668 53.4802 29.966 53.2396 25.9716C52.8645 20.8385 51.5191 17.2848 51.6017 17.148Z" fill="#005B00" stroke="black" stroke-width="0.0473281"/>
<path fill-rule="evenodd" clip-rule="evenodd" d="M47.396 16.2205C47.396 16.2205 49.841 20.9592 50.726 24.203C51.608 27.4515 52.358 32.154 52.358 32.154C52.358 32.154 52.424 27.8595 51.269 23.9132C49.706 18.903 47.327 16.4397 47.396 16.2205Z" fill="#005B00" stroke="black" stroke-width="0.0517292"/>
<path fill-rule="evenodd" clip-rule="evenodd" d="M56.963 19.867C56.963 19.867 59.5295 45.9535 51.83 45.9535C45.4138 45.9535 45.4138 41.8383 44.1305 41.8383L45.4138 32.2283L56.9703 19.867H56.963Z" fill="#FFDF00" stroke="black" stroke-width="0.0999444"/>
<path fill-rule="evenodd" clip-rule="evenodd" d="M54.3965 22.6182C54.3965 23.99 56.963 39.0947 50.5395 43.21C47.973 44.5817 44.1233 41.8382 44.1233 43.21L45.4065 32.2282L54.3965 22.6182Z" fill="#0000C4" stroke="black" stroke-width="0.0999444"/>
<path fill-rule="evenodd" clip-rule="evenodd" d="M51.8299 25.3618C51.8299 26.7335 53.1132 37.7153 49.2562 40.4665C46.6897 43.21 40.2662 42.466 40.2662 42.466L45.4064 32.2283L51.8299 25.3618Z" fill="#E10000" stroke="black" stroke-width="0.0999444"/>
<path fill-rule="evenodd" clip-rule="evenodd" d="M57.025 19.75L45.175 32.25L44.9625 32.05L56.8125 19.5625L57.025 19.7625V19.75Z" fill="black"/>
<path fill-rule="evenodd" clip-rule="evenodd" d="M58.8482 18.2683L58.096 18.401L57.8747 18.6223C57.905 18.62 57.6535 18.8435 57.9632 19.1533C58.273 19.463 58.7137 19.0188 58.7137 19.0188C58.7137 19.0188 58.581 19.771 58.1372 20.2148C57.6935 20.6585 57.1637 20.5688 57.1637 20.5688C57.1637 20.5688 57.668 20.1555 57.2965 19.8165C56.9245 19.4745 56.7655 19.728 56.7655 19.728L56.323 20.1705L56.0115 19.859L57.7827 18.0878L57.9155 17.3355L59.0565 17.1465L58.8477 18.2653L58.8482 18.2683Z" fill="#CECECC" stroke="black" stroke-width="0.0278887"/>
<path fill-rule="evenodd" clip-rule="evenodd" d="M57.1028 13.0152L56.1925 14.4262L55.0403 14.7372L55.7925 15.224L54.4208 15.1797L53.7995 15.6235L53.577 15.2675L54.2 14.8225L54.6855 13.4487L54.8195 14.38L55.528 13.359L57.1033 13.012L57.1028 13.0152Z" fill="#CECECC" stroke="black" stroke-width="0.0300285"/>
<path fill-rule="evenodd" clip-rule="evenodd" d="M53.4125 13.8625C53.4125 13.9375 53.5125 14.0013 53.6275 14.0013C53.7425 14.0013 53.8475 13.9375 53.8475 13.8625C53.8475 13.7875 53.7475 13.72 53.6275 13.72C53.5075 13.72 53.4125 13.7838 53.4125 13.8625ZM53.7225 14.1587C53.7225 15.5012 52.6775 21.2013 52.5925 21.34C52.5875 21.5088 52.8325 21.58 52.9475 21.3738C53.2775 20.7213 53.9875 15.3738 54.0125 14.125C54.0275 13.6113 53.8275 13.57 53.5975 13.5813C53.4125 13.5888 53.1825 13.72 53.1825 13.8775C53.1825 14.065 53.4725 14.2037 53.7225 14.1587Z" fill="#E10000" stroke="black" stroke-width="0.057735"/>
<path fill-rule="evenodd" clip-rule="evenodd" d="M52.9999 15.1937C53.0374 15.2687 53.1643 15.3075 53.2736 15.2787C53.3828 15.25 53.4507 15.16 53.4132 15.085C53.3757 15.01 53.2469 14.9675 53.1329 14.9975C53.0189 15.0275 52.9606 15.115 52.9999 15.1937ZM53.4426 15.4125C53.0976 18.1087 54.2549 22.2725 54.2454 22.4362C54.3232 22.6025 54.5934 22.6162 54.5977 22.3775C54.6546 22.2225 53.3222 18.4612 53.7012 15.3062C53.4586 14.7887 53.2479 14.7975 53.0351 14.8662C52.8631 14.92 52.7102 15.1087 52.7889 15.2662C52.8827 15.4537 53.2276 15.52 53.4426 15.4125Z" fill="#0000C4" stroke="black" stroke-width="0.060506"/>
<path fill-rule="evenodd" clip-rule="evenodd" d="M56.675 18.9375C56.675 19.0625 56.8 19.1875 56.9375 19.1875C57.0875 19.1875 57.2125 19.0625 57.2125 18.9375C57.2125 18.8125 57.0875 18.7125 56.9375 18.7125C56.7875 18.7125 56.675 18.8125 56.675 18.9375ZM57.05 19.4375C56.7507 23.4469 56.2837 27.4421 55.65 31.4125C55.65 31.6875 55.9375 31.8125 56.0875 31.4625C56.5 30.375 57.3875 21.4625 57.425 19.3875C57.4375 18.525 57.1875 18.4625 56.9 18.475C56.6625 18.4875 56.3875 18.7125 56.3875 18.975C56.3875 19.275 56.75 19.5125 57.0625 19.4375H57.05Z" fill="#E10000" stroke="black" stroke-width="0.0875"/>
<path fill-rule="evenodd" clip-rule="evenodd" d="M55.9874 20.0918C56.0374 20.2118 56.1999 20.2763 56.3379 20.2332C56.4759 20.1901 56.5594 20.0487 56.5094 19.9287C56.4594 19.8087 56.2944 19.7382 56.1504 19.7832C56.0064 19.8282 55.9349 19.9658 55.9874 20.0918ZM56.5569 20.4496C56.2019 24.7242 57.8024 31.3647 57.7954 31.6246C57.8994 31.8905 58.2434 31.9186 58.2414 31.5395C58.3089 31.2946 56.4984 25.2893 56.8824 20.2868C56.5579 19.4592 56.2904 19.4682 56.0219 19.5725C55.8049 19.6538 55.6164 19.9501 55.7214 20.2021C55.8464 20.5021 56.2869 20.6153 56.5569 20.4496Z" fill="#0000C4" stroke="black" stroke-width="0.0852291"/>
<path fill-rule="evenodd" clip-rule="evenodd" d="M35.8841 52.8199C36.4698 53.1796 37.1335 53.3689 37.809 53.3689C38.4844 53.3689 39.1481 53.1796 39.7338 52.8199V41.8382H37.1673C38.4506 45.9534 38.4506 50.0764 35.8768 52.8199H35.8841Z" fill="#E10000" stroke="black" stroke-width="0.0999444"/>
<path fill-rule="evenodd" clip-rule="evenodd" d="M37.9163 42.0812C37.9163 49.825 36.0569 51.5487 36.0569 53.1062C36.8313 53.1062 37.3475 52.38 37.9163 51.3825C38.6906 49.825 38.765 41.9587 38.6906 42.0812H37.9163Z" fill="#0000C4" stroke="black" stroke-width="0.0824958"/>
<path fill-rule="evenodd" clip-rule="evenodd" d="M36.3675 42.0812C36.3281 46.6049 34.4075 50.7962 34.7706 51.7237C35.1819 52.5549 36.3675 49.8249 37.9163 51.3737C38.6906 49.8249 38.765 41.9587 38.6906 42.0724H36.3675V42.0812Z" fill="#0000C4" stroke="black" stroke-width="0.0824958"/>
<path fill-rule="evenodd" clip-rule="evenodd" d="M36.5412 41.4212C36.5412 46.51 34.7606 46.8492 34.7606 48.2062C35.535 48.2062 36.5369 47.4645 36.5412 47.5335C37.3156 46.51 37.39 41.3407 37.3156 41.4212H36.5412Z" fill="#FFDF00" stroke="black" stroke-width="0.0668747"/>
<path fill-rule="evenodd" clip-rule="evenodd" d="M34.9926 41.4212C34.9532 44.394 33.0763 46.924 33.4394 47.5335C33.8551 48.074 34.9926 46.51 36.5413 47.5335C37.3157 46.51 37.3901 41.3407 37.3157 41.4212H34.9926Z" fill="#FFDF00" stroke="black" stroke-width="0.0668747"/>
<path fill-rule="evenodd" clip-rule="evenodd" d="M44.116 52.8199C43.5303 53.1796 42.8666 53.3689 42.1912 53.3689C41.5157 53.3689 40.852 53.1796 40.2663 52.8199V41.8382H42.8328C41.5495 45.9534 41.5495 50.0764 44.1233 52.8199H44.116Z" fill="#E10000" stroke="black" stroke-width="0.0999444"/>
<path fill-rule="evenodd" clip-rule="evenodd" d="M42.0839 42.0812C42.0839 49.825 43.9432 51.5487 43.9432 53.1062C43.1689 53.1062 42.6526 52.38 42.0839 51.3825C41.3095 49.825 41.2351 41.9587 41.3095 42.0812H42.0839Z" fill="#0000C4" stroke="black" stroke-width="0.0824958"/>
<path fill-rule="evenodd" clip-rule="evenodd" d="M43.6326 42.0812C43.672 46.6049 45.5926 50.7962 45.2295 51.7237C44.8182 52.5549 43.6326 49.8249 42.0839 51.3737C41.3095 49.8249 41.2351 41.9587 41.3095 42.0724H43.6326V42.0812Z" fill="#0000C4" stroke="black" stroke-width="0.0824958"/>
<path fill-rule="evenodd" clip-rule="evenodd" d="M43.4588 41.4212C43.4588 46.51 45.2394 46.8492 45.2394 48.2062C44.465 48.2062 43.4631 47.4645 43.4588 47.5335C42.6844 46.51 42.61 41.3407 42.6844 41.4212H43.4588Z" fill="#FFDF00" stroke="black" stroke-width="0.0668747"/>
<path fill-rule="evenodd" clip-rule="evenodd" d="M45.0076 41.4212C45.0469 44.394 46.9238 46.924 46.5607 47.5335C46.1451 48.074 45.0076 46.51 43.4588 47.5335C42.6844 46.51 42.6101 41.3407 42.6844 41.4212H45.0076Z" fill="#FFDF00" stroke="black" stroke-width="0.0668747"/>
<path fill-rule="evenodd" clip-rule="evenodd" d="M30.204 42.695L28.8585 43.6685L30.204 44.642L30.876 44.1552L31.212 44.642L31.548 45.6155L31.8855 44.642L32.2215 44.1552H50.25V43.1817H32.22L31.884 42.6922C31.884 42.2055 31.9545 41.7187 32.2215 41.7187H33.5655C33.5655 41.232 32.8935 40.2585 31.548 40.2585C30.204 40.2585 29.5305 41.232 29.5305 41.7187H30.876C31.1415 41.7187 31.212 42.2055 31.212 42.695L30.876 43.1817L30.2025 42.6922L30.204 42.695Z" fill="#908F8A" stroke="black" stroke-width="0.0913954"/>
<path fill-rule="evenodd" clip-rule="evenodd" d="M34.1505 45.0548H45.935V45.6522H34.154L34.1505 45.0548ZM34.1505 44.4541H45.935V45.0548H34.154L34.1505 44.4541ZM34.1505 43.8567H45.935V44.4575H34.154L34.1505 43.8567ZM34.1505 43.2593H45.935V43.8567H34.154L34.1505 43.2593ZM34.1505 42.662H45.935V43.2593H34.154L34.1505 42.662ZM34.1505 42.0612H45.935V42.662H34.154L34.1505 42.0612ZM34.1505 41.4672H45.935V42.0612H34.154L34.1505 41.4672Z" fill="#B74D00"/>
<path d="M45.935 45.0548H34.1505L34.154 45.6522H45.935V45.0548ZM45.935 45.0548V44.4541H34.1505L34.154 45.0548H45.935ZM45.935 43.8567H34.1505L34.154 44.4575H45.935V43.8567ZM45.935 43.8567V43.2593M45.935 43.8567H34.154L34.1505 43.2593H45.935M45.935 43.2593V42.662M45.935 43.2593H34.154L34.1505 42.662H45.935M45.935 42.662V42.0612M45.935 42.662H34.154L34.1505 42.0612H45.935M45.935 42.0612V41.4672H34.1505L34.154 42.0612H45.935Z" stroke="black" stroke-width="0.0618648"/>
<path fill-rule="evenodd" clip-rule="evenodd" d="M34.7125 41.4318L39.0188 45.6168H39.6344L35.3313 41.4351H34.7156L34.7125 41.4318Z" fill="#908F8A" stroke="black" stroke-width="0.107171"/>
<path fill-rule="evenodd" clip-rule="evenodd" d="M34.7125 45.7432L39.0188 41.5582H39.6344L35.3313 45.7399H34.7156L34.7125 45.7432Z" fill="#908F8A" stroke="black" stroke-width="0.107171"/>
<path fill-rule="evenodd" clip-rule="evenodd" d="M34.832 41.4318V45.6168H35.4515V41.4318H34.832Z" fill="#908F8A" stroke="black" stroke-width="0.106545"/>
<path fill-rule="evenodd" clip-rule="evenodd" d="M40.25 41.4318L44.5562 45.6168H45.1719L40.8687 41.4351H40.2531L40.25 41.4318Z" fill="#908F8A" stroke="black" stroke-width="0.107171"/>
<path fill-rule="evenodd" clip-rule="evenodd" d="M40.25 45.7432L44.5562 41.5582H45.1719L40.8687 45.7399H40.2531L40.25 45.7432Z" fill="#908F8A" stroke="black" stroke-width="0.107171"/>
<path fill-rule="evenodd" clip-rule="evenodd" d="M44.682 41.4318V45.6168H45.3015V41.4318H44.682Z" fill="#908F8A" stroke="black" stroke-width="0.106545"/>
<path fill-rule="evenodd" clip-rule="evenodd" d="M40.3821 41.4318V45.6168H41.0016V41.4318H40.3821Z" fill="#908F8A" stroke="black" stroke-width="0.106545"/>
<path fill-rule="evenodd" clip-rule="evenodd" d="M39.1321 41.4318V45.6168H39.7516V41.4318H39.1321Z" fill="#908F8A" stroke="black" stroke-width="0.106545"/>
<path fill-rule="evenodd" clip-rule="evenodd" d="M48.7238 29.4847C48.7238 36.3047 44.6928 41.8382 39.7338 41.8382C34.7748 41.8382 30.7438 36.3047 30.7438 29.4847C30.7438 22.6647 34.7675 17.1235 39.7338 17.1235C44.7 17.1235 48.7238 22.657 48.7238 29.477V29.4847ZM47.4405 29.4847C47.4405 35.5452 43.9895 40.4665 39.7338 40.4665C35.478 40.4665 32.027 35.5452 32.027 29.4847C32.027 23.4165 35.478 18.4952 39.7338 18.4952C43.9895 18.4952 47.4405 23.4165 47.4405 29.4847Z" fill="#FFDF00" stroke="black" stroke-width="0.0999444"/>
<path fill-rule="evenodd" clip-rule="evenodd" d="M43.2356 18.1C42.1553 17.4722 40.9736 17.1235 39.7338 17.1235C38.4941 17.1235 37.3123 17.4722 36.2321 18.0922L36.7396 19.3632C37.6513 18.8015 38.6851 18.5057 39.7374 18.5057C40.7898 18.5057 41.8236 18.8015 42.7353 19.3632L43.2356 18.0922V18.1Z" fill="#FFDF00" stroke="black" stroke-width="0.0999444"/>
<path fill-rule="evenodd" clip-rule="evenodd" d="M43.2606 40.5375C42.1803 41.1652 40.9986 41.514 39.7588 41.514C38.5191 41.514 37.3373 41.1652 36.2571 40.5452L36.7646 39.2742C37.6763 39.836 38.7101 40.1317 39.7625 40.1317C40.8148 40.1317 41.8486 39.836 42.7603 39.2742L43.2606 40.5452V40.5375Z" fill="#FFDF00" stroke="black" stroke-width="0.0999444"/>
<path fill-rule="evenodd" clip-rule="evenodd" d="M47.45 29.4875C47.45 35.55 43.9875 40.4625 39.7375 40.4625C35.4875 40.4625 32.0375 35.55 32.0375 29.4875C32.0375 23.425 35.4875 18.4875 39.7375 18.4875C43.9875 18.4875 47.45 23.4125 47.45 29.4875Z" fill="#A7CFFF"/>
<path fill-rule="evenodd" clip-rule="evenodd" d="M47.4405 29.4847C47.5202 31.5462 47.107 32.5537 46.5777 34.7005C46.44 34.933 45.7802 34.1967 45.3887 33.8325C44.9972 33.4682 44.8232 34.158 44.3302 33.6C43.8445 33.0265 43.5327 33.755 43.1702 33.2745C42.8077 32.794 39.451 32.732 39.451 32.6855C39.7845 32.515 41.4955 32.701 41.22 31.8252C40.9082 30.9107 38.9725 31.7942 38.7115 30.6317C38.5302 29.4692 34.8255 29.4227 34.5572 29.1437C34.666 29.5777 37.4427 29.7637 37.3775 30.8875C37.3122 31.3525 34.6442 31.4842 34.3832 31.8717C34.1657 32.36 36.4857 31.74 36.5655 32.3367C36.5655 32.5847 36.2247 32.3367 35.0212 32.7242C34.4122 32.918 36.1377 33.5225 35.4852 33.8557C34.8327 34.189 33.4335 34.3362 33.4915 34.4757C33.709 35.1732 36.7322 35.9947 36.435 36.111C35.362 36.6225 34.7965 36.9557 34.2817 37.2502C32.7735 34.9856 31.9833 32.2642 32.027 29.4847C34.3252 28.6012 33.8395 28.4152 38.088 28.4152C42.3365 28.4152 43.743 28.5935 47.4405 29.4847Z" fill="#AFFF7B" stroke="black" stroke-width="0.0999444"/>
<path fill-rule="evenodd" clip-rule="evenodd" d="M47.4405 29.4848C46.8605 29.4848 46.2515 29.7483 45.628 29.7483C44.9972 29.7483 44.3592 29.477 43.7067 29.477C43.0542 29.477 42.3075 29.8335 41.6405 29.8335C40.9662 29.8335 40.379 29.4848 39.7047 29.4848C39.0305 29.4848 38.3562 29.7483 37.6892 29.7483C37.0222 29.7483 36.3625 29.477 35.7172 29.477C35.072 29.477 34.434 29.7483 33.8177 29.7483C33.2015 29.7483 32.5997 29.477 32.027 29.477C32.027 27.9658 32.2445 26.5243 32.636 25.2068C34.5935 25.3618 33.4335 23.99 34.5935 23.99C34.9321 23.9704 35.2708 24.028 35.587 24.1589C35.9032 24.2899 36.1898 24.4912 36.4277 24.7495C36.6017 24.7495 37.4717 23.866 38.4505 23.99C39.422 24.114 39.0667 26.1058 40.3645 26.2065C41.017 26.7335 41.4012 27.0668 42.3002 27.2838C43.5835 27.4078 47.2592 27.09 47.281 27.2683C47.3868 28.0017 47.4401 28.7427 47.4405 29.4848Z" fill="white" stroke="black" stroke-width="0.0999444"/>
<path fill-rule="evenodd" clip-rule="evenodd" d="M40.8975 35.8775C40.8975 35.5355 41.235 35.3075 41.235 34.7615C41.235 34.2155 40.935 34.2035 40.925 33.6935C40.92 33.4835 41.1825 33.2735 41.2975 33.2495C41.4125 33.2255 41.51 33.6935 41.51 33.7955C41.51 33.8975 41.3925 33.5435 41.295 33.5375C41.1975 33.5315 40.9875 33.5735 40.9875 33.6755C40.9875 33.8795 41.3575 34.1315 41.33 34.8155C41.3025 35.4875 41.0125 35.6915 41.0125 35.8955C41.0125 36.0995 41.1375 36.6635 41.1375 36.6635C41.1375 36.6635 40.895 36.2135 40.895 35.8715L40.8975 35.8775Z" fill="black" stroke="black" stroke-width="0.0516398"/>
<path fill-rule="evenodd" clip-rule="evenodd" d="M41.9775 35.8275C41.9775 35.4855 41.64 35.2575 41.64 34.7115C41.64 34.1655 41.94 34.1535 41.95 33.6435C41.975 33.4035 41.655 33.2475 41.54 33.2295C41.425 33.2115 41.29 33.7095 41.29 33.8055C41.29 33.9015 41.425 33.4935 41.5225 33.4875C41.62 33.4815 41.8875 33.5235 41.8875 33.6255C41.8875 33.8295 41.5175 34.0815 41.545 34.7655C41.5725 35.4375 41.8625 35.6415 41.8625 35.8455C41.8625 36.0495 41.7375 36.6135 41.7375 36.6135C41.7375 36.6135 41.98 36.1635 41.98 35.8215L41.9775 35.8275Z" fill="black" stroke="black" stroke-width="0.0516398"/>
<path fill-rule="evenodd" clip-rule="evenodd" d="M41.625 33.1125C41.625 33.275 41.5375 33.4125 41.4375 33.4125C41.3375 33.4125 41.2625 33.275 41.2625 33.1C41.2625 32.925 41.3375 32.8 41.4375 32.8C41.5375 32.8 41.625 32.9375 41.625 33.1125ZM43.75 34.2375H43.7999V36.675H43.7374L43.75 34.2375ZM44.2625 34.0375H44.325V36.5H44.2625V34.0375Z" fill="black"/>
<path fill-rule="evenodd" clip-rule="evenodd" d="M44.075 35.15V35.0875L44.575 35.175V35.2375L44.075 35.15Z" fill="black"/>
<path fill-rule="evenodd" clip-rule="evenodd" d="M36.9292 35.8575C36.9292 35.8575 38.8142 36.741 39.2275 37.268C39.6335 37.795 39.474 37.795 39.474 37.795L43.6572 37.9732C43.6572 37.7097 44.3967 37.7097 44.5635 37.0897C44.7302 36.4775 44.7302 36.2992 44.7302 36.2992L43.418 36.741L43.4905 35.9505H42.345L42.1782 36.741L39.7132 36.6557L39.88 34.54L39.387 34.6252L39.3145 36.6402C39.2275 36.6402 37.009 36.028 36.922 35.8575H36.9292Z" fill="#B74D00" stroke="black" stroke-width="0.0999444"/>
<path fill-rule="evenodd" clip-rule="evenodd" d="M33.1362 23.2383C33.1362 23.2383 35.8695 22.3703 39.8135 22.4323C43.7575 22.4943 46.4907 23.4243 46.4327 23.4243C46.3747 23.4243 45.6787 21.9983 45.6787 21.9983C45.6787 21.9983 42.8947 21.1845 39.7555 21.1225C36.6235 21.0605 33.8902 21.7425 33.9555 21.8045L33.1362 23.2383Z" fill="#FEDE00" stroke="#FEDE00" stroke-width="0.0999444"/>
<path fill-rule="evenodd" clip-rule="evenodd" d="M38.25 21.225L39.95 21.2L39.975 22.1875L38.275 22.225L38.25 21.225ZM34.35 21.7625L33.75 22.75L35.775 22.5L35.6125 21.5375L34.35 21.7875V21.7625ZM36.0625 21.3875L37.7625 21.25L37.8375 22.225L36.15 22.375L36.0625 21.3875ZM42.175 21.3L40.4875 21.175L40.425 22.175L42.1125 22.275L42.175 21.3ZM45.825 21.925L46.4375 23.125L44.6125 22.675L44.8125 21.7125L45.8125 21.9125L45.825 21.925ZM44.35 21.55L42.675 21.3375L42.55 22.3125L44.2375 22.5375L44.35 21.55Z" fill="#38A9F9"/>
<path fill-rule="evenodd" clip-rule="evenodd" d="M39.8135 23.7962L39.6323 22.75L39.0813 23.6412L39.2843 22.595L38.465 23.1917L39.016 22.316L38.0445 22.533L38.8783 21.944L37.8995 21.7502L38.8783 21.5487L38.0445 20.9597L39.016 21.1767L38.4578 20.301L39.2843 20.8977L39.0813 19.8515L39.6323 20.7427L39.8135 19.6965L40.002 20.7427L40.5458 19.8515L40.35 20.8977L41.1693 20.301L40.611 21.1767L41.5898 20.9597L40.756 21.5487L41.7348 21.7502L40.756 21.944L41.5898 22.533L40.611 22.316L41.1693 23.1917L40.35 22.595L40.553 23.6412L40.002 22.75L39.8135 23.7962Z" fill="#FFDF00" stroke="black" stroke-width="0.0999444"/>
<path fill-rule="evenodd" clip-rule="evenodd" d="M41.2612 21.0937C41.2612 21.675 40.791 22.1437 40.2067 22.1437C39.6225 22.1437 39.1522 21.675 39.1522 21.0937C39.1522 20.5125 39.6225 20.0375 40.2067 20.0375C40.791 20.0375 41.2612 20.5125 41.2612 21.1V21.0937Z" fill="#FFDF00" stroke="black" stroke-width="0.0889757"/>
<path fill-rule="evenodd" clip-rule="evenodd" d="M40.0875 21.325C40.0875 21.3875 39.9249 21.45 39.7374 21.45C39.5499 21.45 39.3875 21.3875 39.3875 21.325C39.3875 21.2625 39.5374 21.2 39.7374 21.2C39.9374 21.2 40.0875 21.25 40.0875 21.325ZM40.8375 21.325C40.8375 21.3875 40.725 21.45 40.5875 21.45C40.45 21.45 40.3125 21.3875 40.3125 21.325C40.3125 21.25 40.4375 21.2 40.575 21.2C40.7125 21.2 40.8375 21.25 40.8375 21.325Z" fill="black"/>
<path d="M40.0509 21.756L40.1239 21.798C39.9484 21.6908 40.0284 21.7305 40.3039 22.002C40.4612 21.9105 40.4911 21.8273 40.5888 21.714" stroke="black" stroke-width="0.100943"/>
<path d="M39.353 22.3083L39.411 22.3703C39.2733 22.2153 39.3385 22.2928 39.643 22.4943C39.933 22.533 40.2303 22.4013 40.4043 22.1843" stroke="black" stroke-width="0.0999444"/>
<path fill-rule="evenodd" clip-rule="evenodd" d="M35.175 24.35C35.175 24.35 35.3 25.35 34.5375 26.6C33.7875 27.8375 33.9 27.4 33.9 27.4C33.9 27.4 34.25 28.0875 34.1875 28.0875C34.125 28.0875 33.6 27.4625 33.6 27.4625L32.975 28.15C32.975 28.15 33.55 27.0875 33.4875 27.0875C33.425 27.0875 33.3125 26.7125 33.3125 26.7125L33.775 26.525C33.775 26.525 34.475 25.225 34.475 25.2875C34.475 25.35 32.3875 26.7125 32.3875 26.7125L35.175 24.3625V24.35ZM35.6375 24.725C35.575 24.725 35.925 25.725 36.225 26.225C36.5125 26.725 36.5125 27.3375 36.5125 27.3375L37.5 27.8375L36.225 25.9125L37.0375 26.2125L35.6375 24.725ZM35.6375 27.3375C35.6375 27.3375 36.3375 28.0875 36.3875 28.3375C36.4375 28.5875 36.45 29.1375 36.45 29.1375L36.1625 28.5125L35.75 29.075C35.75 29.075 36.05 28.2 35.9875 28.1375C35.925 28.075 35.525 28.45 35.525 28.45C35.525 28.45 35.7 27.95 35.7 27.9C35.7 27.85 35.7 27.525 35.6375 27.3375ZM32.15 29.075C32.3875 28.8875 32.85 28.7625 32.85 28.7625C32.85 28.7625 32.5625 29.2625 32.5 29.2625C32.4375 29.2625 32.275 29.2625 32.15 29.075ZM40.1625 26.35C40.1625 26.35 41.675 27.275 41.675 27.3375C41.675 27.4 40.6875 26.9 40.6875 26.9L40.1625 26.35ZM37.4375 24.4125C37.5625 24.475 39.65 26.2125 39.5875 26.2125C39.525 26.2125 38.6625 25.7125 38.6625 25.7875V26.2125L38.1875 25.225L38.075 25.6L37.45 24.4125H37.4375ZM37.9625 27.2125L38.5375 28.3875L39.125 28.2625C39.125 28.2625 38.025 27.2125 37.9625 27.2125ZM39.7625 26.4625L39.825 27.5875C39.825 27.5875 40.1625 27.9 40.1625 27.8375C40.1625 27.775 39.825 26.525 39.7625 26.4625Z" fill="#B7E1FF"/>
<path fill-rule="evenodd" clip-rule="evenodd" d="M22.825 11.1875C22.825 11.1875 25.45 9.73749 28.4375 8.66249C30.6355 7.85489 32.9035 7.25232 35.2125 6.86249C36.0875 6.86249 37.6124 9.08749 37.8624 9.08749C38.1124 9.08749 39.125 8.46249 40.4 8.46249C41.675 8.46249 42.4124 9.46249 42.6749 9.46249H44.95C45.2 9.46249 44.1875 6.98749 44.95 7.11249C45.325 7.17499 48.5499 7.67499 51.5499 8.63749C54.5499 9.61249 58.7999 11.3375 58.7999 11.3375C58.7999 11.3375 51.8624 12.25 50 11.9875C49.75 12.1125 50 13.6125 49.625 12.95C49.0499 12.825 46.9124 12.4875 46.5374 12.4875C46.1624 12.4875 45.45 12.9125 44.4375 13.1625C43.4375 13.4125 42.1624 13.7875 42.1624 13.7875L43.8125 16.375L41.7874 17.375C41.7874 17.375 40.525 14.4 40.0125 14.4C39.5 14.4 39.2625 16.5 38.625 16.375C38 16.25 37.7499 14.4 37.2374 13.9C36.7374 13.4125 34.0624 13.225 33.0499 12.9875C32.0499 12.7375 30.4124 12.55 29.525 12.3C28.65 12.05 27.75 12.925 27.375 12.925C27 12.925 27.875 12.175 27.5 12.05C27.125 11.925 26.875 12.425 26.625 12.425C26.375 12.425 23.7125 11.925 23.4625 11.8C23.2125 11.675 24.0875 11.1875 23.8375 11.1875H22.825Z" fill="#984000"/>
<path fill-rule="evenodd" clip-rule="evenodd" d="M41.6825 9.95001C41.6825 10.639 41.116 11.198 40.4203 11.198C39.7245 11.198 39.1608 10.639 39.1608 9.95001C39.1608 9.26101 39.7245 8.70526 40.4203 8.70526C41.116 8.70526 41.6825 9.26426 41.6825 9.95001Z" fill="#808080" stroke="#772600" stroke-width="0.110614"/>
<path fill-rule="evenodd" clip-rule="evenodd" d="M35.2836 10.1875C35.5097 9.92348 35.7898 9.52348 36.5222 9.52348C36.6909 9.45548 36.6909 9.05548 37.0824 9.05548C37.4773 9.05548 37.3626 9.45548 37.6461 9.59148C37.9262 9.72348 40.2313 9.45548 40.2313 9.45548C40.2313 9.45548 40.4541 9.65548 40.4541 9.92348C40.4541 10.1915 40.2853 10.3875 40.2313 10.3875C40.1773 10.3875 37.9262 10.1875 37.7574 10.2555C37.5887 10.3235 37.4773 10.3875 37.0824 10.3875C36.6909 10.3875 36.5762 9.92348 36.2961 9.92348C36.0159 9.92348 35.7358 9.85548 35.2836 10.1915V10.1875Z" fill="#984000" stroke="#772600" stroke-width="0.194734"/>
<path d="M42.1416 10.0485H43.0394C43.3634 10.0525 43.4747 10.1685 43.7717 10.1805H44.5581C44.845 10.1685 44.9969 10.0885 45.2871 10.0485C45.7765 10.0405 45.6111 9.99652 45.5132 9.64852C45.4255 9.38852 45.412 9.26452 45.2871 9.11652C45.2399 8.79652 45.1319 8.68452 45.1184 8.31652C45.0677 8.03652 44.9732 7.84852 45.0644 7.51652C45.1926 7.74452 45.2432 7.83652 45.5706 7.85252C45.9081 7.85252 46.0397 7.84052 46.2456 7.98452C46.4009 8.18052 46.6101 8.11652 46.9206 8.11652C47.1771 8.17252 47.221 8.32852 47.4235 8.44852C47.6631 8.60852 47.8184 8.64852 48.1525 8.64852C48.4225 8.70852 48.6587 8.75252 48.8275 8.84852C48.9726 9.05252 49.1987 9.10452 49.5025 9.11652C49.6712 9.11652 49.8062 9.09652 49.9514 9.04852C50.2112 9.06452 50.4745 9.04852 50.7951 9.04852C51.0044 9.33652 51.0516 9.44452 51.4127 9.44852C51.6625 9.65652 51.8717 9.68852 52.0877 9.78052H52.9315C53.2352 9.80852 53.3297 9.95652 53.6065 10.0485C53.8439 10.1757 54.0873 10.2865 54.3355 10.3805C54.577 10.4324 54.8224 10.4551 55.0679 10.4485C55.2737 10.5765 55.5269 10.5845 55.6855 10.7125C55.9184 10.7725 56.2356 10.8445 56.4145 10.9125C56.7115 10.9605 56.8262 11.0725 57.0895 11.1125C57.3156 11.1925 57.0152 11.2565 56.8634 11.3125C56.5326 11.3005 56.509 11.1525 56.1884 11.1125C56.0196 10.9965 55.7631 11.0125 55.5134 10.9125H55.4594C55.6821 11.0725 55.8981 11.1725 55.7969 11.4485C55.51 11.4485 55.2771 11.4045 55.0105 11.3805C54.727 11.3165 54.5987 11.2485 54.2815 11.2485C54.5987 11.1565 54.6797 11.2565 54.8991 11.3805C54.9801 11.7005 54.8046 11.5805 54.5042 11.5805C54.2477 11.4725 54.0925 11.3405 53.7752 11.3125H53.1002C53.4344 11.3285 53.5052 11.4765 53.7179 11.6485C53.7347 11.7525 53.7145 11.7445 53.5491 11.7805C53.3736 11.6005 53.1475 11.5405 52.8741 11.4485C52.6075 11.4365 52.3274 11.4085 52.0877 11.3125C51.9224 11.3005 51.9494 11.0685 52.3139 11.4485C52.5332 11.6005 52.6109 11.7285 52.594 11.8485C52.3037 11.7605 52.162 11.6245 51.9764 11.5125C51.7239 11.4087 51.4568 11.3639 51.19 11.3805C50.8997 11.2885 51.2204 11.2365 51.4127 11.5805C51.8312 11.9325 51.3587 11.7805 51.19 11.7125C50.9369 11.6285 50.6736 11.5045 50.4576 11.4485C50.2889 11.3885 50.1404 11.3325 49.9514 11.3125C50.245 11.3445 50.3429 11.4685 50.4576 11.7125C50.7546 11.9525 50.4441 11.8365 50.1775 11.7805C50.0087 11.6045 49.7894 11.5125 49.6712 11.3125C49.3911 11.1485 49.381 10.9525 49.5599 11.3805C49.6037 11.5165 49.5936 11.8125 49.6139 11.8485C49.408 11.5805 49.4519 11.5125 49.2224 11.5125C49.0637 11.3845 48.8342 11.2845 48.7161 11.1125C48.5001 11.0885 48.4866 10.9965 48.2672 10.9125C48.4461 11.1645 48.6857 11.4125 48.8275 11.6485C49.084 11.8165 49.1549 11.9685 49.3337 12.1125C49.4046 12.2605 49.6037 12.3805 49.3911 12.1805C49.1481 11.9005 48.9692 11.8325 48.6047 11.6485C48.3955 11.4485 48.3212 11.3685 48.0985 11.1805C47.7947 11.0645 47.9129 11.0005 48.0985 11.3805C48.3111 11.6125 48.4731 11.8685 48.6587 12.0485C48.8043 12.2546 48.9749 12.4339 49.165 12.5805C49.2156 12.6685 49.3675 12.6845 49.165 12.7125C48.9962 12.5285 48.7465 12.4125 48.5474 12.2445C48.2672 12.1525 48.1356 11.9805 47.9297 11.7805C47.7947 11.5445 47.5787 11.3645 47.4235 11.1805C47.0995 11.0285 47.4876 11.3245 47.5922 11.5125C47.6631 11.7565 47.7542 11.9525 47.815 12.1805C47.9095 12.4005 47.5315 12.1285 47.4235 12.0485C47.2014 11.878 46.9521 11.7636 46.6911 11.7125C46.4674 11.6595 46.2423 11.6154 46.0161 11.5805C45.763 11.5005 46.1545 11.7725 46.2996 12.0485C46.5831 12.3645 46.0195 12.1045 45.8507 12.0485C45.5721 11.9924 45.2894 11.9696 45.007 11.9805C44.6459 12.0045 44.9057 12.0605 45.007 12.2445C45.1184 12.3485 45.196 12.5645 45.1757 12.6445C44.9395 12.6045 44.737 12.5245 44.4434 12.5125C44.2071 12.6045 43.927 12.5805 43.657 12.5805C43.6469 12.7485 43.7076 12.6045 43.8257 12.7805C44.0215 12.8725 44.1497 12.9845 44.1092 13.1125H42.4791C42.3002 13.1685 42.5162 13.1405 42.6479 13.3805C42.5736 13.5965 42.4791 13.5125 42.253 13.5125C42.1011 13.4405 41.794 13.4085 41.6354 13.3125C41.4767 13.3125 41.4902 13.2645 41.3552 13.2445C41.8277 13.6445 41.5915 13.5445 41.8615 13.8445C41.9054 13.8645 42.0134 13.9125 41.9155 13.9125M38.2064 16.0445C38.1726 16.0445 38.0984 15.8285 37.9836 15.6445C37.9026 15.4045 37.8014 15.5405 37.7001 15.1765C37.7136 14.8005 37.7237 14.7365 37.7001 14.3765C37.4706 14.1845 37.3727 14.1285 37.1939 13.7765C36.9104 13.4965 37.2377 13.0165 37.2917 12.6645C37.042 12.6005 36.9205 13.1245 36.5391 13.3125C36.2624 13.5325 36.5054 12.8565 36.3704 12.4645C36.2792 11.9085 36.0059 12.7445 35.9046 12.9805C35.719 13.1285 35.6616 13.3205 35.3984 13.0445C35.3984 12.8405 35.5637 12.2645 35.4929 12.1525C35.2296 12.3085 34.8854 12.7725 34.612 12.8445C34.3352 12.7765 34.6694 12.2525 34.6694 11.8645C34.5681 11.8245 34.1732 12.8965 34.0112 12.9045C33.8492 12.9125 33.9201 11.8645 33.8425 11.8885C33.7244 12.0885 33.4847 12.5045 33.3194 12.6485C32.9987 12.5965 33.3666 11.9485 33.4139 11.7085C33.4679 11.4205 33.1135 12.2605 32.9245 12.3125C32.7861 12.4565 32.5127 12.5525 32.4182 12.5805C32.5262 12.3325 33.0595 11.8325 33.0257 11.6885C32.7119 11.7005 32.236 12.1885 31.9694 12.2485C31.7939 12.2485 31.5509 12.3165 31.5205 12.3125C31.534 11.9925 32.1752 11.7285 32.2765 11.5325C31.9626 11.5925 31.3585 11.9205 31.183 12.1805C30.9737 12.2325 30.7105 12.3005 30.508 12.1805C30.5384 11.8805 31.0109 11.3005 31.1155 11.1085C30.8286 11.2565 30.6869 11.3725 30.3831 11.4405C30.3257 11.5085 30.1637 11.6525 30.2144 11.5085C30.3055 11.2285 30.4405 11.1085 30.5519 10.9085C30.2987 10.9645 30.2042 11.1365 29.9342 11.3085C29.7621 11.3165 29.2694 11.9045 29.104 11.9125C28.8241 12.174 28.4973 12.356 28.1489 12.4445C27.8924 12.5005 27.7675 12.5645 27.6426 12.7125C27.7709 12.4445 27.9666 12.1925 28.1489 12.0485C28.2601 11.8057 28.439 11.6163 28.6551 11.5125C28.7192 11.4205 28.8947 11.3965 28.7091 11.3805C28.5505 11.5485 28.2805 11.7405 28.1489 11.8485C27.9767 11.9765 27.7776 12.1045 27.6966 12.0485C27.7877 11.7605 27.9497 11.6885 28.0915 11.4485C28.3885 11.2245 28.0915 11.3685 27.8654 11.4485C27.7202 11.6005 27.4604 11.7165 27.2477 11.8485C27.0115 11.9205 26.8529 12.0885 26.5727 12.1805C26.5727 12.2765 26.6537 12.0085 26.6875 11.9125C26.917 11.6165 26.9777 11.5325 27.2477 11.4485C27.3152 11.3325 27.3962 11.3805 27.1937 11.3805C27.0385 11.5405 26.8292 11.6285 26.6301 11.7805C26.431 11.8325 26.1711 11.8485 25.9011 11.8485C25.5501 11.8965 25.5805 11.9285 25.9011 11.7125C26.08 11.5125 26.2285 11.5645 26.2386 11.3125C26.026 11.4965 25.7661 11.6325 25.5062 11.7805C25.2902 11.7885 25.2329 11.8485 25 11.8485C25.1114 11.7125 25.1789 11.5405 25.3375 11.4485C25.5737 11.1405 25.189 11.3885 25.1114 11.4485H24.2676C24.1191 11.6725 24.2609 11.4485 24.3824 11.3125C24.5275 11.2245 24.6794 11.1085 24.6625 11.0485C24.4937 11.2205 24.3014 11.3005 24.1562 11.4485C24.001 11.5045 23.8187 11.5285 23.8187 11.5805C23.9436 11.3685 24.1427 11.2365 24.271 11.0485C24.46 11.0005 24.622 10.9285 24.6625 10.8485H23.8761H24.4364C24.7232 10.8485 24.9662 10.8165 25.2261 10.7805C25.6716 10.6925 25.1856 10.6485 24.9426 10.6485C24.8987 10.5445 25.0844 10.4885 25.2801 10.4485C25.4489 10.3525 25.6615 10.2685 25.8437 10.1805C26.0046 10.1224 26.1563 10.0332 26.2926 9.91652C26.1239 9.92452 26.1239 9.97252 25.9551 9.98052C26.2082 9.96052 26.3871 9.91652 26.6875 9.91652C26.9349 9.81987 27.1781 9.70907 27.4165 9.58452C27.5177 9.44052 27.5582 9.44852 27.3051 9.44852C27.5312 9.36452 27.8519 9.32052 28.0341 9.24852C28.2667 9.19077 28.4932 9.10221 28.7091 8.98452C28.8745 8.85252 28.969 8.69652 29.158 8.58452C29.3774 8.76052 29.3807 8.78452 29.7756 8.78452C30.0929 8.78052 30.2886 8.68852 30.4506 8.51652C30.6936 8.43652 30.7375 8.30052 31.0142 8.25252C31.2743 8.30094 31.5374 8.32235 31.8006 8.31652C32.0706 8.23252 32.3305 8.07652 32.5296 7.91652C32.7017 7.81652 32.9076 7.67252 33.0932 7.58452C33.2957 7.70852 33.4577 7.80852 33.7109 7.85252C33.9707 7.80452 34.1091 7.65252 34.3285 7.58452C34.4638 7.41384 34.6408 7.29773 34.8347 7.25252C35.1621 7.06052 35.1385 7.31252 35.2836 7.51652C35.4524 7.72452 35.6684 7.62452 35.9012 7.71652C36.0329 7.95652 36.1274 8.11652 36.2961 8.24852C36.4277 8.44052 36.583 8.48852 36.8597 8.51652C36.961 8.67652 36.88 8.78852 37.0825 8.84852C37.1635 8.95252 37.3019 8.99252 37.42 9.04852" stroke="#772600" stroke-width="0.128598"/>
<path d="M41.4936 14.3445V14.3765C41.4936 14.2845 41.4936 14.3365 41.5509 14.5125C41.5712 14.6565 41.5239 14.6405 41.4666 14.7445C41.4564 14.8925 41.4396 15.0005 41.4396 15.1765C41.4193 15.3205 41.3518 15.4565 41.2978 15.5765C41.2438 15.7005 41.0109 15.7725 41.0177 15.9445C40.8827 15.9885 40.8793 15.8845 40.8759 15.7085C40.7949 15.6005 40.7679 15.4525 40.7072 15.3085C40.6734 15.1725 40.5924 15.0685 40.5384 14.9085C40.4574 14.7605 40.3866 14.7165 40.3157 14.5445C40.2853 14.4645 40.2921 14.3605 40.2313 14.3125C40.1402 14.1725 40.0794 14.1525 39.9208 14.1445C39.7993 14.1765 39.7521 14.2405 39.6407 14.2765C39.5529 14.3125 39.3842 14.3005 39.2762 14.3445C39.2492 14.3965 39.3302 14.4245 39.3606 14.5445C39.2863 14.6165 39.2593 14.7405 39.2188 14.8445C39.1513 14.9445 39.1074 14.9925 39.0771 15.1445C39.1243 15.2365 39.0838 15.3605 39.0231 15.4445C39.0028 15.5965 38.9387 15.6805 38.9083 15.8085C38.8206 15.8845 38.7868 15.9525 38.7126 16.0765C38.6484 16.1845 38.5911 16.1765 38.4324 16.1765C38.3076 16.1365 38.2907 16.0565 38.1793 16.0085C38.1692 15.9685 38.1591 15.9565 38.1219 15.9445" stroke="#782600" stroke-width="0.113901"/>
<path fill-rule="evenodd" clip-rule="evenodd" d="M38.45 15.6875C38.45 15.6875 38.4 16.3125 38 16.725C37.6 17.1375 36.775 17.6125 36.775 17.6125C36.775 17.6125 37.8875 17.0875 38 17.2C38.125 17.325 37.2875 18.2375 37.2875 18.2375C37.2875 18.2375 38.375 17.275 38.5125 17.275C38.65 17.275 38.9625 18.2125 39.0875 18.1875C39.2 18.1625 38.8375 17 38.8875 16.8125C38.9375 16.6375 38.8875 15.65 38.8875 15.65L38.4625 15.6875H38.45ZM41.0125 15.6125C41.0125 15.6125 40.9625 16.275 40.5625 16.7125C40.1625 17.15 39.3375 17.6625 39.3375 17.6625C39.3375 17.6625 40.45 17.1 40.5625 17.225C40.6875 17.35 39.85 18.325 39.85 18.325C39.85 18.325 40.9375 17.3 41.075 17.3C41.2125 17.3 41.525 18.3 41.65 18.275C41.7625 18.25 41.4 17 41.45 16.8125C41.5 16.6125 41.45 15.5625 41.45 15.5625L41.0125 15.6125ZM37.425 9.6125C37.425 9.725 37.3 9.825 37.1625 9.825C37.025 9.825 36.8875 9.725 36.8875 9.6C36.8875 9.475 37.0125 9.375 37.1625 9.375C37.3125 9.375 37.425 9.475 37.425 9.6V9.6125Z" fill="#812E00"/>
</g>
<defs>
<clipPath id="clip0_84_325">
<rect width="80" height="60" fill="white"/>
</clipPath>
</defs>
</svg>
