<svg width="90" height="60" viewBox="0 0 90 60" fill="none" xmlns="http://www.w3.org/2000/svg">
<path d="M0 0H79.9992V59.9994H0V0Z" fill="black"/>
<path d="M0 0V59.9994H89.9991V0H0Z" fill="#3399CC"/>
<path d="M0 39.9996V43.3329H89.9991V39.9996H0ZM0 46.6662V49.9995H89.9991V46.6662H0Z" fill="#FFFF00"/>
<path d="M19.9971 3.14166L17.0861 12.6271L6.0188 15.225L17.0439 17.7021L19.9971 27.1754L22.9362 17.7021L33.9613 15.1646L22.9362 12.6392L19.983 3.16583L19.9971 3.14166Z" fill="#CC0000" stroke="white" stroke-width="0.4625"/>
<path d="M17.5783 9.46124L17.9861 9.81166L17.5642 9.44916L17.5783 9.46124Z" fill="#6699CC"/>
<path d="M18.3939 9.46124L18.8158 9.81166L18.3939 9.44916" fill="#FFCCCC"/>
<path d="M22.5565 9.46124L22.9783 9.81166L22.5565 9.44916V9.46124Z" fill="#6699CC"/>
<path d="M17.5783 9.81171L17.9861 10.1742L17.5642 9.81171H17.5783Z" fill="#99CCCC"/>
<path d="M17.5783 10.1742L17.9861 10.5367L17.5642 10.1742" fill="#CCFFFF"/>
<path d="M17.5783 11.6L17.9861 11.9625L17.5642 11.6" fill="#FFCCCC"/>
<path d="M16.7346 11.9625L17.1564 12.3129L16.7346 11.9504V11.9625Z" fill="#99CCCC"/>
<path d="M17.7189 12.1921L17.8455 12.4337L17.7048 12.1921" fill="#CC3333"/>
<path d="M23.3862 11.9625L23.808 12.3129L23.3862 11.9504V11.9625Z" fill="#99CCCC"/>
<path d="M15.0752 13.3883L15.4971 13.7387L15.0752 13.3762V13.3883Z" fill="#99CCCC"/>
<path d="M24.6378 13.3763L25.0456 13.7388L24.6237 13.3763H24.6378Z" fill="#CCCCFF"/>
<path d="M26.2971 13.7388L26.705 14.1013L26.2831 13.7388H26.2971Z" fill="#99CCCC"/>
<path d="M9.67505 14.8142L10.0969 15.1646L9.67505 14.8021V14.8142Z" fill="#6699CC"/>
<path d="M8.85946 15.1646L9.26728 15.5271L8.8454 15.1646H8.85946Z" fill="#99CCFF"/>
<path d="M10.5189 15.1646L10.9267 15.5271L10.5048 15.1646H10.5189ZM29.616 15.1646L30.0238 15.5271L29.6019 15.1646H29.616Z" fill="#FFCCCC"/>
<path d="M35.016 16.2279L35.4238 16.5904L35.0019 16.2279" fill="#99CCCC"/>
<path d="M7.59381 16.9529L8.01569 17.3034L7.59381 16.9409V16.9529Z" fill="#CCCCFF"/>
<path d="M9.26727 16.9529L9.68915 17.3034L9.26727 16.9409V16.9529Z" fill="#FFCCCC"/>
<path d="M30.8534 16.9529L31.2753 17.3034L30.8534 16.9409V16.9529Z" fill="#FFCCCC"/>
<path d="M32.5129 16.9529L32.9348 17.3034L32.5129 16.9409V16.9529Z" fill="#CCCCFF"/>
<path d="M32.9347 16.9529L33.3566 17.3034L32.9347 16.9409" fill="#66CCCC"/>
<path d="M8.85946 17.3033L9.26728 17.6658L8.8454 17.3033H8.85946Z" fill="#99CCFF"/>
<path d="M10.5189 17.3033L10.9267 17.6658L10.5048 17.3033H10.5189ZM29.616 17.3033L30.0238 17.6658L29.6019 17.3033H29.616Z" fill="#FFCCCC"/>
<path d="M9.67505 17.6658L10.0969 18.0162L9.67505 17.6537V17.6658Z" fill="#6699CC"/>
<path d="M10.0969 17.6658L10.5188 18.0162L10.0969 17.6537V17.6658Z" fill="#99CCFF"/>
<path d="M12.1783 17.6658L12.6002 18.0162L12.1783 17.6537V17.6658Z" fill="#FFCCCC"/>
<path d="M27.9425 17.6658L28.3644 18.0162L27.9425 17.6537V17.6658Z" fill="#FFCCCC"/>
<path d="M30.0237 17.6658L30.4456 18.0162L30.0237 17.6537V17.6658Z" fill="#99CCFF"/>
<path d="M30.4316 17.6658L30.8535 18.0162L30.4316 17.6537" fill="#6699CC"/>
<path d="M12.1782 18.3787L12.5861 18.7292L12.1642 18.3667L12.1782 18.3787Z" fill="#6699CC"/>
<path d="M26.2972 18.7292L26.705 19.0917L26.2831 18.7292" fill="#99CCCC"/>
<path d="M24.6378 19.0917L25.0456 19.4542L24.6237 19.0917H24.6378Z" fill="#CCCCFF"/>
<path d="M16.3127 19.4542L16.7346 19.8046L16.3127 19.4421V19.4542Z" fill="#99CCCC"/>
<path d="M17.1564 19.4542L17.5783 19.8046L17.1564 19.4421" fill="#CC3333"/>
<path d="M23.794 19.4542L24.2159 19.8046L23.794 19.4421V19.4542Z" fill="#99CCCC"/>
<path d="M17.7189 20.3966L17.8455 20.6383L17.7048 20.3966" fill="#CC3333"/>
<path d="M17.5783 20.8679L17.9861 21.2304L17.5642 20.8679" fill="#FFCCCC"/>
<path d="M17.5783 22.2938L17.9861 22.6563L17.5642 22.2938H17.5783Z" fill="#CCFFFF"/>
<path d="M17.5783 22.6562L17.9861 23.0187L17.5642 22.6562" fill="#99CCCC"/>
<path d="M17.5783 23.0067L17.9861 23.3692L17.5642 23.0067H17.5783Z" fill="#6699CC"/>
<path d="M18.3939 25.1575L18.8158 25.5079L18.3939 25.1454" fill="#6699CC"/>
<path d="M20.8971 25.5079L21.3049 25.8704L20.883 25.5079H20.8971Z" fill="#FFCCCC"/>
<path d="M20.8971 26.9337L21.3049 27.2962L20.883 26.9337H20.8971Z" fill="#CCCCFF"/>
<path d="M20.0674 27.2962L20.4752 27.6587L20.0533 27.2962H20.0674Z" fill="#CC6666"/>
<path d="M20.8971 27.2962L21.3049 27.6587L20.883 27.2962H20.8971Z" fill="#66CCCC"/>
<path d="M20.0533 29.0846L20.4752 29.435L20.0533 29.0725V29.0846Z" fill="#99CCCC"/>
</svg>
