<svg width="80" height="60" viewBox="0 0 80 60" fill="none" xmlns="http://www.w3.org/2000/svg">
<path fill-rule="evenodd" clip-rule="evenodd" d="M0 0H80V60H0V0Z" fill="#00247D"/>
<path d="M61.3031 13.3986V15.2947L65.0954 13.3986H61.3031Z" fill="white"/>
<path d="M62.0615 15.674L61.3031 14.157L65.0954 13.3986L62.0615 15.674Z" fill="white"/>
<path d="M61.3031 13.3986V15.2947L57.5107 13.3986H61.3031Z" fill="white"/>
<path d="M60.5446 15.674L61.3031 14.157L57.5107 13.3986L60.5446 15.674Z" fill="white"/>
<path d="M62.3851 14.1847L60.5817 14.7707L63.557 17.7914L62.3851 14.1847Z" fill="white"/>
<path d="M60.4554 15.6092L61.6637 14.4191L63.557 17.7914L60.4554 15.6092Z" fill="white"/>
<path d="M60.2211 14.1847L62.0244 14.7707L61.3929 10.578L60.2211 14.1847Z" fill="white"/>
<path d="M62.6195 14.1665L60.9424 14.4191L61.3929 10.578L62.6195 14.1665Z" fill="white"/>
<path d="M60.2211 14.1847L62.0244 14.7707L59.0492 17.7914L60.2211 14.1847Z" fill="white"/>
<path d="M62.1507 15.6092L60.9424 14.4191L59.0492 17.7914L62.1507 15.6092Z" fill="white"/>
<path d="M61.3031 13.7845V15.0375L63.809 13.7845H61.3031Z" fill="#CC142B"/>
<path d="M61.8042 15.2881L61.3031 14.2857L63.809 13.7845L61.8042 15.2881Z" fill="#CC142B"/>
<path d="M61.3031 13.7845V15.0375L58.7971 13.7845H61.3031Z" fill="#CC142B"/>
<path d="M60.8019 15.2881L61.3031 14.2857L58.7971 13.7845L60.8019 15.2881Z" fill="#CC142B"/>
<path d="M62.0181 14.304L60.8264 14.6912L62.7924 16.6873L62.0181 14.304Z" fill="#CC142B"/>
<path d="M60.743 15.2453L61.5414 14.4588L62.7924 16.6873L60.743 15.2453Z" fill="#CC142B"/>
<path d="M60.5881 14.304L61.7797 14.6912L61.3625 11.9207L60.5881 14.304Z" fill="#CC142B"/>
<path d="M62.1729 14.2919L61.0647 14.4588L61.3625 11.9207L62.1729 14.2919Z" fill="#CC142B"/>
<path d="M60.5881 14.304L61.7797 14.6912L59.8137 16.6873L60.5881 14.304Z" fill="#CC142B"/>
<path d="M61.8632 15.2453L61.0647 14.4588L59.8137 16.6873L61.8632 15.2453Z" fill="#CC142B"/>
<path d="M71.2399 22.15V23.8374L74.6146 22.15H71.2399Z" fill="white"/>
<path d="M71.9148 24.1748L71.2399 22.825L74.6146 22.15L71.9148 24.1748Z" fill="white"/>
<path d="M71.2399 22.15V23.8374L67.8652 22.15H71.2399Z" fill="white"/>
<path d="M70.565 24.1748L71.2399 22.825L67.8652 22.15L70.565 24.1748Z" fill="white"/>
<path d="M72.2027 22.8496L70.598 23.371L73.2456 26.0591L72.2027 22.8496Z" fill="white"/>
<path d="M70.4856 24.1172L71.5608 23.0581L73.2456 26.0591L70.4856 24.1172Z" fill="white"/>
<path d="M70.277 22.8496L71.8818 23.371L71.3199 19.6401L70.277 22.8496Z" fill="white"/>
<path d="M72.4113 22.8334L70.9189 23.0581L71.3199 19.6401L72.4113 22.8334Z" fill="white"/>
<path d="M70.277 22.8496L71.8818 23.371L69.2342 26.0591L70.277 22.8496Z" fill="white"/>
<path d="M71.9942 24.1172L70.9189 23.0581L69.2342 26.0591L71.9942 24.1172Z" fill="white"/>
<path d="M71.2399 22.5359V23.5801L73.3282 22.5359H71.2399Z" fill="#CC142B"/>
<path d="M71.6575 23.7889L71.2399 22.9536L73.3282 22.5359L71.6575 23.7889Z" fill="#CC142B"/>
<path d="M71.2399 22.5359V23.5801L69.1516 22.5359H71.2399Z" fill="#CC142B"/>
<path d="M70.8222 23.7889L71.2399 22.9536L69.1516 22.5359L70.8222 23.7889Z" fill="#CC142B"/>
<path d="M71.8357 22.9688L70.8427 23.2915L72.481 24.9549L71.8357 22.9688Z" fill="#CC142B"/>
<path d="M70.7731 23.7532L71.4385 23.0979L72.481 24.9549L70.7731 23.7532Z" fill="#CC142B"/>
<path d="M70.6441 22.9688L71.6371 23.2915L71.2894 20.9828L70.6441 22.9688Z" fill="#CC142B"/>
<path d="M71.9648 22.9588L71.0413 23.0979L71.2894 20.9828L71.9648 22.9588Z" fill="#CC142B"/>
<path d="M70.6441 22.9688L71.6371 23.2915L69.9988 24.9549L70.6441 22.9688Z" fill="#CC142B"/>
<path d="M71.7067 23.7532L71.0413 23.0979L69.9988 24.9549L71.7067 23.7532Z" fill="#CC142B"/>
<path d="M49.7293 25.0516V26.9478L53.5217 25.0516H49.7293Z" fill="white"/>
<path d="M50.4878 27.327L49.7293 25.8101L53.5217 25.0516L50.4878 27.327Z" fill="white"/>
<path d="M49.7293 25.0516V26.9478L45.937 25.0516H49.7293Z" fill="white"/>
<path d="M48.9709 27.327L49.7293 25.8101L45.937 25.0516L48.9709 27.327Z" fill="white"/>
<path d="M50.8114 25.8377L49.008 26.4237L51.9832 29.4445L50.8114 25.8377Z" fill="white"/>
<path d="M48.8817 27.2622L50.09 26.0721L51.9832 29.4445L48.8817 27.2622Z" fill="white"/>
<path d="M48.6473 25.8377L50.4507 26.4237L49.8192 22.231L48.6473 25.8377Z" fill="white"/>
<path d="M51.0457 25.8195L49.3687 26.0721L49.8192 22.231L51.0457 25.8195Z" fill="white"/>
<path d="M48.6473 25.8377L50.4507 26.4237L47.4754 29.4445L48.6473 25.8377Z" fill="white"/>
<path d="M50.577 27.2622L49.3687 26.0721L47.4754 29.4445L50.577 27.2622Z" fill="white"/>
<path d="M49.7293 25.4375V26.6905L52.2353 25.4375H49.7293Z" fill="#CC142B"/>
<path d="M50.2305 26.9411L49.7293 25.9387L52.2353 25.4375L50.2305 26.9411Z" fill="#CC142B"/>
<path d="M49.7293 25.4375V26.6905L47.2234 25.4375H49.7293Z" fill="#CC142B"/>
<path d="M49.2282 26.9411L49.7293 25.9387L47.2234 25.4375L49.2282 26.9411Z" fill="#CC142B"/>
<path d="M50.4443 25.957L49.2527 26.3442L51.2187 28.3403L50.4443 25.957Z" fill="#CC142B"/>
<path d="M49.1692 26.8983L49.9677 26.1119L51.2187 28.3403L49.1692 26.8983Z" fill="#CC142B"/>
<path d="M49.0144 25.957L50.206 26.3442L49.7887 23.5737L49.0144 25.957Z" fill="#CC142B"/>
<path d="M50.5992 25.945L49.491 26.1119L49.7887 23.5737L50.5992 25.945Z" fill="#CC142B"/>
<path d="M49.0144 25.957L50.206 26.3442L48.24 28.3403L49.0144 25.957Z" fill="#CC142B"/>
<path d="M50.2895 26.8983L49.491 26.1119L48.24 28.3403L50.2895 26.8983Z" fill="#CC142B"/>
<path d="M61.3031 43.3445V45.4495L65.5131 43.3445H61.3031Z" fill="white"/>
<path d="M62.1451 45.8705L61.3031 44.1865L65.5131 43.3445L62.1451 45.8705Z" fill="white"/>
<path d="M61.3031 43.3445V45.4495L57.0931 43.3445H61.3031Z" fill="white"/>
<path d="M60.4611 45.8705L61.3031 44.1865L57.0931 43.3445L60.4611 45.8705Z" fill="white"/>
<path d="M62.5043 44.2172L60.5023 44.8677L63.8052 48.2212L62.5043 44.2172Z" fill="white"/>
<path d="M60.3621 45.7986L61.7035 44.4774L63.8052 48.2212L60.3621 45.7986Z" fill="white"/>
<path d="M60.1019 44.2172L62.1039 44.8677L61.4029 40.2133L60.1019 44.2172Z" fill="white"/>
<path d="M62.7645 44.197L60.9027 44.4774L61.4029 40.2133L62.7645 44.197Z" fill="white"/>
<path d="M60.1019 44.2172L62.1039 44.8677L58.801 48.2212L60.1019 44.2172Z" fill="white"/>
<path d="M62.2441 45.7986L60.9027 44.4774L58.801 48.2212L62.2441 45.7986Z" fill="white"/>
<path d="M61.3031 43.7304V45.1922L64.2267 43.7304H61.3031Z" fill="#CC142B"/>
<path d="M61.8878 45.4846L61.3031 44.3152L64.2267 43.7304L61.8878 45.4846Z" fill="#CC142B"/>
<path d="M61.3031 43.7304V45.1922L58.3795 43.7304H61.3031Z" fill="#CC142B"/>
<path d="M60.7184 45.4846L61.3031 44.3152L58.3795 43.7304L60.7184 45.4846Z" fill="#CC142B"/>
<path d="M62.1373 44.3365L60.747 44.7882L63.0407 47.117L62.1373 44.3365Z" fill="#CC142B"/>
<path d="M60.6497 45.4347L61.5812 44.5172L63.0407 47.117L60.6497 45.4347Z" fill="#CC142B"/>
<path d="M60.469 44.3365L61.8592 44.7882L61.3724 41.556L60.469 44.3365Z" fill="#CC142B"/>
<path d="M62.318 44.3225L61.0251 44.5172L61.3724 41.556L62.318 44.3225Z" fill="#CC142B"/>
<path d="M60.469 44.3365L61.8592 44.7882L59.5655 47.117L60.469 44.3365Z" fill="#CC142B"/>
<path d="M61.9566 45.4347L61.0251 44.5172L59.5655 47.117L61.9566 45.4347Z" fill="#CC142B"/>
<path d="M0 0H40V30H0V0Z" fill="#012169"/>
<path d="M4.6875 0L19.9375 11.3125L35.125 0H40V3.875L25 15.0625L40 26.1875V30H35L20 18.8125L5.0625 30H0V26.25L14.9375 15.125L0 4V0H4.6875Z" fill="white"/>
<path d="M26.5 17.5625L40 27.5V30L23.0625 17.5625H26.5ZM15 18.8125L15.375 21L3.375 30H0L15 18.8125ZM40 0V0.1875L24.4375 11.9375L24.5625 9.1875L36.875 0H40ZM0 0L14.9375 11H11.1875L0 2.625V0Z" fill="#C8102E"/>
<path d="M15.0625 0V30H25.0625V0H15.0625ZM0 10V20H40V10H0Z" fill="white"/>
<path d="M0 13.0625V19.0625H40V13.0625H0ZM17.0625 1V31H23.0625V1H17.0625Z" fill="#C8102E"/>
</svg>
