<svg width="80" height="60" viewBox="0 0 80 60" fill="none" xmlns="http://www.w3.org/2000/svg">
<g clip-path="url(#clip0_84_988)">
<path d="M0 0H80V60H0V0Z" fill="white"/>
<path d="M0 42H80V60H0V42Z" fill="#009543"/>
<path d="M0 20H80V38H0V20Z" fill="#00209F"/>
<path d="M39.95 19.125C39.6125 19.125 39.275 19.5 39.275 19.5L39.3125 23.55L38.025 24.8875H39.0625V27.2L32.9375 35.45L32.0374 35.125L30.45 38.5C30.45 38.5 34.3624 40.95 40.0374 40.875C46.2624 40.8125 49.65 38.3875 49.65 38.3875L48.025 35.0625L47.2125 35.4125L41.0125 27.2125V24.825H42.0374L40.6375 23.5V19.475C40.6375 19.475 40.3 19.1 39.95 19.1125V19.125Z" fill="black" stroke="black" stroke-width="0.2"/>
<path d="M42.0875 28.7999H37.85C37.85 28.7999 36.325 25.5624 36.5625 23.2999C36.8125 20.9999 38.1375 19.9124 39.8875 19.8874C41.9625 19.8749 43.0375 20.8999 43.3625 23.2124C43.6875 25.4999 42.0875 28.7999 42.0875 28.7999Z" stroke="black"/>
<path d="M32.5625 36.5126C32.4875 36.6001 31.975 37.625 31.975 37.625L32.85 37.4375L32.5625 36.5126ZM33.0625 37.8251L32.1375 38.125L33.25 38.5625L33.0625 37.8251ZM33.475 36.5375L33.9375 37.9001L35.0625 37.5751L34.775 36.925L33.475 36.5375ZM34.2 38.3876L34.35 38.9375L35.85 39.3125L35.25 38.0375L34.2 38.3876ZM35.85 37.225L36.3875 38.5L37.5125 38.0625L37.1375 37.5L35.85 37.225ZM36.6 38.9626L36.775 39.4375L38.525 39.6875L37.7875 38.5375L36.5875 38.9626H36.6ZM38.275 37.5876L38.925 38.725L40.55 38.125L40.375 37.6875L38.275 37.6V37.5876ZM39.225 39.1376L39.5625 39.7375L41.5875 39.675L40.8375 38.55L39.2125 39.1376H39.225ZM41.3625 37.6376L41.9125 38.5876L43.2125 37.9626L42.8625 37.4626L41.3625 37.6376ZM43.4875 38.3625L42.2 39L42.5375 39.5625L44.2625 39.2875L43.4875 38.3625ZM43.9 37.3625L44.5625 38.2001L45.65 37.3376L45.275 36.9626L43.9 37.3625ZM45.8875 37.8L44.85 38.5876L45.125 39.0751L46.55 38.7001L45.8875 37.8ZM47.3125 36.175L47.5625 36.5375L46.85 37.6L46.1125 36.6501L47.3125 36.175ZM47.8 37.0876L48.2375 37.9626L47.3625 38.2626L47.2875 37.85L47.7875 37.1L47.8 37.0876Z" fill="white"/>
</g>
<defs>
<clipPath id="clip0_84_988">
<rect width="80" height="60" fill="white"/>
</clipPath>
</defs>
</svg>
