<svg width="80" height="60" viewBox="0 0 80 60" fill="none" xmlns="http://www.w3.org/2000/svg">
<g clip-path="url(#clip0_84_629)">
<path d="M0 0H80V60H0V0Z" fill="#00843D"/>
<path d="M44.7 6.62498C45.6544 7.07234 46.5032 7.71682 47.1905 8.51596C47.8778 9.3151 48.388 10.2508 48.6875 11.2614C48.9871 12.272 49.0691 13.3345 48.9283 14.3791C48.7874 15.4237 48.4269 16.4266 47.8704 17.3218C47.3139 18.217 46.5741 18.9841 45.6997 19.5727C44.8253 20.1613 43.8361 20.5579 42.7973 20.7366C41.7585 20.9152 40.6936 20.8717 39.6729 20.609C38.6521 20.3463 37.6985 19.8704 36.875 19.2125C38.5111 19.9008 40.3391 19.9834 42.0306 19.4454C43.7222 18.9074 45.1666 17.7841 46.1045 16.2771C47.0424 14.7701 47.4125 12.9781 47.1482 11.2228C46.8839 9.46756 46.0026 7.86398 44.6625 6.69998L44.7 6.62498ZM37.625 12.125L38.425 9.52498L36.2125 11.1375H38.95L36.725 9.52498L37.625 12.125ZM37.625 8.29998L38.425 5.69998L36.2125 7.31248H38.95L36.725 5.66248L37.625 8.29998ZM41.4 10.25L42.2 7.64998L39.975 9.26248H42.725L40.5 7.64998L41.4 10.25ZM33.775 14.0375L34.6375 11.4375L32.4125 13.0375H35.1625L32.9375 11.4375L33.775 14.0375ZM37.5625 15.9625L38.4125 13.375L36.2 14.975H38.9375L36.7125 13.375L37.5625 15.9625Z" fill="white"/>
<path d="M10.825 0H27.025V60H10.825V0Z" fill="#D22630"/>
<path d="M14.75 0H14.225L13.1875 0.95L12.8125 0.525H13.1875L13.0875 0.15H12.475L11.2 1.275V1.75H11.825V1.375L12.1 1.65L11.4375 2.225L11.75 2.5L10.8125 3.35V3.975L12.375 2.5375L12.1 2.2125L12.7125 1.6375L12.1875 1.125L12.525 0.75L13.225 1.4L14.75 0ZM10.875 0V1.0875L11.1875 0.75V0.2875H11.5625L11.9125 0H10.875ZM13.7 0H13.325L13.375 0.2875L13.7 0Z" fill="#383739"/>
<path d="M14.7 0H14.225L13.225 0.95L12.7625 0.475H13.1875L13.0875 0.1375H12.525L11.2875 1.325V1.7H11.7625V1.225L12.1875 1.65L11.525 2.225L11.8125 2.5L10.8625 3.45V3.925L12.2875 2.5L12 2.225L12.6625 1.65L12.1 1.1375L12.575 0.7125L13.225 1.375L14.65 0H14.7ZM10.825 0V1.0375L11.1 0.7125V0.2375H11.525L11.8125 0H10.825ZM13.65 0H13.425V0.1875L13.65 0Z" fill="#FFC72C"/>
<path d="M10.825 6.95001V7.56251L11.725 8.41251L11.3875 8.68751L12.05 9.31251L11.7625 9.53751V9.16251H11.2V9.63751L12.475 10.825H13.1L13.1875 10.35H12.75L13.125 10.0125L14.1625 10.9625L13.125 11.8125L12.75 11.475H13.125L13.025 11.0125H12.4125L11.1875 12.2875V12.75H11.8125V12.2875L12.0875 12.5625L11.425 13.1375L11.75 13.4625L10.8125 14.3125V14.8875L12.375 13.4625L12.1 13.1375L12.7125 12.5625L12.1875 12.05L12.525 11.7125L13.225 12.2875L14.7875 10.8625L13.225 9.45001L12.525 10.1125L12.1875 9.77501L12.7125 9.26251L12.0875 8.63751L12.375 8.37501L10.875 6.95001H10.825ZM10.825 9.77501V12.05L11.15 11.675V11.2H11.525L11.8625 10.9125L11.525 10.625H11.15V10.1625L10.825 9.77501ZM13.425 10.5875V11.2L13.75 10.9125L13.425 10.5875Z" fill="#383739"/>
<path d="M10.825 7.03754V7.51254L11.7625 8.41254L11.4875 8.68754L12.15 9.31254L11.725 9.63754V9.21254H11.25V9.58754L12.475 10.775H13.0375L13.1375 10.4375H12.6625L13.1875 9.96254L14.275 10.9125L13.1875 11.8625L12.7125 11.3875H13.1375L13.0375 11.1H12.475L11.25 12.225V12.6125H11.725V12.1375L12.15 12.5625L11.4875 13.1375L11.7625 13.4625L10.825 14.3625V14.8375L12.2375 13.4125L11.95 13.1375L12.6125 12.5625L12.05 12.05L12.525 11.625L13.225 12.2875L14.7 10.9125L13.1875 9.53754L12.475 10.2L12.05 9.82504L12.6125 9.31254L11.95 8.68754L12.2875 8.41254L10.825 7.03754ZM10.825 9.87504V11.95L11.1 11.675V11.2H11.525L11.8125 10.9125L11.525 10.675H11.1V10.2L10.825 9.87504ZM13.4625 10.675V11.1L13.7125 10.9125L13.4625 10.675Z" fill="#FFC72C"/>
<path d="M10.825 18.2375V18.9L11.725 19.75L11.3875 20.0375L12.05 20.6L11.7625 20.8875V20.5125H11.2V20.975L12.475 22.1H13.1L13.1875 21.725H12.75L13.125 21.35L14.1625 22.25L13.125 23.2L12.75 22.775H13.125L13.025 22.35H12.4125L11.1375 23.525V24H11.8V23.625L12.0875 23.8625L11.425 24.475L11.75 24.75L10.8125 25.6125V26.225L12.375 24.8L12.1 24.475L12.7125 23.85L12.1875 23.3875L12.525 23.0125L13.225 23.625L14.7875 22.2L13.225 20.7875L12.525 21.45L12.1875 21.075L12.7125 20.6L12.0875 19.975L12.375 19.7L10.875 18.2875L10.825 18.2375ZM10.825 21.075V23.2875L11.15 22.9625V22.4875H11.525L11.8625 22.2L11.525 21.875H11.15V21.45L10.825 21.075ZM13.425 21.875V22.5L13.75 22.1625L13.425 21.875Z" fill="#383739"/>
<path d="M10.825 18.2875V18.75L11.7625 19.7L11.5 20L12.1625 20.5625L11.7375 20.9375V20.475H11.25V20.9375L12.475 22.025H13.0375L13.1375 21.7H12.6625L13.1875 21.225L14.275 22.175L13.1875 23.1625L12.7125 22.6875H13.1375L13.0375 22.3625H12.475L11.25 23.5375V23.9125H11.725V23.45L12.15 23.825L11.4875 24.4375L11.7625 24.725L10.825 25.6625V26.1375L12.2375 24.725L11.95 24.4375L12.6125 23.8125L12.05 23.35L12.525 22.875L13.225 23.625L14.7 22.2125L13.1875 20.9L12.475 21.55L12.05 21.125L12.6125 20.6625L11.95 20.0375L12.2875 19.7625L10.825 18.2875ZM10.825 21.1125V23.2375L11.1 22.9125V22.4375H11.525L11.8125 22.2L11.525 21.925H11.1V21.45L10.825 21.1625V21.1125ZM13.4625 21.9625V22.3875L13.7125 22.1625L13.4625 21.9625Z" fill="#FFC72C"/>
<path d="M10.825 29.525V30.1L11.725 30.95L11.3875 31.225L12.05 31.85L11.7625 32.125V31.75H11.2V32.225L12.475 33.35H13.1L13.1875 32.925H12.75L13.125 32.6L14.1625 33.5L13.125 34.3875L12.75 34.0125H13.125L13.025 33.5875H12.4125L11.1375 34.775V35.25H11.8V34.875L12.0875 35.1L11.425 35.725L11.75 36L10.8125 36.85V37.475L12.375 36.0375L12.1 35.7L12.7125 35.0875L12.1875 34.6125L12.525 34.2375L13.225 34.9L14.7875 33.4875L13.225 32.0625L12.525 32.6875L12.1875 32.35L12.7125 31.875L12.0875 31.2125L12.375 30.9375L10.875 29.5125L10.825 29.525ZM10.825 32.3625V34.5875L11.15 34.2125V33.775H11.525L11.875 33.5L11.5375 33.1625H11.1625V32.75L10.825 32.3625ZM13.425 33.1625V33.7875L13.75 33.45L13.425 33.1625Z" fill="#383739"/>
<path d="M10.825 29.575V30.05L11.7625 30.9875L11.4875 31.2375L12.15 31.8375L11.725 32.2125V31.75H11.25V32.175L12.475 33.3H13.0375L13.1375 32.975H12.6625L13.1875 32.5L14.275 33.45L13.1875 34.45L12.7125 33.9625H13.1375L13.0375 33.6375H12.475L11.25 34.7625V35.2H11.725V34.725L12.15 35.1L11.4875 35.725L11.75 36L10.8125 36.95V37.4125L12.2375 36L11.95 35.7125L12.6125 35.1L12.05 34.625L12.525 34.1625L13.225 34.8625L14.7 33.45L13.1875 32.125L12.475 32.7875L12.05 32.3625L12.6125 31.8875L11.95 31.225L12.2875 30.95L10.825 29.575ZM10.825 32.4125V34.5375L11.1 34.2V33.75H11.525L11.8125 33.5L11.525 33.225H11.1V32.75L10.825 32.475V32.4125ZM13.4625 33.2625V33.6875L13.7125 33.4375L13.4625 33.2625Z" fill="#FFC72C"/>
<path d="M10.825 40.825V41.3875L11.725 42.2375L11.3875 42.525L12.05 43.1375L11.7625 43.375V43H11.2V43.4625L12.475 44.65H13.1L13.1875 44.225H12.75L13.125 43.85L14.1625 44.7875L13.125 45.6875L12.75 45.3125H13.125L13.025 44.8875H12.4125L11.1375 46.0625V46.5375H11.8V46.1125L12.0875 46.3875L11.425 47.0125L11.75 47.2875L10.8125 48.1375V48.7125L12.375 47.2875L12.1 47.0125L12.7125 46.3875L12.1875 45.875L12.525 45.5375L13.225 46.2L14.7875 44.7875L13.225 43.375L12.525 43.9875L12.1875 43.65L12.7125 43.1375L12.0875 42.5125L12.375 42.25L10.825 40.825ZM10.825 43.65V45.875L11.15 45.5V45.075H11.525L11.8625 44.7375L11.525 44.4625H11.15V43.9875L10.825 43.65ZM13.425 44.4625V45.025L13.75 44.7375L13.425 44.4625Z" fill="#383739"/>
<path d="M10.825 40.875V41.3375L11.75 42.25L11.475 42.5375L12.1375 43.15L11.7125 43.525V43.05H11.25V43.475L12.475 44.6H13.0375L13.1375 44.275H12.6625L13.1875 43.8125L14.275 44.75L13.1875 45.75L12.7125 45.275H13.1375L13.0375 44.9375H12.475L11.25 46.075V46.5H11.725V46.025L12.15 46.4L11.4875 47.025L11.7625 47.3L10.825 48.25V48.675L12.2375 47.25L11.95 47L12.6125 46.3875L12.05 45.875L12.525 45.45L13.225 46.1125L14.7 44.7375L13.1875 43.3625L12.475 44.0375L12.05 43.6625L12.6125 43.1375L11.95 42.5125L12.2875 42.2375L10.825 40.875ZM10.825 43.7V45.825L11.1 45.5375V45.075H11.525L11.8125 44.7875L11.525 44.55H11.1V44.075L10.825 43.75V43.7ZM13.4625 44.5V44.975L13.7125 44.7375L13.4625 44.5Z" fill="#FFC72C"/>
<path d="M23.0625 0H23.625L24.575 0.95L25.05 0.475H24.675L24.7625 0.1H25.375L26.65 1.225V1.7H26V1.325L25.7125 1.6125L26.375 2.175L26.05 2.4625L27 3.3125V3.925L25.425 2.5L25.7 2.175L25.0875 1.6125L25.6125 1.0875L25.275 0.7125L24.575 1.4125L23.0625 0ZM27.025 0V1.0875L26.65 0.75V0.2875H26.275L25.9375 0H27.025ZM24.05 0H24.425L24.3875 0.2875L24.05 0Z" fill="#383739"/>
<path d="M23.15 0H23.525L24.625 0.95L25.0875 0.475H24.6625L24.7625 0.1375H25.325L26.5625 1.325V1.7H26.0875V1.225L25.7125 1.65L26.325 2.225L26.0375 2.55L26.9875 3.45V3.925L25.5625 2.5L25.85 2.225L25.1875 1.65L25.75 1.1375L25.275 0.7125L24.6625 1.4125L23.125 0H23.15ZM27.025 0V1.0375L26.7 0.7125V0.2375H26.275L26.025 0H27.025ZM24.1 0H24.3875V0.1875L24.1 0Z" fill="#FFC72C"/>
<path d="M27.025 6.95001V7.56251L26.0875 8.41251L26.4125 8.68751L25.75 9.31251L26.0375 9.53751V9.16251H26.6V9.63751L25.325 10.825H24.7125L24.625 10.35H25L24.625 10.0125L23.625 10.9625L24.575 11.8125L25 11.475H24.625L24.7125 11.0125H25.3375L26.6 12.2375V12.7125H26V12.2875L25.7125 12.5625L26.375 13.1375L26.05 13.4625L27 14.3125V14.8875L25.4375 13.4625L25.7125 13.1375L25.1 12.5625L25.625 12.05L25.2875 11.7125L24.5875 12.2875L23 10.8625L24.5625 9.45001L25.2625 10.1125L25.6 9.77501L25.075 9.26251L25.7 8.63751L25.4125 8.36251L26.975 6.95001H27.025ZM27.025 9.77501V12.05L26.65 11.675V11.2H26.275L25.9375 10.9125L26.275 10.625H26.65V10.1625L27.025 9.77501ZM24.3875 10.5875L24.425 10.9125L24.3875 11.2L24.05 10.9125L24.3875 10.5875Z" fill="#383739"/>
<path d="M27.025 7.03748V7.51248L25.9875 8.36248L26.275 8.64998L25.65 9.26248L26.025 9.58748V9.16248H26.5125V9.53748L25.275 10.725H24.7125L24.625 10.3875H25.0875L24.575 9.92498L23.4875 10.8625L24.575 11.8125L25.05 11.3375H24.625L24.7125 11.05H25.275L26.5125 12.1875V12.5625H26.0375V12.1L25.6625 12.525L26.275 13.0875L25.9875 13.4125L26.9375 14.3125V14.7875L25.5 13.375L25.7875 13.0875L25.125 12.525L25.6875 12L25.225 11.575L24.5625 12.2375L23.05 10.8625L24.55 9.48748L25.2625 10.1625L25.6875 9.78748L25.125 9.26248L25.7875 8.63748L25.4625 8.36248L27.025 7.03748ZM27.025 9.87498V11.95L26.7 11.675V11.2H26.275L26.025 10.9125L26.275 10.675H26.7V10.2L27.025 9.87498ZM24.3375 10.675L24.3875 10.925V11.1L24.1 10.9125L24.3375 10.675Z" fill="#FFC72C"/>
<path d="M27.025 18.2375V18.9L26.0875 19.75L26.4125 20.0375L25.75 20.6L26.0375 20.8875V20.5125H26.6V20.975L25.325 22.1H24.7125L24.575 21.725H24.95L24.575 21.35L23.625 22.2L24.575 23.15L25 22.725H24.625L24.7125 22.3H25.3375L26.6 23.475V23.95H26V23.575L25.7125 23.8125L26.375 24.425L26.05 24.7125L27 25.5625V26.175L25.425 24.75L25.7 24.425L25.0875 23.8L25.6125 23.3375L25.275 22.9625L24.575 23.625L23.0125 22.2L24.575 20.7875L25.275 21.45L25.6125 21.075L25.0875 20.6L25.7125 19.975L25.425 19.7L26.9875 18.2875L27.025 18.2375ZM27.025 21.075V23.2875L26.65 22.9625V22.4875H26.275L25.9375 22.2L26.275 21.875H26.65V21.45L27.025 21.075ZM24.3875 21.875L24.425 22.1625L24.3875 22.4875L24.05 22.1625L24.3875 21.875Z" fill="#383739"/>
<path d="M27.025 18.2875V18.75L26.025 19.7L26.325 19.9875L25.7 20.55L26.075 20.925V20.4625H26.5625V20.925L25.325 22.0125H24.7625L24.6625 21.6875H25.1375L24.575 21.2625L23.4875 22.2L24.575 23.2L25.05 22.725H24.625L24.7125 22.3875H25.275L26.5125 23.575V23.95H26.0375V23.475L25.6625 23.85L26.275 24.475L25.9875 24.75L26.9375 25.7V26.175L25.5 24.75L25.7875 24.475L25.125 23.85L25.6875 23.3875L25.225 22.9125L24.5625 23.625L23.05 22.2L24.55 20.8875L25.2625 21.5375L25.6875 21.1125L25.125 20.65L25.7875 20.025L25.4625 19.75L27.025 18.2875ZM27.025 21.1125V23.2375L26.7 22.9125V22.4375H26.275L26.025 22.2L26.275 21.925H26.7V21.45L27.025 21.1625V21.1125ZM24.3375 21.9625L24.3875 22.1625V22.3875L24.1 22.1625L24.3375 21.9625Z" fill="#FFC72C"/>
<path d="M27.025 29.525V30.1L26.0875 30.95L26.4125 31.225L25.75 31.85L26.0375 32.125V31.75H26.6V32.225L25.325 33.35H24.7125L24.625 32.925H25L24.625 32.6L23.625 33.5L24.575 34.3875L25 34.0125H24.625L24.7125 33.5875H25.3375L26.6 34.775V35.25H26V34.875L25.7125 35.1L26.375 35.725L26.05 36L27 36.85V37.475L25.4375 36.05L25.7125 35.7125L25.1 35.1L25.625 34.625L25.2875 34.25L24.5875 34.9125L23 33.5L24.5625 32.075L25.2625 32.7L25.6 32.3625L25.075 31.8875L25.7 31.225L25.4125 30.95L26.975 29.525H27.025ZM27.025 32.3625V34.5875L26.65 34.2125V33.775H26.275L25.9375 33.5L26.275 33.1625H26.65V32.75L27.025 32.3625ZM24.3875 33.1625L24.425 33.45L24.3875 33.775L24.05 33.45L24.3875 33.1625Z" fill="#383739"/>
<path d="M27.025 29.575V30.05L26.025 30.9875L26.325 31.2375L25.7 31.8375L26.075 32.2125V31.75H26.5625V32.175L25.325 33.3H24.7625L24.6625 32.975H25.1375L24.625 32.5L23.5375 33.45L24.625 34.45L25.0875 33.9625H24.6625L24.7625 33.6375H25.325L26.5625 34.7625V35.2H26.0875V34.725L25.7125 35.1L26.325 35.725L26.0375 36L26.9875 36.95V37.4125L25.5625 36L25.85 35.7125L25.1875 35.1L25.75 34.625L25.275 34.1625L24.625 34.8625L23.1125 33.45L24.6125 32.125L25.325 32.7875L25.75 32.3625L25.1875 31.8875L25.85 31.225L25.5125 30.95L27.025 29.575ZM27.025 32.4125V34.5375L26.7 34.2V33.75H26.275L26.025 33.5L26.275 33.225H26.7V32.75L27.025 32.475V32.4125ZM24.3375 33.2625L24.3875 33.45V33.6875L24.1 33.4375L24.3375 33.2625Z" fill="#FFC72C"/>
<path d="M27.025 40.825V41.3875L26.0875 42.2375L26.4125 42.525L25.75 43.1375L26.0375 43.375V43H26.6V43.4625L25.325 44.65H24.7125L24.625 44.225H25L24.625 43.85L23.625 44.7875L24.575 45.6875L25 45.3125H24.625L24.7125 44.8875H25.3375L26.6 46.0625V46.5375H26V46.1125L25.7125 46.3875L26.375 47.0125L26.05 47.2875L27 48.1375V48.7125L25.4375 47.2875L25.7125 47.0125L25.1 46.3875L25.625 45.875L25.2875 45.5375L24.5875 46.2L23.025 44.7875L24.5875 43.375L25.2875 43.9875L25.625 43.65L25.1 43.1375L25.725 42.5125L25.4375 42.2375L27.025 40.825ZM27.025 43.65V45.875L26.65 45.5V45.075H26.275L25.9375 44.7375L26.275 44.4625H26.65V43.9875L27.025 43.65ZM24.3875 44.4625L24.425 44.7375L24.3875 45.025L24.05 44.7375L24.3875 44.4625Z" fill="#383739"/>
<path d="M27.025 40.875V41.3375L26 42.25L26.2875 42.5375L25.6625 43.15L26.0375 43.525V43.05H26.525V43.475L25.2875 44.6H24.725L24.6375 44.275H25.1L24.5875 43.8125L23.5 44.75L24.5875 45.75L25.0625 45.275H24.625L24.7125 44.9375H25.275L26.5125 46.075V46.5H26.0375V46.025L25.6625 46.4L26.275 47.025L25.9875 47.3L26.9375 48.25V48.675L25.5 47.25L25.7875 47L25.125 46.3875L25.6875 45.875L25.225 45.45L24.5625 46.1125L23.05 44.7375L24.55 43.3625L25.2625 44.0375L25.6875 43.6625L25.125 43.1375L25.7875 42.5125L25.4625 42.2375L27.025 40.875ZM27.025 43.7V45.825L26.7 45.5375V45.075H26.275L26.025 44.7875L26.275 44.55H26.7V44.075L27.025 43.75V43.7ZM24.3375 44.5L24.3875 44.75V44.975L24.1 44.7375L24.3375 44.5Z" fill="#FFC72C"/>
<path d="M12.1 53.1C12.1875 53.4375 12.475 53.675 12.575 54.05C12.6625 53.675 12.7625 53.3375 12.7 52.9625C12.6125 52.675 12.375 52.4875 12.375 52.1625C12.1 52.3875 12.05 52.725 12.1 53.1ZM12.05 54.525C12.2841 54.8325 12.5943 55.0738 12.95 55.225C12.85 54.95 12.95 54.75 13.1375 54.525C13.275 54.275 13.375 54.05 13.225 53.7125C13.1693 53.8636 13.0936 54.0065 13 54.1375C12.841 54.3252 12.741 54.5557 12.7125 54.8C12.525 54.6625 12.475 54.475 12.375 54.2875C12.2279 54.0077 12.0019 53.7773 11.725 53.625C11.8125 53.95 11.85 54.2375 12.05 54.525ZM13.325 55.4625L13.225 55.9375L12.7125 55.5625C12.475 55.3125 12.1875 55.225 12 54.9375C12.0029 55.1143 12.0474 55.2879 12.1299 55.4443C12.2124 55.6006 12.3306 55.7353 12.475 55.8375L13.475 56.4625C13.425 56.125 13.5625 55.8375 13.65 55.5125C13.6802 55.3815 13.679 55.2453 13.6464 55.1149C13.6138 54.9846 13.5508 54.8638 13.4625 54.7625C13.4625 54.9875 13.375 55.225 13.325 55.4125V55.4625ZM13.9875 56.55L14.3625 57.2125C14.0375 57.1125 13.75 56.925 13.425 56.7375C13.0875 56.55 12.7125 56.4625 12.375 56.175C12.4514 56.4447 12.5964 56.69 12.7957 56.8872C12.995 57.0843 13.2419 57.2265 13.5125 57.3C13.9375 57.4 14.2625 57.35 14.7375 57.55C14.678 57.2186 14.5685 56.8983 14.4125 56.6L14.125 55.9375C14.0549 56.0237 14.006 56.1252 13.9821 56.2337C13.9582 56.3422 13.9601 56.4548 13.9875 56.5625V56.55ZM15.2125 57.45C15.3327 57.6418 15.4951 57.8041 15.6875 57.925C15.2125 57.925 14.8375 57.675 14.3625 57.6375C14.0875 57.6375 13.8 57.7375 13.5125 57.6875C13.8875 57.925 14.225 58.1625 14.6375 58.1625C15.1625 58.25 15.6875 58.1625 16.3 58.1625C16.0458 57.973 15.8366 57.7297 15.6875 57.45C15.45 57.075 15.2125 56.825 14.7875 56.7875L15.2625 57.45H15.2125ZM16.875 58.2C16.0625 58.35 15.2625 58.5375 14.4125 58.5375C15.3015 58.908 16.2982 58.9258 17.2 58.5875C17.675 58.4375 18.1 58.3 18.475 58.3375C19.0375 58.3375 19.7 58.625 20.4625 59.3875L20.75 59.15C20.2192 58.7068 19.5941 58.3909 18.9225 58.2262C18.2509 58.0616 17.5506 58.0526 16.875 58.2Z" fill="#FFC72C"/>
<path d="M12.85 7.03752L11.525 6.25002V4.35002L12.85 3.53752V2.50002L14.0375 1.80002H15.0375L16.9125 0.712524H20.8875L22.775 1.80002H23.725L25.05 2.50002V3.53752L26.325 4.35002V6.22502L25.05 7.03752V8.03752L23.8125 8.78753H22.8125L20.9375 9.82502H16.9625L15.075 8.78753H14.125L12.8 8.03752L12.85 7.03752Z" fill="#383739"/>
<path d="M16.9125 0.75L15.0375 1.8375H14.0875L12.85 2.55V3.55L11.575 4.35V6.225L12.85 6.9875V8.0375L14.0875 8.7375H15.025L16.9125 9.775H20.8875L22.775 8.7375H23.725L24.95 8.0375V6.9875L26.225 6.2375V4.35L24.95 3.5375V2.55L23.725 1.8375H22.775L20.8875 0.75H16.9125ZM17.0125 1.175H20.7875L22.6875 2.225H23.625L24.575 2.7375V3.775L25.85 4.5875V6L24.525 6.8V7.8L23.625 8.3625H22.6875L20.7875 9.4H17.0125L15.125 8.375H14.175L13.225 7.8125V6.8125L11.95 6V4.5875L13.275 3.775V2.75L14.225 2.2375H15.1625L17.0125 1.175Z" fill="#00843D"/>
<path d="M18.9 5.28749V1.17499H17.0125L15.1625 2.26249H14.225L13.275 2.73749V3.77499L12 4.58749V5.24999H18.9V9.34999H20.7875L22.6875 8.31249H23.625L24.475 7.79999V6.74999L25.8 5.94999V5.28749H18.9Z" fill="#FFC72C"/>
<path d="M12 5.28748V5.94998L13.325 6.74998V7.79998L14.175 8.26248H15.175L17.05 9.34998H18.9V5.24998H25.8V4.58748L24.475 3.77498V2.83748L23.625 2.24998H22.6875L20.7875 1.16248H18.9125V5.28748H12Z" fill="white"/>
<path d="M14.8375 2.65L14.5125 2.3125L14.225 2.5L14.55 2.8375L14.0875 3.075H15.025L15.775 3.825L16.025 3.5375L15.2625 2.8375V2.3625L14.8375 2.65Z" fill="#383739"/>
<path d="M16.35 2.49998L16.025 2.22498L15.7375 2.41248L16.0625 2.68748L15.5875 2.93748H16.5375L17.2875 3.68748L17.5375 3.39998L16.825 2.68748V2.22498L16.35 2.49998ZM14.7375 3.44998L14.4125 3.16248L14.0875 3.41248L14.4125 3.68748L13.9875 3.92498H14.9375L15.6875 4.67498L15.925 4.38748L15.175 3.68748V3.21248L14.7375 3.44998Z" fill="#383739"/>
<path d="M18.9 1.17499H18.1L17.675 1.54999H16.825L16.25 1.88749L16.4 2.22499L16.9125 1.93749H17.1625L18 2.88749L18.9 2.36249V1.17499Z" fill="#383739"/>
<path d="M14.5 2.36251L14.7875 2.65001L14.55 2.78751L14.275 2.55001L14.5 2.36251ZM15.2625 2.46251V2.83751L15.975 3.53751L15.7875 3.73751L15.0375 3.02501H14.275L15.2125 2.40001L15.2625 2.46251ZM16.0125 2.26251L16.3 2.51251L16.0625 2.68751L15.7875 2.41251L16.0125 2.26251ZM16.775 2.26251V2.75001L17.4875 3.41251L17.3 3.65001L16.55 2.85001H15.7875L16.725 2.27501L16.775 2.26251Z" fill="#D22630"/>
<path d="M14.4125 3.24999L14.7 3.49999L14.45 3.63749L14.175 3.39999L14.4125 3.24999ZM15.125 3.24999V3.74999L15.875 4.39999L15.6875 4.59999L14.9375 3.88749H14.1875L15.125 3.24999ZM18.9 1.17499H18.1L17.675 1.64999H16.875L16.3 1.89999L16.4 2.17499L16.875 1.87499H17.2L17.95 2.82499L18.9 2.34999V1.17499Z" fill="#D22630"/>
<path d="M14.8375 7.9375L14.5125 8.225L14.225 8.0375L14.55 7.75L14.0875 7.4625H15.025L15.775 6.75L16.025 7.0375L15.25 7.75V8.225L14.8375 7.9375Z" fill="#383739"/>
<path d="M16.35 8.03746L16.025 8.36246L15.7375 8.17496L16.0625 7.88746L15.5875 7.61246H16.5375L17.2875 6.89996L17.5375 7.13746L16.825 7.83746V8.31246L16.35 8.03746ZM14.7375 7.08746L14.4125 7.37496L14.0875 7.17496L14.4125 6.89996L13.9875 6.61246H14.9375L15.6875 5.89996L15.925 6.14996L15.175 6.84996V7.32496L14.7375 7.08746Z" fill="#383739"/>
<path d="M18.9 9.39996H18.1L17.675 8.97496H16.825L16.25 8.68746L16.4 8.31246L16.9125 8.59996H17.1625L18 7.64996L18.95 8.22496L18.9 9.39996Z" fill="#383739"/>
<path d="M14.5 8.17499L14.7875 7.88749L14.55 7.74999L14.275 8.03749L14.5 8.17499ZM15.2625 8.12499V7.69999L15.975 6.98749L15.7875 6.79999L15.0375 7.51249H14.275L15.2125 8.13749L15.2625 8.12499ZM16.0125 8.31249L16.3 8.03749L16.0625 7.88749L15.7875 8.17499L16.0125 8.31249ZM16.775 8.26249V7.79999L17.4875 7.13749L17.3 6.94999L16.55 7.64999H15.7875L16.725 8.27499L16.775 8.26249Z" fill="#D22630"/>
<path d="M14.4125 7.32501L14.7 7.03751L14.45 6.90001L14.175 7.17501L14.4125 7.32501ZM15.125 7.27501V6.85001L15.875 6.13751L15.6875 5.95001L14.9375 6.66251H14.1875L15.125 7.27501ZM18.9 9.35001H18.1L17.675 8.92501H16.875L16.3 8.65001L16.4 8.40001L16.875 8.65001H17.2L18 7.70001L18.9 8.22501V9.35001Z" fill="#D22630"/>
<path d="M14.3125 3.96246L13.9375 3.83746L13.425 4.16246V4.24996L12.6125 5.28746L13.425 6.28746V6.37496L13.8875 6.74996L14.3125 6.62496L14.0875 6.42496V6.13746L14.175 6.04996H14.6V4.53746H14.125L14.0875 4.43746V4.12496L14.3125 3.96246Z" fill="#383739"/>
<path d="M13.4625 4.2L13.9375 3.875L14.225 3.9625L14.0375 4.1125V4.4375L14.125 4.5875H14.55V6H14.125L14.0375 6.1375V6.475L14.225 6.5625L13.9375 6.7125L13.4625 6.375V6.2875L12.6625 5.2875L13.4625 4.25V4.2Z" fill="#D22630"/>
<path d="M22.9625 2.65L23.3 2.3125L23.575 2.5L23.3 2.8375L23.675 3.075H22.775L22.025 3.825L21.775 3.5375L22.5375 2.8375V2.3625L22.9625 2.65Z" fill="#383739"/>
<path d="M21.45 2.49998L21.7875 2.22498L22.0625 2.41248L21.7875 2.68748L22.1625 2.93748H21.25L20.5 3.68748L20.25 3.39998L21.0125 2.68748V2.22498L21.45 2.49998ZM23.0625 3.44998L23.3875 3.16248L23.725 3.41248L23.3875 3.68748L23.8125 3.92498H22.875L22.1625 4.72498L21.925 4.43748L22.675 3.73748V3.24998L23.0625 3.44998Z" fill="#383739"/>
<path d="M18.9 1.17499H19.7L20.175 1.54999H20.975L21.6 1.88749L21.45 2.22499L20.8875 1.93749H20.65L19.8 2.88749L18.9 2.36249V1.17499Z" fill="#383739"/>
<path d="M23.3 2.36251L23.0125 2.65001L23.25 2.78751L23.5375 2.55001L23.3 2.36251ZM22.5875 2.46251V2.83751L21.8375 3.53751L22.025 3.73751L22.775 3.02501H23.525L22.5875 2.40001V2.46251ZM21.7375 2.26251L21.45 2.51251L21.7 2.68751L21.975 2.41251L21.7375 2.26251ZM21.025 2.26251V2.75001L20.325 3.41251L20.5125 3.65001L21.2625 2.85001H22.0125L21.075 2.27501L21.025 2.26251Z" fill="#D22630"/>
<path d="M23.3875 3.25L23.1125 3.5L23.3375 3.6375L23.625 3.4L23.3875 3.25ZM22.6875 3.25V3.75L21.925 4.4L22.1125 4.6L22.8625 3.8875H23.625L22.6875 3.25ZM18.9 1.1875H19.7L20.125 1.6625H20.9375L21.5 1.9125L21.4 2.1875L20.9375 1.9H20.65L19.8 2.85L18.9 2.375V1.1875Z" fill="#D22630"/>
<path d="M22.9625 7.9375L23.3 8.225L23.575 8.0375L23.3 7.75L23.675 7.4625H22.775L22.025 6.75L21.775 7.0375L22.5375 7.75V8.225L22.9625 7.9375Z" fill="#383739"/>
<path d="M21.45 8.03746L21.7875 8.36246L22.0625 8.17496L21.7875 7.88746L22.1625 7.61246H21.25L20.5 6.89996L20.25 7.13746L21.0125 7.83746V8.31246L21.45 8.03746ZM23.0625 7.08746L23.375 7.37496L23.7125 7.17496L23.375 6.89996L23.8 6.61246H22.875L22.125 5.89996L21.875 6.14996L22.625 6.84996V7.32496L23.0625 7.08746Z" fill="#383739"/>
<path d="M18.9 9.39996H19.7L20.175 8.97496H20.975L21.6 8.68746L21.45 8.31246L20.8875 8.59996H20.65L19.8 7.64996L18.9 8.22496V9.39996Z" fill="#383739"/>
<path d="M23.3 8.17499L23 7.87499L23.25 7.74999L23.5375 8.03749L23.3 8.17499ZM22.5875 8.12499V7.69999L21.8375 6.98749L22.025 6.79999L22.775 7.51249H23.525L22.5875 8.12499ZM21.7875 8.31249L21.5 8.03749L21.7375 7.88749L22.025 8.17499L21.7875 8.31249ZM21.075 8.26249V7.79999L20.325 7.17499L20.5 6.99999L21.25 7.71249H22L21.0625 8.33749L21.075 8.26249Z" fill="#D22630"/>
<path d="M23.3875 7.32501L23.1125 7.03751L23.3375 6.90001L23.625 7.17501L23.3875 7.32501ZM22.6875 7.27501V6.85001L21.925 6.13751L22.1125 5.95001L22.8625 6.66251H23.625L22.6875 7.27501ZM18.9 9.35001H19.7L20.125 8.92501H20.9375L21.5 8.65001L21.4 8.40001L20.9375 8.65001H20.65L19.8 7.70001L18.9 8.22501V9.35001Z" fill="#D22630"/>
<path d="M23.4875 3.96246L23.8625 3.83746L24.3875 4.16246V4.24996L25.1875 5.28746L24.3875 6.28746V6.37496L23.9125 6.74996L23.4875 6.62496L23.725 6.42496V6.13746L23.625 6.04996H23.2V4.53746H23.675L23.725 4.43746V4.12496L23.4875 3.96246Z" fill="#383739"/>
<path d="M24.3375 4.2L23.8625 3.875L23.575 3.9625L23.7625 4.1125V4.4375L23.675 4.5875H23.25V6H23.675L23.7625 6.1375V6.475L23.575 6.5625L23.8625 6.7125L24.3375 6.375V6.2875L25.1375 5.2875L24.3375 4.25V4.2Z" fill="#D22630"/>
<path d="M13.6125 6.13748L13.425 5.94998V5.87498L12.95 5.29998L13.425 4.73748V4.62498L13.6125 4.43748L14.0375 4.77498H13.7875L14.125 5.09998H14.875L15.5 4.62498V3.39998H16.9625L18.7125 2.31248V2.03748L18.425 1.88748L18.1 2.13748V2.26248L17.85 1.93748L18.3375 1.56248L18.85 1.22498H19.0375L19.5125 1.56248H19.6125L20.0875 1.93748L19.8375 2.26248L19.8 2.13748L19.4625 1.88748H19.375L19.0875 2.07498V2.37498L20.8375 3.46248H22.35V4.68748L22.9125 5.16248H23.6625L24 4.83748H23.8125L24.1875 4.49998L24.3875 4.68748V4.78748L24.85 5.34998L24.3875 5.91248V6.01248L24.1875 6.19998L23.8125 5.87498H24L23.675 5.53748H22.925L22.35 6.01248V7.23748H20.7875L19.0375 8.27498V8.56248L19.325 8.74998H19.375L19.7 8.56248V8.42498L19.95 8.74998L19.5125 9.08748H19.4625L18.95 9.46247H18.75L18.275 9.08748H18.175L17.7125 8.71248L17.9875 8.42498V8.56248L18.325 8.74998H18.375L18.65 8.56248V8.27498L16.9 7.23748H15.4375V5.99998L14.825 5.52498H14.075L13.75 5.87498H13.9875L13.6125 6.13748Z" fill="#383739"/>
<path d="M18.9 8.75L19.1375 8.875L18.9 9.025V8.75ZM18.3375 8.975L18.8125 9.35H18.9V9.075L18.625 8.875L18.9125 8.675V8.125L17.025 7H15.65V5.8625L14.95 5.2875H13.8625L13.6125 5.625L13.3375 5.2875H13L13.4625 5.8125V5.9L13.6125 6.1L13.8875 5.85H13.7625V5.8125L14.0875 5.4375H14.8875L15.55 5.9V7.1375H16.9625L18.7625 8.225V8.55L18.475 8.7375H18.3375L18.05 8.55V8.4625L17.8625 8.65L18.2375 8.975H18.3375ZM13.6125 5.0125L13.8 5.25H13.375L13.6125 5.0125ZM18.9 1.5625L18.7125 1.7L18.9 1.8375V1.5625ZM24 5.3375L24.1875 5.525L24.4375 5.2875L24 5.3375ZM19.4625 1.5625L19 1.1875H18.9V1.4625L19.1875 1.7125L18.9 1.8875V2.375L20.7875 3.5H22.1625V4.7375L22.875 5.25H23.9625L24.1875 4.9625L24.475 5.25H24.8125L24.3375 4.775V4.625L24.1875 4.5L23.9125 4.725H24.05L23.725 5.15H22.9125L22.3 4.675V3.4H20.8L19.05 2.3625V2.0375L19.325 1.8375H19.4625L19.75 2.0375V2.125L19.9375 1.8875L19.5625 1.5625H19.4625Z" fill="#FFC72C"/>
<path d="M18.9 9.025L18.7125 8.8875L18.9 8.7375V9.025ZM13.8 5.2875L13.6125 5.5375L13.3625 5.2875H13.8ZM19.4625 8.975L19 9.35H18.9V9.075L19.1875 8.8875L18.9 8.6875V8.125L20.7875 7H22.1625V5.8625L22.875 5.2875H23.9625L24.1875 5.625L24.475 5.2875H24.8125L24.3375 5.8125V5.9L24.1875 6.1L23.9125 5.85H24.05V5.8125L23.725 5.4375H22.9125L22.3 5.9V7.1375H20.8L19 8.225V8.55L19.275 8.7375H19.425L19.7 8.55V8.4625L19.8875 8.65L19.5125 8.975H19.4625ZM24.1875 5.0125L24 5.25H24.425L24.1875 5.0125ZM18.3375 1.5625L18.8125 1.1875H18.9V1.4625L18.6125 1.7125L18.9 1.8875V2.375L17.0125 3.5H15.6375V4.7375L14.9375 5.2125H13.85L13.6 4.925L13.325 5.2125H13L13.4625 4.7375V4.6L13.6125 4.45L13.8875 4.7H13.7625L14.0875 5.1125H14.8875L15.55 4.6375V3.4125H16.9625L18.8125 2.375V2.05L18.525 1.85H18.375L18.0875 2.05V2.1375L17.9 1.9L18.275 1.575H18.375L18.3375 1.5625ZM18.9 1.8875L19.1375 1.75L18.9 1.6125V1.8875Z" fill="white"/>
<path d="M18.9 5.28752V2.46252L17.0125 3.58752H15.6875V4.72502L15.025 5.25002H18.9V8.07502L20.7875 6.95002H22.125V5.86252L22.7875 5.28752H18.9Z" fill="#00843D"/>
<path d="M15.025 5.28752L15.6875 5.86252V6.95002H17.0125L18.9 8.07502V5.25002H22.775L22.1125 4.72502V3.60002H20.7875L18.9125 2.46252V5.28752H15.025Z" fill="#D22630"/>
<path d="M16.9125 3.92502L16.5875 3.58752L16.3 3.83752L16.5875 4.11252L16.2125 4.35002H17.1L17.85 5.10002L18.1 4.82502L17.35 4.11252V3.62502L16.9125 3.92502ZM20.8875 6.66252L21.2125 6.95002L21.55 6.75002L21.2125 6.47502L21.5875 6.18752H20.7875L19.9875 5.47502L19.75 5.72502L20.5 6.42502V6.90002L20.8875 6.66252ZM16.9125 6.66252L16.5875 6.95002L16.3 6.75002L16.5875 6.47502L16.2125 6.18752H17.1L17.85 5.47502L18.1 5.72502L17.35 6.42502V6.90002L16.9125 6.66252ZM20.8875 3.91252L21.2125 3.58752L21.55 3.83752L21.2125 4.11252L21.5875 4.35002H20.7875L19.9875 5.10002L19.75 4.82502L20.5 4.11252V3.62502L20.8875 3.91252Z" fill="#383739"/>
<path d="M21.2125 6.9L20.9375 6.6125L21.175 6.475L21.45 6.75L21.2125 6.9ZM20.5125 6.85V6.425L19.7625 5.7125L19.9375 5.525L20.6875 6.2375H21.45L20.5125 6.85ZM16.5375 3.6875L16.825 3.925L16.575 4.0625L16.3 3.825L16.5375 3.6875ZM17.25 3.6875V4.1625L18 4.825L17.8125 5.0125L17.0625 4.3H16.3125L17.25 3.7375V3.6875Z" fill="#D22630"/>
<path d="M21.2125 3.6875L20.9375 3.925L21.175 4.0625L21.45 3.825L21.2125 3.6875ZM20.5125 3.6875V4.1625L19.7625 4.825L19.9375 5.0125L20.6875 4.3H21.45L20.5125 3.6875ZM16.5375 6.9375L16.825 6.6625L16.575 6.525L16.3 6.8L16.5375 6.9375ZM17.25 6.9V6.475L18 5.7625L17.8125 5.575L17.0625 6.2875H16.3125L17.25 6.9Z" fill="#00843D"/>
<path d="M20.875 5.28748L18.9125 6.62498L16.925 5.29998L18.925 3.97498L20.875 5.28748Z" fill="#383739"/>
<path d="M18.9 4.01251L17.0125 5.25001H20.7875L18.9125 4.01251V6.51251L20.7875 5.28751H17.0125L18.9 6.52501V4.01251Z" fill="white"/>
<path d="M19.425 5.71251V6.08751H18.425V5.71251H17.725V4.82501H18.425V4.45001H19.375V4.82501H20.0875V5.75001L19.425 5.71251Z" fill="#383739"/>
<path d="M18.425 4.5V4.875H17.725V5.25H18.9V4.5H18.425ZM18.9 5.25H20.0875V4.875H19.375V4.5H18.9V5.25ZM17.725 5.2875V5.7125H18.425V6.05H18.9V5.3L17.725 5.2875ZM18.9 6.0375H19.375V5.7125H20.0875V5.2875H18.9V6.0375Z" fill="#D22630"/>
<path d="M22.3 20.3625V19.8H23.9125V19.175H25.475V13.9375H23.9125V13.3125H22.3V12.75H20.7V12.1875H17.1V12.75H15.5V13.325H13.875V13.9375H12.3375V19.1875H13.875V19.8375H15.5V20.3125H17.1V20.8875H20.7V20.3125L22.3 20.3625Z" fill="#383739"/>
<path d="M17.15 12.2375V12.75H15.5875V13.325H14V13.9375H12.425V19.1375H14V19.7H15.6V20.325H17.2125V20.8875H20.7125V20.3125H22.3125V19.75H23.925V19.125H25.5V13.9375H23.9V13.375H22.2V12.8H20.5875V12.25L17.15 12.2375ZM17.625 12.6625H20.225V13.225H21.825V13.8H23.4375V14.4125H25.05V18.7125H23.4375V19.375H21.825V19.8375H20.225V20.4125H17.575V19.8375H15.975V19.375H14.3625V18.75H12.8V14.4625H14.375V13.8375H15.9875V13.225H17.5875L17.625 12.6625Z" fill="#FFC72C"/>
<path d="M16.0625 19.8375V19.275H14.4125V18.7125H12.8V14.4625H14.4125V13.8375H16.0625V13.275H17.675V12.7125H20.225V13.225H21.825V13.8H23.4375V14.4125H25.05V18.6625H23.4375V19.225H21.7375V19.85H20.125V20.4625H17.575V19.8375H16.0625Z" fill="#D22630"/>
<path d="M16.4 13.7L15.975 13.375V13.9875L15.6 14.225V13.85L15.225 14.225L14.8375 13.85V14.225L14.3625 13.975V14.5L14.0375 14.7875V14.4625L13.5625 14.7375L13.1875 14.4625V14.7875L12.75 14.5V16.1625H12.275V17.0125H12.75V18.6625L13.175 18.375V18.75L13.6 18.425L14.025 18.75V18.375L14.35 18.6625V19.225L14.825 18.95V19.325L15.2 18.95L15.575 19.325V18.9L15.95 19.1375V19.75L16.3875 19.4125V19.8375L16.8125 19.4625L17.1875 19.8375V19.375L17.5625 19.65V20.3125L18.1375 19.8V20.3625L18.8875 19.8875L19.6375 20.3625V19.8375L20.2125 20.3125V19.7L20.5875 19.4125V19.8375L20.9625 19.4625L21.4375 19.8375V19.375L21.8125 19.7V19.075L22.1875 18.85V19.225L22.575 18.85L22.95 19.225V18.9L23.425 19.175V18.625L23.75 18.3375V18.7125L24.225 18.3875L24.6 18.725V18.35L25.0375 18.625V17.025H25.5V16.2125H25.0375V14.5625L24.6125 14.85V14.5L24.175 14.7875L23.75 14.5V14.8375L23.425 14.55V14.0375L22.95 14.2625V13.8875L22.575 14.2625L22.2 13.8875V14.2625L21.825 14.0375V13.4125L21.3875 13.75V13.325L21.0125 13.7L20.5375 13.325V13.75L20.2125 13.4625V12.85L19.65 13.325V12.75L18.9 13.225L18.1375 12.75V13.225L17.5625 12.75V13.375L17.1875 13.65V13.225L16.8125 13.6L16.3875 13.225L16.4 13.7Z" fill="#383739"/>
<path d="M13.225 14.875V14.5L13.6 14.7875L13.9875 14.5V14.875L14.3625 14.55V18.5625L13.9875 18.2875V18.6125L13.6125 18.325L13.2375 18.6125V18.2875L12.8 18.5625V16.9125H12.3375V16.2H12.8V14.55L13.225 14.875ZM16.45 13.375L16.825 13.7L17.15 13.375V13.8L17.575 13.4625V19.625L17.15 19.3375V19.7625L16.825 19.425L16.45 19.7625V19.3375L16.025 19.6625V13.525L16.45 13.8125V13.375ZM21.3625 13.375L21.025 13.7L20.65 13.375V13.8L20.225 13.4625V19.625L20.65 19.3375V19.7625L21.025 19.425L21.3625 19.7625V19.3375L21.7875 19.6625V13.525L21.3625 13.8125V13.375ZM24.575 14.875V14.5L24.2 14.7875L23.825 14.5V14.875L23.4375 14.55V18.5625L23.8125 18.2875V18.6125L24.1875 18.325L24.5625 18.6125V18.2875L25 18.5625V16.9125H25.475V16.2H25V14.55L24.575 14.875Z" fill="#00843D"/>
<path d="M14.875 13.9875L15.2125 14.2625L15.55 13.9875V14.3125L16.025 14.0375V19.0875L15.55 18.8V19.175L15.2125 18.85L14.8875 19.175V18.8L14.4125 19.0875V14.0375L14.8875 14.3125L14.875 13.9875ZM18.1875 13.3625L17.625 12.9V20.275L18.1875 19.75V20.3125L18.9 19.8375L19.6125 20.3125V19.7L20.175 20.175V12.95L19.6125 13.4125V12.75L18.9 13.225L18.1875 12.75V13.3625ZM22.9125 13.9875L22.5875 14.2625L22.2625 13.9875V14.3125L21.7875 14.0375V19.0875L22.2625 18.8V19.175L22.5875 18.85L22.9625 19.175V18.8L23.3875 19.0875V14.0375L22.9125 14.3125V13.9875Z" fill="#FFC72C"/>
<path d="M13.425 15.825L13.6125 15.925C13.65 15.925 13.75 15.925 13.8 15.825C13.9375 15.6875 13.9375 15.4 13.9375 15.2125L13.7 15.45L13.6125 15.2125L13.4625 15.45L13.275 15.2125C13.275 15.4 13.275 15.6875 13.425 15.8375V15.825ZM15.125 15.4L14.975 15.2625V15.0125L14.7 15.3125L15.1625 15.775L15.7375 15.3125L15.45 15.025V15.2625L15.3125 15.4V14.925L15.55 14.7375L15.2125 14.4625L14.8875 14.7375L15.125 14.9875V15.4ZM16.675 14.925L16.5875 14.7875V14.5L16.25 14.7875L16.825 15.3125L17.3 14.8375L17.0125 14.5V14.7875L16.9125 14.8875V14.4125L17.1625 14.2625L16.825 13.9875L16.4875 14.2625L16.675 14.4625V14.925Z" fill="#383739"/>
<path d="M13.6125 15.3125L13.7 15.5L13.8875 15.3125C13.8875 15.5375 13.85 15.7375 13.7625 15.775C13.745 15.7982 13.7224 15.8171 13.6964 15.8302C13.6703 15.8432 13.6416 15.85 13.6125 15.85C13.5834 15.85 13.5547 15.8432 13.5287 15.8302C13.5026 15.8171 13.48 15.7982 13.4625 15.775C13.375 15.7375 13.325 15.5375 13.325 15.3125L13.5125 15.5L13.6125 15.3125ZM16.8625 14.4125V15.025L17.0625 14.7875V14.65L17.25 14.8375L16.775 15.3125L16.3 14.8375L16.55 14.65V14.8375L16.725 15.075V14.45L16.5375 14.325L16.825 14.075L17.0625 14.325L16.8625 14.4125Z" fill="white"/>
<path d="M15.2625 14.925V15.5L15.5 15.3125V15.1125L15.6875 15.3125L15.2125 15.775L14.7375 15.3125L14.9375 15.1125V15.3125L15.125 15.5V14.925L14.9375 14.7375L15.2125 14.55L15.4625 14.7375L15.2625 14.925Z" fill="#D22630"/>
<path d="M24.375 15.825L24.1875 15.925C24.15 15.925 24.1 15.925 24.0625 15.825C23.8625 15.6875 23.8625 15.4 23.8625 15.2125L24.1 15.45L24.1875 15.2125L24.3375 15.45L24.525 15.2125C24.525 15.4 24.525 15.6875 24.3875 15.8375L24.375 15.825ZM22.725 15.4L22.825 15.2625V15.0125L23.1125 15.3125L22.6375 15.775L22.0625 15.3125L22.35 15.025V15.2625L22.4875 15.4V14.925L22.2625 14.7375L22.5875 14.4625L22.9125 14.7375L22.725 14.9875V15.4ZM21.125 14.925L21.2125 14.7875V14.5L21.55 14.7875L21.025 15.3125L20.4625 14.8375L20.7875 14.5V14.7875L20.8875 14.8875V14.4125L20.7 14.2625L21.025 13.9875L21.3625 14.2625L21.1125 14.4625L21.125 14.925Z" fill="#383739"/>
<path d="M24.1875 15.3125L24.1 15.5L23.9125 15.3125C23.9125 15.5375 23.9625 15.7375 24.05 15.775C24.0676 15.796 24.0896 15.8129 24.1145 15.8245C24.1393 15.8361 24.1664 15.8421 24.1938 15.8421C24.2212 15.8421 24.2483 15.8361 24.2731 15.8245C24.298 15.8129 24.32 15.796 24.3375 15.775C24.425 15.7375 24.475 15.5375 24.475 15.3125L24.3375 15.5L24.1875 15.3125ZM20.9375 14.4125V15.025L20.75 14.7875V14.65L20.55 14.8375L21.025 15.3125L21.5 14.8375L21.2626 14.65V14.8375L21.0751 15.075V14.45L21.2626 14.325L21.025 14.075L20.75 14.325L20.9375 14.4125Z" fill="white"/>
<path d="M22.5375 14.925V15.5L22.35 15.3125V15.1125L22.1625 15.3125L22.6375 15.775L23.1125 15.3125L22.8625 15.1125V15.3125L22.6875 15.5V14.925L22.875 14.7375L22.5875 14.55L22.35 14.7375L22.5375 14.925Z" fill="#D22630"/>
<path d="M19.5125 15.125L19.375 14.8375L19.8 14.4625L19.375 14.125V14.3625L19.2375 14.5V14.0375L19.6125 13.7875L18.9 13.225L18.1875 13.7L18.5625 14.0375V14.4625L18.4375 14.3125V14.075L18 14.4125L18.475 14.7875L18.2875 15.025L19.5125 15.125Z" fill="#383739"/>
<path d="M18.375 15.075L18.525 14.825L18.05 14.45L18.3876 14.225V14.3625L18.6125 14.6V14.0375L18.2875 13.7875L18.9125 13.325L19.5126 13.8L19.1875 14.0375V14.65L19.425 14.4V14.275L19.75 14.5L19.275 14.875L19.4625 15.125L18.375 15.075Z" fill="#D22630"/>
<path d="M18.575 13.8L18.9 14.0375L19.2375 13.7875L18.9 13.5625L18.575 13.8Z" fill="#383739"/>
<path d="M18.9 13.6125L19.1375 13.8L18.9 13.9375L18.6625 13.8L18.9 13.6125Z" fill="#00843D"/>
<path d="M13.425 17.2875C13.4477 17.2597 13.4763 17.2374 13.5087 17.2222C13.5412 17.2071 13.5767 17.1995 13.6125 17.2C13.65 17.2 13.75 17.2 13.8 17.2875C13.9375 17.4375 13.9375 17.7125 13.9375 17.9125L13.7 17.7125L13.6125 17.9L13.4625 17.7125L13.275 17.9C13.275 17.7125 13.275 17.4375 13.425 17.2875ZM15.125 17.7125L14.975 17.8625V18.1L14.7 17.8125L15.1625 17.3375L15.7375 17.8125L15.45 18.1V17.85L15.3125 17.725V18.1875L15.55 18.375L15.2125 18.6625L14.8875 18.375L15.125 18.1375V17.7125ZM16.675 18.1875L16.5875 18.325V18.6125L16.25 18.325L16.825 17.8125L17.3 18.325L17.0125 18.6125V18.325L16.9125 18.2375V18.7125L17.1625 18.85L16.825 19.1375L16.4875 18.85L16.675 18.6625V18.1875Z" fill="#383739"/>
<path d="M13.6125 17.8125L13.7 17.625L13.8875 17.8125C13.8875 17.575 13.85 17.3875 13.7625 17.3375C13.745 17.3142 13.7224 17.2953 13.6964 17.2822C13.6703 17.2692 13.6416 17.2625 13.6125 17.2625C13.5834 17.2625 13.5547 17.2692 13.5287 17.2822C13.5026 17.2953 13.48 17.3142 13.4625 17.3375C13.375 17.3875 13.325 17.575 13.325 17.8125L13.5125 17.625L13.6125 17.8125ZM16.8625 18.7125V18.0875L17.0625 18.3375V18.525L17.25 18.325L16.775 17.8624L16.3 18.325L16.55 18.525V18.325L16.725 18.1V18.7125L16.5375 18.85L16.825 19.0875L17.0625 18.85L16.8625 18.7125Z" fill="white"/>
<path d="M15.2625 18.1875V17.625L15.5 17.8125V18L15.6875 17.8125L15.2125 17.3375L14.7375 17.8125L14.9375 18V17.8125L15.125 17.625V18.1875L14.9375 18.375L15.2125 18.5625L15.4625 18.375L15.2625 18.1875Z" fill="#D22630"/>
<path d="M24.375 17.2875C24.3524 17.2597 24.3238 17.2374 24.2913 17.2222C24.2588 17.2071 24.2234 17.1995 24.1875 17.2C24.15 17.2 24.1 17.2 24.0625 17.2875C23.8625 17.4375 23.8625 17.7125 23.8625 17.9125L24.1 17.7125L24.1875 17.9L24.3375 17.7125L24.525 17.9C24.525 17.7125 24.525 17.4375 24.3875 17.2875H24.375ZM22.725 17.7125L22.825 17.8625V18.1L23.1125 17.8125L22.6375 17.3375L22.0625 17.8125L22.35 18.1V17.85L22.4875 17.725V18.1875L22.2625 18.375L22.5875 18.6625L22.9125 18.375L22.725 18.1375V17.7125ZM21.125 18.1875L21.2125 18.325V18.6125L21.55 18.325L21.025 17.8125L20.4625 18.325L20.7875 18.6125V18.325L20.8875 18.2375V18.7125L20.7 18.85L21.025 19.1375L21.3625 18.85L21.1125 18.6625L21.125 18.1875Z" fill="#383739"/>
<path d="M24.1875 17.8125L24.1 17.625L23.9125 17.8125C23.9125 17.575 23.9625 17.3875 24.05 17.3375C24.0676 17.3165 24.0896 17.2996 24.1145 17.288C24.1393 17.2764 24.1664 17.2704 24.1938 17.2704C24.2212 17.2704 24.2483 17.2764 24.2731 17.288C24.298 17.2996 24.32 17.3165 24.3375 17.3375C24.425 17.3875 24.475 17.575 24.475 17.8125L24.3375 17.625L24.1875 17.8125ZM20.9375 18.7125V18.0875L20.75 18.3375V18.525L20.55 18.325L21.025 17.8625L21.5 18.325L21.2626 18.525V18.325L21.0751 18.1V18.7125L21.2626 18.85L21.025 19.0875L20.75 18.85L20.9375 18.7125Z" fill="white"/>
<path d="M22.5375 18.1875V17.625L22.35 17.8125V18L22.1625 17.8125L22.6375 17.3375L23.1125 17.8125L22.8625 18V17.8125L22.6875 17.625V18.1875L22.875 18.375L22.5875 18.5625L22.35 18.375L22.5375 18.1875Z" fill="#D22630"/>
<path d="M19.5125 18.05L19.375 18.2875L19.8 18.6625L19.375 18.9875V18.75L19.2375 18.625V19.0875L19.6125 19.325L18.9 19.8375L18.1875 19.375L18.5625 19.0375V18.625L18.4375 18.7625V19.0125L18 18.675L18.475 18.3L18.2875 18.05H19.5125Z" fill="#383739"/>
<path d="M18.375 18.1L18.525 18.2875L18.05 18.6625L18.3876 18.9V18.75L18.6125 18.525V19.0875L18.2875 19.325L18.9125 19.8L19.5126 19.325L19.1875 19.075V18.525L19.425 18.75V18.9L19.75 18.65L19.275 18.275L19.4625 18.1H18.375Z" fill="#D22630"/>
<path d="M18.575 19.375L18.9 19.0875L19.2375 19.325L18.9 19.5625L18.575 19.375Z" fill="#383739"/>
<path d="M18.9 19.5L19.1375 19.325L18.9 19.175L18.6625 19.325L18.9 19.5Z" fill="#00843D"/>
<path d="M24.575 16.3H23.9125V16.0625H21.7375L20.225 15.1125H17.575L16.075 16.0625H13.875V16.35H13.2125V16.825H13.875V17.15H16.05L17.5625 18.1H20.2125L21.7125 17.15H23.9V16.8625H24.5625L24.575 16.3Z" fill="#383739"/>
<path d="M17.575 15.125L16.075 16.0625H13.95V16.35H13.275V16.775H13.9375V17.05H16.0625L17.575 18H20.225L21.725 17.05H23.875V16.775H24.5875V16.35H23.875V16.0625H21.75L20.2375 15.1125L17.575 15.125ZM17.575 15.25H20.175L21.6 16.1625V16.2875H23.1V16.8625H21.55V17.0125L20.175 17.8625H17.625L16.2125 17.0125V16.8625H14.7V16.3H16.25V16.1625L17.575 15.25Z" fill="#D22630"/>
<path d="M20.175 15.25L21.5 16.2V16.3H23.0625V16.775H21.5V16.9625L20.175 17.8625H17.625L16.3 16.9625V16.825H14.75V16.35H16.3125V16.1625L17.625 15.25H20.175Z" fill="#D22630"/>
<path d="M16.9625 17.05L17.525 17.525L17.9 17.2L17.725 17.05L17.525 17.15L17.4 17.05L19.5625 15.4H19.1375L16.9625 17.05ZM18.2375 17.7125H18.6625L20.8375 16.0625L20.275 15.5875L19.9 15.925L20.125 16.0625L20.275 15.9625L20.4125 16.0625L18.2375 17.7125ZM19.1875 17.7125H19.5625L17.3875 16.0625L17.525 15.9625L17.725 16.0625L17.9125 15.925L17.5375 15.6375L16.9625 16.0625L19.1875 17.7125ZM20.4125 17.05L20.275 17.15L20.125 17.05L19.8875 17.2L20.2625 17.475L20.8375 17.05L18.6625 15.4H18.1875L20.4125 17.05ZM16.5375 16.5875L16.9125 16.825L17.2875 16.575L16.9125 16.3L16.5375 16.5875ZM18.525 16.5375L18.9 16.825L19.275 16.575L18.9 16.3L18.525 16.5375ZM21.275 16.5375L20.8875 16.825L20.5125 16.575L20.8875 16.3L21.275 16.5375Z" fill="#383739"/>
<path d="M20.7875 17.05L20.275 17.425L19.9375 17.2L20.125 17.1L20.275 17.2L20.4625 17.05L18.3375 15.45H18.6625L20.7875 17.05ZM19.4625 17.675H19.1375L17.0125 16.0625L17.525 15.6875L17.8624 15.925L17.725 16.0125L17.525 15.925L17.3375 16.0625L19.4625 17.675ZM18.6625 17.675H18.3375L20.4625 16.0625L20.275 15.925L20.125 16.0125L19.9375 15.925L20.275 15.675L20.75 16.0625L18.6625 17.675ZM19.1375 15.45H19.4625L17.3375 17.05L17.525 17.2L17.725 17.1L17.85 17.2L17.525 17.4375L17.0625 17.0625L19.1375 15.45Z" fill="#FFC72C"/>
<path d="M16.9125 16.35L17.2 16.5875L16.9125 16.775L16.5875 16.5875L16.9125 16.35ZM18.9125 16.35L19.2375 16.5875L18.9 16.775L18.575 16.5875L18.9125 16.35ZM20.8875 16.35L20.6 16.5875L20.8875 16.775L21.2125 16.5875L20.8875 16.35Z" fill="#00843D"/>
<path d="M12.05 27.4L11.9125 27.6375L12.1875 27.825L11.9125 28.0625L12.05 28.25L12.375 28.3L12.6625 28.0625L13.4625 28.5375V28.1625L13 27.825L13.4625 27.5375V27.125L12.6625 27.6L12.375 27.4125L12.05 27.4ZM12.05 25.9875L11.9125 26.225L12.1875 26.4125L11.9125 26.65L12.05 26.8375L12.375 26.8875L12.6625 26.6375L13.4625 27.1125V26.7375L13 26.4125L13.4625 26.125V25.7L12.6625 26.175L12.375 25.9875H12.05ZM12.05 29.675L11.9125 29.475L12.1875 29.25L11.9125 29.05L12.05 28.825H12.375L12.6625 29.0125L13.4625 28.5375V28.9625L13 29.25L13.4625 29.575V29.95L12.6625 29.475L12.375 29.725L12.05 29.675ZM25.75 27.4L25.9 27.6375L25.6125 27.825L25.9 28.0625L25.75 28.25L25.425 28.3L25.1375 28.0625L24.3375 28.5375V28.1625L24.8125 27.825L24.3375 27.5375V27.125L25.1375 27.6L25.425 27.4125L25.75 27.4ZM25.75 25.9875L25.9 26.225L25.6125 26.4125L25.9 26.65L25.75 26.8375L25.425 26.8875L25.1375 26.6375L24.3375 27.1125V26.7375L24.8125 26.4125L24.3375 26.125V25.7L25.1375 26.175L25.425 25.9875H25.75ZM25.75 29.675L25.9 29.475L25.6125 29.25L25.9 29.05L25.75 28.825H25.425L25.125 29L24.325 28.525V28.95L24.8 29.2375L24.325 29.5625V29.9375L25.125 29.4625L25.4125 29.7125L25.75 29.675ZM22.6875 23.625V24.1875H23.1125V24.475H23.5375V24H23.1625V23.625H22.6875ZM23.9125 24.5625V25.0375H24.3875V25.275H24.7625V24.8H24.3875V24.5625H23.9125ZM15.125 23.625V24.1875H14.7V24.475H14.275V24H14.65V23.625H15.125ZM22.6875 32.125V31.5625H23.1125V31.3125H23.5375V31.8H23.1625V32.175L22.6875 32.125ZM15.125 32.125V31.5625H14.7V31.3125H14.275V31.8H14.65V32.175L15.125 32.125ZM23.9125 31.175V30.625H24.3875V30.3375H24.7625V30.8125H24.3875V31.1875L23.9125 31.175ZM13.875 24.5625V25.0375H13.4125V25.275H13.0375V24.8H13.4125V24.5625H13.875ZM13.875 31.225V30.6625H13.4125V30.375H13.0375V30.85H13.4125V31.225H13.875ZM20.5 23.625L20.1625 23.2875L19.8375 23.575L20.1125 23.8625L19.7375 24.1875H20.2625L20.45 24L20.6375 24.1875H21.2625L20.875 23.875L21.1625 23.5875L20.825 23.3L20.5 23.625ZM18.8875 23.625L18.5625 23.2875L18.225 23.575L18.5125 23.8625L18.175 24.1875H18.7L18.8875 24L19.075 24.1875H19.6L19.2625 23.8625L19.55 23.575L19.225 23.2875L18.8875 23.625ZM17.325 23.625L17.6625 23.2875L17.95 23.575L17.6625 23.8625L18.0375 24.1875H17.5125L17.325 24L17.1375 24.1875H16.525L16.9 23.8625L16.625 23.575L16.95 23.2875L17.2875 23.625H17.325ZM20.45 32.125L20.1625 32.5L19.8375 32.175L20.1125 31.9375L19.7375 31.5625H20.2625L20.45 31.75L20.6375 31.5625H21.2625L20.875 31.9375L21.1625 32.175L20.825 32.5L20.45 32.125ZM18.8875 32.125L18.5625 32.5L18.225 32.175L18.5125 31.9375L18.175 31.5625H18.7L18.8875 31.75L19.075 31.5625H19.6L19.2625 31.9375L19.55 32.175L19.225 32.5L18.8875 32.125ZM17.325 32.125L17.6625 32.5L17.95 32.175L17.6625 31.9375L18.0375 31.5625H17.5125L17.325 31.75L17.1375 31.5625H16.525L16.9 31.9375L16.625 32.175L16.95 32.5L17.2875 32.175L17.325 32.125Z" fill="#383739"/>
<path d="M13.425 28.1625V28.4875L12.675 28.0125L12.375 28.2625H12.1L11.95 28.0625L12.2375 27.825L11.95 27.6375L12.1 27.45H12.375L12.6625 27.6875L13.4125 27.2125V27.5L12.9 27.825L13.425 28.1625ZM13.425 26.7375V27.075L12.675 26.6L12.375 26.8375H12.1L11.95 26.65L12.2375 26.4L11.95 26.225L12.1 26.0375H12.375L12.6625 26.2625L13.4125 25.8V26.075L12.9 26.4125L13.425 26.7375ZM13.425 28.9125V28.625L12.675 29.1L12.375 28.825H12.1L11.95 29.0125L12.25 29.25L11.9625 29.475L12.1125 29.625H12.375L12.6625 29.4375L13.4125 29.9V29.575L12.9 29.25L13.425 28.9125ZM24.3875 28.1625V28.4875L25.1375 28.0125L25.475 28.2625H25.7L25.85 28.0625L25.5625 27.825L25.85 27.6375L25.7 27.45H25.5125L25.1875 27.6875L24.4375 27.2125V27.5L24.95 27.825L24.3875 28.1625ZM24.3875 26.7375V27.075L25.1375 26.6L25.475 26.8375H25.7L25.85 26.65L25.5625 26.4L25.85 26.225L25.7 26.0375H25.5125L25.1875 26.2625L24.4375 25.8V26.075L24.95 26.4125L24.3875 26.7375ZM24.3875 28.9125V28.625L25.1375 29.1L25.475 28.825H25.7L25.85 29.0125L25.5625 29.25L25.85 29.475L25.7 29.625H25.5125L25.1875 29.4375L24.4375 29.9V29.575L24.95 29.25L24.3875 28.9125ZM23.15 23.625V24H23.525V24.375H23.15V24.1H22.6875V23.625H23.15ZM24.425 24.5625V24.9H24.7625V25.275H24.425V25.0375H24V24.5625H24.425ZM14.65 23.625V24H14.275V24.375H14.6V24.1H15.075V23.625H14.65ZM23.15 32.075V31.65H23.525V31.275H23.15V31.5125H22.6875V31.9875L23.15 32.075ZM14.7375 32.075V31.65H14.3625V31.275H14.7V31.5125H15.1625V31.9875L14.7375 32.075ZM24.425 31.1375V30.7625H24.7625V30.3875H24.425V30.6625H24V31.1375H24.425ZM13.4625 24.5625V24.9375H13.0875V25.3125H13.425V25.0375H13.85V24.5625H13.4625ZM13.4625 31.1875V30.8125H13.0875V30.425H13.425V30.7125H13.85V31.175L13.4625 31.1875ZM20.175 23.3375L20.4625 23.675L20.7875 23.3375L21.075 23.575L20.7875 23.8625L21.125 24.1375H20.65L20.4625 23.95L20.275 24.1375H19.85L20.175 23.8625L19.8875 23.575L20.175 23.3375ZM18.575 23.3375L18.9 23.675L19.2375 23.3375L19.4625 23.575L19.1875 23.8625L19.5125 24.1375H19.0875L18.9 23.95L18.7125 24.1375H18.2375L18.6125 23.8625L18.3375 23.575L18.575 23.3375ZM17.625 23.3375L17.3375 23.675L17.0125 23.3375L16.725 23.575L17.0125 23.8625L16.725 24.1375H17.1L17.35 23.95L17.525 24.1375H17.9625L17.625 23.875L17.9125 23.5875L17.625 23.3375ZM20.175 32.4125L20.4625 32.125L20.7875 32.4125L21.075 32.1625L20.7875 31.9375L21.125 31.6125H20.65L20.4625 31.8L20.275 31.6125H19.85L20.175 31.9375L19.8875 32.175L20.175 32.4125ZM18.575 32.4125L18.9 32.125L19.2375 32.4125L19.4625 32.1625L19.1875 31.9375L19.5125 31.6125H19.0875L18.9 31.8L18.7125 31.6125H18.2375L18.6125 31.9375L18.3375 32.175L18.575 32.4125ZM17.625 32.4125L17.3375 32.125L17.0125 32.4125L16.725 32.1625L17.0125 31.9375L16.725 31.6125H17.1L17.35 31.8L17.525 31.6125H17.9625L17.625 31.9375L17.9125 32.175L17.625 32.4125Z" fill="#00843D"/>
<path d="M14.65 30.6625V31.6125H23.15V30.6625H24.3875V25.0375H23.15V24.1H14.65V25.0375H13.425V30.6625H14.65Z" fill="#383739"/>
<path d="M14.7 24.1375V25.0875H13.4625V30.6125H14.65V31.5625H23.15V30.6125H24.3875V25.0375H23.15V24.1H14.65L14.7 24.1375ZM15.2625 24.5125H22.5375V25.4125L22.875 25.6125H24V30.05H22.875L22.5375 30.2875V31.175H15.2625V30.25L14.9375 30.0625H13.8V25.625H14.925L15.2625 25.425V24.4875V24.5125Z" fill="#FFC72C"/>
<path d="M15.3125 24.5625V25.375L16.4 24.5625H15.3125ZM21.45 24.5625L22.4875 25.375V24.5625H21.45ZM13.8875 25.65V26.4625L14.8875 25.7125L13.8875 25.65ZM22.9125 25.65L23.9625 26.4625V25.65H22.9125ZM23.9625 29.25L22.9125 30H23.9625V29.25ZM13.8375 29.25V30H14.8875L13.8375 29.25ZM15.2625 30.325V31.1375H16.3875L15.2625 30.325ZM22.4875 30.325L21.4 31.1375H22.4875V30.325Z" fill="#D22630"/>
<path d="M21.3625 24.5625L23.9625 26.4625V29.2L21.3625 31.075H16.45L13.85 29.2V26.45L16.45 24.525L21.3625 24.5625Z" fill="#00843D"/>
<path d="M14.4625 29.475L14.175 29.15L14.4625 28.825L14.175 28.4875L14.4625 28.1625L14.175 27.825L14.4625 27.5L14.175 27.1625L14.4625 26.8375L14.175 26.55L14.4625 26.175H23.3375L23.625 26.55L23.3375 26.8375L23.625 27.1625L23.3375 27.5L23.625 27.825L23.3375 28.1625L23.625 28.4875L23.3375 28.825L23.625 29.15L23.3375 29.475H14.4625ZM20.6 24.9875L20.225 24.6625L19.8875 24.95L19.5625 24.6625L19.2375 24.95L18.9 24.6625L18.575 24.95L18.2375 24.6625L17.9125 24.95L17.575 24.6625L17.25 24.9875V30.6625L17.575 30.9875L17.9125 30.7125L18.2375 30.9875L18.575 30.7125L18.9 30.9875L19.2375 30.7125L19.5625 30.9875L19.8875 30.7125L20.225 30.9875L20.55 30.7125L20.6 24.9875Z" fill="#383739"/>
<path d="M19.85 25.0375L19.5625 24.75L19.2375 25V30.6625L19.5625 30.95L19.85 30.6625V25.0375ZM18.575 25.0375L18.2375 24.75L17.9625 25V30.6625L18.2375 30.95L18.575 30.6625V25.0375Z" fill="#FFC72C"/>
<path d="M14.5 29.475L14.225 29.15L14.5125 28.8625H23.3L23.575 29.15L23.3 29.475H14.5ZM23.3 27.5375L23.575 27.825L23.3 28.1625H14.5L14.2125 27.825L14.5 27.5375H23.3ZM23.3 26.8375L23.575 26.55L23.3 26.225H14.5L14.2125 26.55L14.5 26.8375H23.3Z" fill="#FFC72C"/>
<path d="M20.5 25.0375L20.225 24.75L19.8875 25V30.6625L20.225 30.95L20.5125 30.6625L20.5 25.0375ZM17.9625 25.0375L17.625 24.75L17.3375 25V30.6625L17.625 30.95L17.9625 30.6625V25.0375Z" fill="#D22630"/>
<path d="M14.5 28.825L14.225 28.4875L14.5125 28.2H23.3L23.575 28.4875L23.3 28.825H14.5ZM14.5 27.5L14.225 27.1625L14.5125 26.8875H23.3L23.575 27.1625L23.3 27.5H14.5Z" fill="#D22630"/>
<path d="M19.2375 30.7125L18.9 30.95L18.6125 30.6625V25.0375L18.9 24.8L19.2375 25.05V30.7125Z" fill="#D22630"/>
<path d="M21.875 25.0875H15.925V25.5625H15.125V30.1H15.875V30.5625H21.825V30.1H22.6875V25.5625H21.925V25.0875H21.875Z" fill="#383739"/>
<path d="M15.975 25.125V25.6125H15.225V30.05H15.975V30.525H16.5375L15.3125 29.475V26.175L16.5375 25.1375H15.925L15.975 25.125ZM21.225 25.125L22.45 26.225V29.525L21.2625 30.475H21.8875V30H22.6375V25.5625H21.8875V25.0875H21.2625L21.225 25.125Z" fill="#D22630"/>
<path d="M16.625 25.125L15.4 26.225V29.475L16.6375 30.525H21.175L22.4 29.475V26.175L21.175 25.1375L16.625 25.125ZM16.725 25.325H21.075L22.2625 26.2625V29.3875L21.075 30.325H16.725L15.55 29.3875V26.3125L16.725 25.325Z" fill="#00843D"/>
<path d="M17.8625 29.4375L18.05 29.525L18.1 29.775L17.85 29.95L18.2375 30.2875H17.8625L17.625 30.0375L17.3875 30.2875H17.0125L17.3375 29.95L17.1 29.7625V29.525L17.35 29.4375L17.575 29.625L17.8625 29.4375ZM19.1375 29.4375L19.325 29.525L19.375 29.775L19.1375 29.95L19.5125 30.2875H19.1375L18.9 30.0375L18.6625 30.2875H18.3375L18.6625 29.95L18.425 29.7625V29.525L18.675 29.4375L18.9 29.625L19.1375 29.4375ZM19.9375 29.4375L19.75 29.525L19.7 29.775L19.95 29.95L19.6125 30.2875H19.9375L20.1875 30.0375L20.4125 30.2875H20.7875L20.4125 29.95L20.65 29.7625V29.525L20.4125 29.4375L20.175 29.625L19.9375 29.4375ZM17.875 26.25L18.0625 26.1625L18.1125 25.925L17.8625 25.6875L18.25 25.3625H17.875L17.6375 25.6L17.4 25.35H17.025L17.35 25.6875L17.1125 25.925V26.1625L17.3625 26.25L17.5875 26.025L17.875 26.25ZM19.15 26.25L19.3375 26.1625L19.3875 25.925L19.15 25.6875L19.525 25.3625H19.15L18.9125 25.6L18.675 25.35H18.35L18.675 25.6875L18.4375 25.925V26.1625L18.6875 26.25L18.9125 26.025L19.15 26.25ZM19.95 26.25L19.7625 26.1625L19.7125 25.925L19.9625 25.6875L19.625 25.3625H19.95L20.2 25.6L20.425 25.35H20.8L20.425 25.6875L20.6625 25.925V26.1625L20.425 26.25L20.1875 26.025L19.95 26.25ZM22.225 26.5875L22.0375 26.775L22.225 26.9125V27.2L21.8875 26.9625L21.7 27.15H21.4625L21.375 26.9625L21.5625 26.775L21.375 26.5875L21.4625 26.4H21.7125L21.8875 26.5875L22.225 26.35V26.5875ZM22.225 27.675L22.0375 27.8125L22.225 28V28.25L21.8875 28L21.7 28.1875H21.4625L21.375 28L21.5625 27.8125L21.375 27.625L21.4625 27.4875H21.7125L21.8875 27.625L22.225 27.3875V27.675ZM22.225 29.0875L22.0375 28.9L22.225 28.7125V28.475L21.8875 28.7125L21.7 28.525H21.4625L21.375 28.7125L21.5625 28.9L21.375 29.0875L21.4625 29.2375H21.7125L21.8875 29.0875L22.225 29.3375V29.0875ZM15.6 26.5875L15.85 26.775L15.6 26.9125V27.2L15.9375 26.9625L16.125 27.15H16.3625L16.4625 26.9625L16.2625 26.775L16.4625 26.5875L16.3625 26.4H16.125L15.9375 26.5875L15.6 26.35V26.5875ZM15.6 27.675L15.85 27.8125L15.6 28V28.25L15.9375 28L16.125 28.1875H16.3625L16.4625 28L16.2625 27.8125L16.4625 27.625L16.3625 27.4875H16.125L15.9375 27.625L15.6 27.3875V27.675ZM15.6 29.0875L15.85 28.9L15.6 28.7125V28.475L15.9375 28.7125L16.125 28.525H16.3625L16.4625 28.7125L16.2625 28.9L16.4625 29.0875L16.3625 29.2375H16.125L15.9375 29.0875L15.6 29.3375V29.0875Z" fill="#00843D"/>
<path d="M16.725 25.375L15.6375 26.3125L15.925 26.5625L16.1125 26.3625H16.4L16.4875 26.6L16.3 26.7875L16.4875 26.975L16.4 27.1625H16.0625L15.875 27.025L15.55 27.2625V27.35L15.875 27.6L16.0625 27.4L16.35 27.45L16.45 27.6375L16.25 27.825L16.45 28.0125L16.35 28.2625H16.0625L15.875 28.0625L15.55 28.35V28.3875L15.875 28.675L16.0625 28.4875H16.35L16.45 28.725L16.25 28.9125L16.45 29.1L16.35 29.2875H16.0625L15.875 29.15L15.5875 29.3875L16.675 30.325H16.925L17.3 29.95L17.05 29.7625V29.475L17.3375 29.3875L17.5875 29.575L17.8125 29.3875L18.0625 29.475L18.1 29.7625L17.85 29.95L18.2375 30.2875L18.575 29.95L18.325 29.7625V29.475L18.6125 29.3875L18.8625 29.575L19.0875 29.3875L19.3375 29.475L19.375 29.7625L19.1375 29.95L19.4625 30.2875L19.8375 29.95L19.6125 29.7625V29.475L19.8875 29.3875L20.1375 29.575L20.3625 29.3875L20.6125 29.475L20.65 29.7625L20.4125 29.95L20.7875 30.2875H21.0375L22.1125 29.3375L21.825 29.15L21.6375 29.3375L21.3625 29.2875L21.2625 29.1L21.45 28.9125L21.2625 28.725L21.3625 28.5375L21.6375 28.4875L21.825 28.675L22.1625 28.3875V28.35L21.825 28.0625L21.6375 28.25H21.375L21.275 28.0125L21.4625 27.825L21.275 27.6375L21.375 27.45H21.65L21.8375 27.5875L22.175 27.35V27.2625L21.8375 27.0125L21.65 27.2125L21.375 27.1625L21.275 26.975L21.4625 26.7875L21.275 26.6L21.375 26.4125L21.65 26.3625L21.8375 26.55L22.125 26.3125L21.0375 25.375H20.8L20.425 25.7L20.6625 25.9375V26.225L20.375 26.3125L20.1375 26.125L19.9 26.3125L19.675 26.225L19.625 25.9375L19.8625 25.7L19.525 25.375L19.15 25.7L19.3875 25.9375V26.225L19.1 26.3125L18.8625 26.125L18.625 26.3125L18.4 26.225L18.35 25.9375L18.5875 25.7L18.25 25.375L17.875 25.7L18.1125 25.9375V26.225L17.825 26.3125L17.5875 26.125L17.35 26.3125L17.1125 26.225L17.075 25.9375L17.3125 25.7L16.9375 25.375H16.725ZM15.6 27.7375V27.9625L15.725 27.8375L15.6 27.7375Z" fill="#D22630"/>
<path d="M17.625 30.1375L17.4375 30.2875H17.8125L17.625 30.1375ZM18.9 30.1375L18.7125 30.2875H19.0875L18.9 30.1375ZM20.175 30.1375L19.9875 30.2875H20.3625L20.175 30.1375ZM17.425 25.4125L17.625 25.5625L17.8125 25.375L17.425 25.4125ZM18.7125 25.4125L18.9 25.5625L19.0875 25.375L18.7125 25.4125ZM19.9875 25.4125L20.175 25.5625L20.3625 25.375L19.9875 25.4125ZM22.2125 26.6875L22.0625 26.7875L22.2125 26.8875V26.6875ZM22.2125 27.7375L22.0625 27.825L22.2125 27.9625V27.7375ZM22.2125 28.825L22.0625 28.9125L22.2125 29.0125V28.825ZM15.5875 26.65V26.8875L15.7375 26.7875L15.5875 26.65ZM15.5875 27.7375V27.9625L15.7375 27.8375L15.5875 27.7375ZM15.5875 28.775V29.0125L15.7375 28.9125L15.5875 28.775Z" fill="white"/>
<path d="M20 27.5V27.125H19.6125V26.6875H18.1875V27.1125H17.8125V27.4875H17.3V28.2H17.8125V28.575H18.1875V29.0125H19.625V28.5375H20V28.2H20.525V27.5H20Z" fill="#383739"/>
<path d="M18.9 26.75V27.1625L18.2875 27.5V27.825H17.3375V27.5375H17.8125V27.1625H18.2375V26.6875L18.9 26.75ZM18.9 28.9625V28.4875L19.525 28.1625V27.875H20.4625V28.1625H19.9875V28.5375H19.5625V28.9625H18.9Z" fill="#FFC72C"/>
<path d="M19.5125 27.825V27.5L18.9 27.1625V26.6875H19.5625V27.1625H19.9375V27.5375H20.4625V27.825H19.5125ZM17.3375 27.825H18.2875V28.1625L18.9125 28.5375V28.9625H18.2375V28.4875H17.8625V28.1625H17.3375V27.825Z" fill="white"/>
<path d="M18.3375 27.875V28.1625L18.9 28.4875V27.8625L18.3375 27.875Z" fill="#D22630"/>
<path d="M18.9 27.2125L18.3375 27.5375V27.825H18.9V27.2125Z" fill="#00843D"/>
<path d="M19.4625 27.825V27.5375L18.9 27.2125V27.8375L19.4625 27.825Z" fill="#D22630"/>
<path d="M18.9 28.5L19.4625 28.1625V27.875H18.9V28.5Z" fill="#00843D"/>
<path d="M13.75 35.375V36.5625H12.6625V37.6125H11.5375V40.625H12.6625V41.7125H13.7V42.85H17.7625L18.475 43.325L18.15 43.5125H16.725L16.5875 43.375H17.9625L17.5875 43H15.6875L16.5375 43.8875H18.2875L18.9125 43.4625L19.5125 43.8375H21.2625L22.1125 42.95H20.225L19.85 43.325H21.175L21.075 43.4625H19.6125L19.275 43.225L19.9875 42.8H24.05V41.675H25.1375V40.625H26.2625V37.625H25.1375V36.575H24.1V35.4H20.0375L19.325 34.925L19.6625 34.7375H21.075L21.2125 34.875H19.8375L20.225 35.25H22.1125L21.2625 34.3625H19.5125L18.9 34.7375L18.2875 34.3625H16.5375L15.6875 35.3H17.575L17.95 34.875H16.6375L16.725 34.7375H18.1875L18.525 34.975L17.8125 35.4L13.75 35.375Z" fill="#D22630"/>
<path d="M20 42.8H24V41.675H25.05V40.5875H26.175V37.65H25.05V36.5625H23.9625V35.4375H19.9375L18.25 34.375H16.55L15.8 35.1875H17.55L17.825 34.9H16.55L16.7375 34.6625H18.2L20.1 35.85H23.625V36.975H24.75V38.0625H25.9V40.15H24.75V41.2375H23.625V42.4125H20.1625L18.275 43.5375H16.7625L16.575 43.3125H17.85L17.5625 43.025H15.8125L16.5625 43.825H18.3125L20 42.8ZM17.675 42.425H14.225V41.25H13.125V40.1625H12V38.075H13.125V37H14.1625V35.9125H17.625L19.5125 34.7375H21.025L21.2125 34.975H19.9375L20.225 35.2625H21.975L21.25 34.375H19.5L17.85 35.425H13.7875V36.55H12.75V37.6375H11.625V40.575H12.75V41.6625H13.85V42.7875H17.9125L19.5625 43.825H21.2625L22.0125 43.025H20.2625L19.9875 43.3125H21.2625L21.075 43.55H19.6125L17.675 42.425Z" fill="#FFC72C"/>
<path d="M23.25 40.9125V42.0375H20.0375L18.9125 42.75L17.7625 42.05H14.55V40.925H13.4625V39.825H12.2875V38.4125H13.4125V37.325H14.5125V36.2H17.725L18.85 35.525L19.9875 36.1875H23.2V37.3125H24.2875V38.4125H25.5125V39.825H24.3875V40.9125H23.25Z" fill="#00843D"/>
<path d="M14.975 40.5V41.575H16.775L14.975 40.3875V40.5ZM14.975 37.75V36.625H16.775L14.975 37.8V37.75ZM22.825 40.5V41.575H21.025L22.825 40.3875V40.5ZM22.825 37.75V36.625H21.025L22.825 37.8V37.75Z" fill="#383739"/>
<path d="M15.025 40.5375L16.6375 41.575H15.025V40.5375ZM15.025 37.7L16.6375 36.6625H15.025V37.7ZM22.775 40.5375L21.175 41.575H22.775V40.5375ZM22.775 37.7L21.175 36.6625H22.775V37.7Z" fill="#D22630"/>
<path d="M17.25 38.7875V38.2625H17.0625L16.1125 37.7L15.1625 38.2625H14.975V38.8375H14.5125V39.5H14.975V40.0625H15.1625L16.1125 40.625L17.0625 40.0625H17.25V39.5H17.9125V38.75L17.25 38.7875Z" fill="#383739"/>
<path d="M16.0625 37.7L17.0125 38.225H15.2125L16.0625 37.7ZM17.0125 40.0125L16.0625 40.5375L15.2125 40.0125H17.0125ZM16.775 38.8375V39.4H15.6875V38.8375H16.775Z" fill="#D22630"/>
<path d="M17.2 39.45V39.9625H16.1125V39.45H17.2ZM16.075 39.45V39.9625H14.975V39.45H16.075ZM17.8625 38.825V39.4H16.825V38.8375L17.8625 38.825ZM15.6375 38.825V39.4H14.55V38.8375L15.6375 38.825ZM17.2 38.2625V38.7875H16.1125V38.3125L17.2 38.2625ZM16.075 38.2625V38.7875H14.975V38.3125L16.075 38.2625Z" fill="#FFC72C"/>
<path d="M15.3625 38.975V39.2625H14.875V38.975H15.3625ZM15.7875 38.4125V38.6875H15.3125V38.4125H15.7875ZM16.9125 38.4125V38.6875H16.45V38.4125H16.9125ZM16.45 38.975V39.2625H15.975V38.975H16.45ZM17.575 38.975V39.2625H17.1V38.975H17.575ZM16.9125 39.5375V39.825H16.45V39.5375H16.9125ZM15.7875 39.5375V39.825H15.3125V39.5375H15.7875Z" fill="#383739"/>
<path d="M15.3125 39.025H14.875V39.2125H15.3L15.3125 39.025ZM15.7875 38.4625H15.3125V38.65H15.7875V38.4625ZM16.875 38.4625H16.45V38.65H16.875V38.4625ZM16.4 39.025H16.0625V39.2125H16.4375L16.4 39.025ZM17.525 39.025H17.15V39.2125H17.525V39.025ZM16.875 39.5875H16.45V39.775H16.875V39.5875ZM15.7375 39.5875H15.3625V39.775H15.7375V39.5875Z" fill="white"/>
<path d="M20.55 38.7875V38.2625H20.75L21.6875 37.7L22.6375 38.2625H22.875V38.8375H23.3V39.5H22.825V40.0625H22.6875L21.7375 40.625L20.7875 40.0625H20.6V39.5H19.9375V38.75L20.55 38.7875Z" fill="#383739"/>
<path d="M21.7375 37.7L20.7875 38.225H22.5375L21.7375 37.7ZM20.7875 40.0125L21.6375 40.5375L22.5375 40.0125H20.7875ZM20.975 38.8375V39.4H22.0625V38.8375H20.975Z" fill="#D22630"/>
<path d="M20.6 39.45V39.9625H21.6875V39.45H20.6ZM21.725 39.45V39.9625H22.825V39.45H21.725ZM19.9375 38.825V39.4H21.025V38.8375L19.9375 38.825ZM22.1625 38.825V39.4H23.25V38.8375L22.1625 38.825ZM20.6 38.2625V38.7875H21.6875V38.3125L20.6 38.2625ZM21.725 38.2625V38.7875H22.825V38.3125L21.725 38.2625Z" fill="#FFC72C"/>
<path d="M22.5 38.975V39.2625H22.9625V38.975H22.5ZM22.025 38.4125V38.6875H22.4875V38.4125H22.025ZM20.8875 38.4125V38.6875H21.3625V38.4125H20.8875ZM21.3625 38.975V39.2625H21.825V38.975H21.3625ZM20.225 38.975V39.2625H20.7V38.975H20.225ZM20.8875 39.5375V39.825H21.3625V39.5375H20.8875ZM22.0125 39.5375V39.825H22.4875V39.5375H22.0125Z" fill="#383739"/>
<path d="M22.5 39.025H22.9125V39.2125H22.5V39.025ZM22.0625 38.4625H22.4375V38.65H22.0625V38.4625ZM20.9375 38.4625H21.3625V38.65H20.9375V38.4625ZM21.4 39.025H21.775V39.2125H21.4V39.025ZM20.275 39.025H20.65V39.2125H20.325L20.275 39.025ZM20.9375 39.5875H21.3625V39.775H20.9375V39.5875ZM22.0625 39.5875H22.4375V39.775H22.0625V39.5875Z" fill="white"/>
<path d="M20.0375 37.8375V38.4125H19.85L18.9 39.025L17.9625 38.4H17.75V37.8375H17.1875V37.225H17.75V36.6625H17.95L18.8875 36.0375L19.8375 36.6625H20.025V37.225H20.5875V37.8L20.0375 37.8375Z" fill="#383739"/>
<path d="M18.9 38.975L19.75 38.4125H18.05L18.9 38.975ZM19.75 36.625L18.9 36.15L18.05 36.625H19.75Z" fill="#FFC72C"/>
<path d="M20 37.225V36.6625H18.95V37.225H20ZM18.9 37.225V36.6625H17.8125V37.225H18.9ZM20.55 37.8V37.325H19.4625V37.8H20.55ZM19.425 37.8V37.325H18.425V37.8H19.425ZM18.3375 37.8V37.325H17.25V37.8H18.3375ZM19.9875 38.3625V37.8375H18.95V38.3625H19.9875ZM18.9 38.3625V37.8375H17.8125V38.3625H18.9Z" fill="#D22630"/>
<path d="M18.575 36.8V37.0875H18.1V36.85L18.575 36.8ZM19.7 36.8V37.0875H19.25V36.85L19.7 36.8ZM18 37.375V37.7H17.525V37.325L18 37.375ZM19.1375 37.375V37.7H18.6625V37.325L19.1375 37.375ZM20.2625 37.375V37.7H19.8V37.325L20.2625 37.375ZM18.575 37.9875V38.2625H18.1V38L18.575 37.9875ZM19.7 37.9875V38.2625H19.25V38L19.7 37.9875Z" fill="#383739"/>
<path d="M18.525 36.85H18.15V37.0375H18.525V36.85ZM19.65 36.85H19.275V37.0375H19.65V36.85ZM17.9625 37.4125H17.5875V37.6625H17.9625V37.4125ZM19.0875 37.4125H18.7125V37.6625H19.0875V37.4125ZM20.225 37.4125H19.85V37.6625H20.225V37.4125ZM18.525 37.9875H18.15V38.225H18.525V37.9875ZM19.65 37.9875H19.275V38.225H19.65V37.9875Z" fill="white"/>
<path d="M20.0375 41V41.625H19.85L18.9 42.1875L17.9625 41.625H17.75V41H17.1875V40.3875H17.75V39.825H17.95L18.8875 39.2125L19.8375 39.8375H20.025V40.3875H20.5875V41.0125L20.0375 41Z" fill="#383739"/>
<path d="M18.9 42.1375L19.75 41.625H18.05L18.9 42.1375ZM19.75 39.775L18.9 39.3125L18.05 39.775H19.75Z" fill="#FFC72C"/>
<path d="M20 40.3875V39.875H18.95V40.3875H20ZM18.9 40.3875V39.875H17.8125V40.3875H18.9ZM20.55 40.9625V40.4375H19.4625V40.9625H20.55ZM19.425 40.9625V40.4375H18.425V40.9625H19.425ZM18.3375 40.9625V40.4375H17.25V40.9625H18.3375ZM19.9875 41.575V41.0125H18.95V41.575H19.9875ZM18.9 41.575V41.0125H17.8125V41.575H18.9Z" fill="#D22630"/>
<path d="M18.575 39.9625V40.3H18.1V39.9625H18.575ZM19.7 39.9625V40.3H19.25V39.9625H19.7ZM18 40.625V40.9125H17.525V40.625H18ZM19.1375 40.625V40.9125H18.6625V40.625H19.1375ZM20.2625 40.625V40.9125H19.8V40.625H20.2625ZM18.575 41.1V41.3875H18.1V41.1H18.575ZM19.7 41.1V41.3875H19.25V41.1H19.7Z" fill="#383739"/>
<path d="M18.525 40.0125H18.15V40.2625H18.525V40.0125ZM19.65 40.0125H19.275V40.2625H19.65V40.0125ZM17.9625 40.6375H17.5875V40.825H17.9625V40.6375ZM19.0875 40.6375H18.7125V40.825H19.0875V40.6375ZM20.225 40.6375H19.85V40.825H20.225V40.6375ZM18.525 41.2H18.15V41.3875H18.525V41.2ZM19.65 41.2H19.275V41.3875H19.65V41.2Z" fill="white"/>
<path d="M12.75 47.95L17 45.6875H20.7875L25.0375 47.95V51.6875L20.7875 53.9H17.0125L12.7625 51.6875L12.75 47.95Z" fill="#383739"/>
<path d="M17 45.7375L12.8 47.95V51.6375L17.0125 53.9H20.7875L25 51.6375V47.95L20.8375 45.75L17 45.7375ZM17.0625 46.0125H20.7875L24.7625 48.1375V51.45L20.7875 53.575H17.1L13.1375 51.45V48.125L17.0625 46.0125Z" fill="#00843D"/>
<path d="M18.9 49.8V53.575H20.7875L24.7125 51.45V49.8375H18.9V46.0625H17.0125L13.0875 48.1375V49.8H18.9Z" fill="#FFC72C"/>
<path d="M18.9 49.8V53.575H17.0125L13.0875 51.45V49.8375H18.9V46.0625H20.7875L24.7125 48.1375V49.8H18.9Z" fill="white"/>
<path d="M19.2375 53.3375V52.25L18.9 52.5L18.575 52.25V53.3375H17.4375L18.1875 52.775V52.025L17.0625 51.3125H16.3125V48.2875H17.0125L18.1375 47.575V46.825L17.5 46.25H18.625V47.3375L18.9625 47.15L19.2875 47.3375V46.3H20.425L19.675 46.8625V47.6125L20.8 48.325H21.6125V51.35H20.8L19.675 52.0625V52.8125L20.425 53.3875L19.2375 53.3375Z" fill="#383739"/>
<path d="M19.275 46.3V47.425L18.9 47.2V47.525L20.65 48.6125H21.2125V49.8H21.5V48.375H20.75L19.5625 47.625V46.775L20.225 46.3H19.275ZM16.35 49.8375V51.2625H17.0125L18.1875 52.0125V52.825L17.525 53.2875H18.475V52.1625L18.85 52.3875V52.0625L17.1 50.975H16.5375V49.85L16.35 49.8375Z" fill="#FFC72C"/>
<path d="M17.575 46.3L18.2375 46.775V47.625L17.0625 48.325H16.35V49.75H16.5875V48.6625H17.15L18.9 47.575V47.25L18.525 47.475V46.3H17.575ZM21.2125 49.8375V50.975H20.65L18.9 52.0625V52.3875L19.275 52.1625V53.2875H20.225L19.5625 52.825V51.9625L20.75 51.2125H21.5V49.8L21.2125 49.8375Z" fill="white"/>
<path d="M16.625 50.925H17.15L18.9 52.0625L20.65 50.9375H21.175V48.6625H20.65L18.9 47.575L17.15 48.6625H16.675L16.625 50.925Z" fill="#D22630"/>
<path d="M20.0875 50.3625H20.4625V50.175H20.175V49.8375H20.8V50.65H20.225V51.2125H19.0375V50.4125H19.5625V50.7375H19.375V50.8875H19.85V50.6L17.675 49.275H17.3V49.4125H17.575V49.75H17.0125V48.95H17.575V48.375H18.7625V49.175H18.2875V48.85H18.425V48.7125H17.9625V48.9875L20.0875 50.3625ZM19.8875 48.9875V48.7125H19.375V48.85H19.5625V49.175H19.0375V48.375H20.225V48.95H20.7875V49.75H20.175V49.4125H20.4625V49.275H20.0875L17.9625 50.55V50.8375H18.425V50.6875H18.25V50.375H18.775V51.175H17.5875V50.6125H17.025V49.8125H17.6375V50.1375H17.35V50.325H17.725L19.8875 48.9875Z" fill="#383739"/>
<path d="M19.9375 50.55V50.925H19.375V50.6875H19.5625V50.4625H19.1375V51.1625H20.225V50.6H20.7875V49.875H20.325V50.125H20.55V50.4H20.125L17.9125 48.975V48.65H18.525V48.8875H18.3375V49.125H18.8125V48.4125H17.675V48.975H17.1V49.6875H17.575V49.45H17.3375V49.2125H17.7625L19.9375 50.55ZM20.0875 49.225H20.55V49.475H20.225V49.7H20.7875V49H20.225V48.4375H19.1375V49.15H19.5625V48.9H19.375V48.675H20V49.05L17.7625 50.425H17.3375V50.125H17.625V49.8875H17.15V50.6H17.675V51.1625H18.7625V50.4625H18.3375V50.6875H18.525V50.9375H17.9V50.5625L20.0875 49.225Z" fill="white"/>
<path d="M23.8125 49.9875V51.1625H23.3375V50.75H22.825V51.175H22.3V50H22.775V50.425H23.3V50L23.8125 49.9875ZM22.025 51.5375V52.725H21.55V52.3H21.025V52.725H20.55V51.5375H21.025V51.9625H21.5V51.5375H22.025ZM23.8125 49.6625V48.425H23.3375V48.85H22.825V48.425H22.3V49.6125H22.775V49.175H23.3V49.65L23.8125 49.6625ZM13.9875 49.9875V51.1625H14.4625V50.75H14.975V51.175H15.5V50H15.025V50.425H14.5125V50L13.9875 49.9875ZM13.9875 49.6125V48.425H14.4625V48.85H14.975V48.425H15.5V49.6125H15.025V49.175H14.5125V49.65L13.9875 49.6125ZM22.025 48.05V46.8625H21.55V47.2875H21.025V46.875H20.55V48.0625H21.025V47.625H21.5V48.1L22.025 48.05ZM15.775 51.55V52.725H16.25V52.3H16.775V52.725H17.3V51.5375H16.825V51.9625H16.3V51.5375L15.775 51.55ZM15.775 48.05V46.8625H16.25V47.2875H16.775V46.875H17.3V48.0625H16.825V47.625H16.3V48.1L15.775 48.05ZM22.3 47.25V48.1375H23.9625L22.3 47.25ZM15.5 52.375V51.4375H13.85L15.5 52.375ZM15.5 47.1875V48.125H13.85L15.5 47.1875ZM22.3 52.375V51.4375H23.9625L22.3 52.375Z" fill="#383739"/>
<path d="M23.3375 50.6875V51.1625H23.7625V50.0375H23.3375V50.4625H22.775V50.0375H22.3V51.1125H22.775V50.6875H23.3375ZM21.55 52.25V52.725H21.975V51.6H21.55V52.0125H20.975V51.5875H20.55V52.675H20.975V52.25H21.55ZM23.3375 48.9V48.475H23.7625V49.5625H23.3375V49.125H22.775V49.6H22.3V48.4625H22.775V48.8875L23.3375 48.9ZM14.4625 50.6875V51.1625H14.0375V50.0375H14.4625V50.4625H15.025V50.0375H15.5V51.1125H15.025V50.6875H14.4625ZM14.4625 48.9V48.475H14.0375V49.5625H14.4625V49.125H15.025V49.6H15.5V48.4625H15.025V48.8875L14.4625 48.9ZM21.55 47.3375V46.9125H21.975V48H21.55V47.575H20.975V48.05H20.55V46.925H20.975V47.3375H21.55ZM16.25 52.25V52.725H15.825V51.6H16.25V52.0125H16.825V51.5875H17.3V52.675H16.825V52.25H16.25ZM16.25 47.3375V46.9125H15.825V48H16.25V47.575H16.825V48.05H17.3V46.925H16.825V47.3375H16.25Z" fill="#D22630"/>
<path d="M22.35 47.2875V48.1H23.7625L22.35 47.2875ZM13.9875 51.5375L15.4 52.2875V51.5375H13.9875Z" fill="#FFC72C"/>
<path d="M15.45 47.2875L14.0375 48.1H15.45V47.2875ZM22.35 51.5375V52.2875L23.7625 51.5375H22.35Z" fill="white"/>
<path d="M25.7 53.1C25.6125 53.4375 25.325 53.675 25.275 54.05C25.15 53.675 25.05 53.3375 25.15 52.9625C25.15 52.675 25.425 52.4875 25.475 52.1625C25.7 52.3875 25.75 52.725 25.7 53.1ZM25.75 54.525C25.5298 54.8258 25.2375 55.0665 24.9 55.225C24.95 54.95 24.8125 54.75 24.6625 54.525C24.525 54.275 24.425 54.05 24.575 53.7125C24.6346 53.8642 24.7145 54.0072 24.8125 54.1375C24.95 54.325 25.0875 54.5125 25.0875 54.8C25.275 54.6625 25.3375 54.475 25.425 54.2875C25.5754 54.0059 25.806 53.7754 26.0875 53.625C25.9875 53.95 25.9375 54.2375 25.75 54.525ZM24.525 55.4625L24.575 55.9375L25.0875 55.5625C25.3375 55.3125 25.6125 55.225 25.8 54.9375C25.7939 55.1131 25.748 55.2851 25.6658 55.4409C25.5836 55.5966 25.4671 55.7322 25.325 55.8375L24.3875 56.4625C24.3875 56.125 24.2875 55.8375 24.1375 55.5125C24.1153 55.3766 24.1265 55.2373 24.17 55.1066C24.2135 54.976 24.2882 54.8579 24.3875 54.7625C24.3875 54.9875 24.425 55.225 24.525 55.4125V55.4625ZM23.8125 56.55L23.4375 57.2125C23.7625 57.1125 24.0625 56.925 24.3875 56.7375C24.7125 56.55 25.0875 56.4625 25.425 56.175C25.275 56.7875 24.85 57.1125 24.3 57.3C23.9125 57.4 23.5375 57.35 23.05 57.55C23.1134 57.2179 23.2272 56.8976 23.3875 56.6L23.725 55.9375C23.8125 56.125 23.8625 56.3125 23.8125 56.5625V56.55ZM22.5875 57.45C22.4672 57.6418 22.3049 57.8041 22.1125 57.925C22.5875 57.925 22.9625 57.675 23.4375 57.6375C23.725 57.6375 24 57.7375 24.2875 57.6875C23.9625 57.925 23.575 58.1625 23.1625 58.1625C22.6375 58.25 22.1125 58.1625 21.5375 58.1625C21.825 57.9625 21.975 57.6875 22.1125 57.45C22.3625 57.075 22.5875 56.825 23.0125 56.7875C22.825 56.975 22.725 57.2625 22.5875 57.45ZM20.9375 58.2C21.7375 58.35 22.5375 58.5375 23.3875 58.5375C22.4985 58.908 21.5017 58.9258 20.6 58.5875C20.125 58.4375 19.7 58.3 19.325 58.3375C18.8125 58.3375 18.1 58.625 17.3375 59.3875L17.0625 59.15C18.15 58.2 19.5625 57.9625 20.9375 58.2Z" fill="#FFC72C"/>
</g>
<defs>
<clipPath id="clip0_84_629">
<rect width="80" height="60" fill="white"/>
</clipPath>
</defs>
</svg>
