<svg width="80" height="60" viewBox="0 0 80 60" fill="none" xmlns="http://www.w3.org/2000/svg">
<g clip-path="url(#clip0_84_951)">
<mask id="mask0_84_951" style="mask-type:luminance" maskUnits="userSpaceOnUse" x="0" y="0" width="80" height="60">
<path d="M0 0H80V60H0V0Z" fill="white"/>
</mask>
<g mask="url(#mask0_84_951)">
<path d="M0 0H80V60H0V0Z" fill="white"/>
<path fill-rule="evenodd" clip-rule="evenodd" d="M-10 0V4L33.8 30L-9.8 56V60H-3.4L40.2 34L83.6 60H90V56L46.6 30L90.2 4V0H83.6L40 26L-3.4 0H-9.8H-10Z" fill="#DF112D"/>
<path d="M45.2 9.00006C46.6 14.2001 45.8 20.6001 40 24.2001C34.2 20.6001 33.4 14.2001 34.8 9.00006C36.2 7.80006 42.4 7.00006 45.2 9.00006Z" fill="#E8112D"/>
<path d="M40 8.00002C42 8.00002 43.6 8.40002 45.2 9.20002C45.488 7.46731 46.1724 5.82458 47.2 4.40002C46.2 4.40002 45.8 4.80002 45.8 5.40002C45.6 4.80002 44.6 4.80002 44.2 5.20002C45.4 5.80002 44.6 7.20002 43.6 7.00002C43 6.80002 42.8 6.40002 42.8 6.00002C42.9483 5.97495 43.0818 5.89506 43.174 5.7762C43.2663 5.65733 43.3105 5.50816 43.2979 5.35824C43.2853 5.20832 43.2169 5.0686 43.1061 4.96677C42.9954 4.86493 42.8504 4.80842 42.7 4.80842C42.5495 4.80842 42.4046 4.86493 42.2938 4.96677C42.1831 5.0686 42.1147 5.20832 42.1021 5.35824C42.0895 5.50816 42.1337 5.65733 42.2259 5.7762C42.3181 5.89506 42.4516 5.97495 42.6 6.00002C42.2307 6.37685 41.7275 6.59251 41.2 6.60002C40.9703 6.49142 40.7745 6.32236 40.6336 6.11096C40.4926 5.89957 40.4119 5.65381 40.4 5.40002C40.4 4.40002 41.6 4.20002 41.8 4.40002C41.8 3.80002 40.6 3.00003 40.4 3.80002C40.6065 3.41167 40.6792 2.96607 40.6069 2.5322C40.5346 2.09834 40.3213 1.70041 40 1.40002C39.7218 1.68519 39.5351 2.04694 39.4638 2.4389C39.3925 2.83087 39.44 3.23519 39.6 3.60003C39.2 3.00003 38.2 3.60002 38.2 4.40002C38.4 4.20002 39.4 4.40002 39.4 5.40002C39.4 5.80002 39.4 6.40002 38.8 6.40002C38.555 6.49604 38.2853 6.50889 38.0324 6.43662C37.7794 6.36434 37.5572 6.21094 37.4 6.00002L37.8 5.80002C37.9144 5.73398 38.0038 5.63205 38.0543 5.51002C38.1048 5.38799 38.1137 5.2527 38.0795 5.12512C38.0453 4.99754 37.97 4.8848 37.8652 4.8044C37.7604 4.72399 37.6321 4.68041 37.5 4.68041C37.3679 4.68041 37.2395 4.72399 37.1347 4.8044C37.0299 4.8848 36.9546 4.99754 36.9204 5.12512C36.8862 5.2527 36.8951 5.38799 36.9456 5.51002C36.9962 5.63205 37.0856 5.73398 37.2 5.80002C37.2 6.40002 36.8 6.80002 36.4 6.80002C36.1901 6.80002 35.9855 6.73399 35.8153 6.61127C35.645 6.48855 35.5177 6.31536 35.4513 6.11625C35.3849 5.91714 35.3829 5.70219 35.4455 5.50186C35.508 5.30152 35.6321 5.12595 35.8 5.00002C35.4 4.60002 34.4 4.60002 34.2 5.40002C34.2 4.80002 33.8 4.40002 32.6 4.40002C33.6275 5.82458 34.312 7.46731 34.6 9.20002C36.262 8.32912 38.1255 7.91502 40 8.00002Z" fill="#F9DD16"/>
<path d="M44.6 13.2H44.2H44.8C45 13.2 45.2 13 45 12.8H45.4L45 12.4H45.4L45 12H45.2C45.1649 11.9392 45.1464 11.8702 45.1464 11.8C45.1464 11.7298 45.1649 11.6608 45.2 11.6H43.8L42.8 11.4L44 10.8C44 10.4 43.4 9.80003 42.4 10.2L40.2 10L41.6 9.60003L43.2 9.40003H41.8C41.2 9.40003 39.8 9.20003 39.8 10C39.8 10.8 41.2 10.6 42.6 10.4L43.8 10.6L42.6 11C42.0078 10.8633 41.3922 10.8633 40.8 11H39.4C39 11 38.4 11 38 10.6C38 10.6 37.2 11 37.2 11.4V12C37.6 12.4 37.2 12.2 36.8 12.2L35.8 12C35.6 11.6 35.4 11.4 35 11.6V12H35.4C35.3392 11.9649 35.2702 11.9464 35.2 11.9464C35.1298 11.9464 35.0608 11.9649 35 12V12.4H35.6H35.2V12.6H36C35.8939 12.6 35.7922 12.6422 35.7172 12.7172C35.6421 12.7922 35.6 12.8939 35.6 13C35.8 12.8 36 13 36.4 13L36 13.2C36.2 13.2 37.4 13.4 37.4 13V13.2C37.4 13.2 38 13.2 38 12.8V13.2C38 13.2 38.4 13.2 38.6 12.8V12.4H39.6C40 12 40.2 12.4 40.4 12.2H40.8C41 12.2 41.2 12.2 41.4 11.8C41.8 12 42.4 12.2 43.6 12C44.2 12 44.6 12.2 44.6 12.6H43.6C43.6 12.6 43.4 12.8 43.6 13C43.8 13.2 43.6 13 43.8 13C43.8 13 43.6 13.2 43.8 13.4L44.4 13.2H44.6ZM36.6 9.80003V10L36.8 10.4L37 9.80003H36.6Z" fill="#F9DD16"/>
<path d="M38 10C38.2 9.80005 38.4 9.80005 38.4 10L38.2 10.4L38 9.80005V10Z" fill="#F9DD16"/>
<path d="M37.4 9.59998C38 9.59998 38.2 9.99998 38.2 10.4L37.8 11.2L37.4 11.4L37 11.2C37 10.6 36.6 10.8 36.6 10.4C36.6 9.99998 36.6 9.59998 37.4 9.59998Z" fill="#F9DD16"/>
<path d="M35.8 11.2001H35.4C35.6 11.2001 35.6 11.6001 36.2 11.6001H35.8C36 11.6001 36.2 12.0001 36.8 12.0001C36.8 12.2001 37.2 12.0001 37.4 12.4001C37.4 12.2001 37 11.8001 37.4 11.4001C36.6 11.4001 36.4 11.0001 36.2 10.8001C35.8 10.6001 35.8 10.2001 35.6 9.80007C35.6 9.80007 35.4 9.40007 35.2 9.60007V10.0001H35C35.2 10.0001 35 10.4001 35.4 10.6001C35.2 10.4001 35 10.2001 34.8 10.4001H35L35.8 11.2001ZM41 13.2001H42L42.4 13.0001V12.6001C42.2 12.6001 42 12.4001 42.2 12.2001C41.6 11.4001 40.4 11.8001 40.4 12.2001L41.2 12.6001H41.4H40L40.2 12.8001L39.8 13.0001C39.8 13.4001 40.2 13.0001 40.2 13.0001V13.2001C40.2 13.2001 40.2 13.4001 40.4 13.2001C40.5294 13.1543 40.6706 13.1543 40.8 13.2001H41Z" fill="#F9DD16"/>
<path d="M37.4 11.2H37.6V10.8H37V11L37.4 11.2Z" fill="#FF0016"/>
<path d="M35.2 9.6C35.2 9.4 34.8 9.6 34.8 9.6H35.2ZM35.2 9.8L34.6 10H35L35.2 9.8ZM35.2 10.4H34.6H35H35.2ZM35.2 11.8C35 11.8 34.8 11.8 34.8 12.2C34.8 12 35 12.2 35.2 12.2V11.8ZM35.2 12.2L34.8 12.6L35.2 12.4V12V12.2ZM35.2 12.4C35.2 12.4 35 12.6 35.2 12.8V12.2V12.4ZM40.2 13C40 13 39.8 13 39.8 13.4L40.2 13.2V13ZM40.4 13C40.2 13 40 13.4 40.2 13.6L40.4 13.4V13.2V13ZM40.4 12.6C40 12.6 39.8 12.6 39.8 13L40.2 12.8L40.4 12.6ZM43.6 13C43.6 13 43.2 13.2 43.4 13.4L43.6 13.2V13ZM43.6 12.8L43.2 13H43.6V12.4V12.8ZM43.6 13.2C43.6 13.2 43.4 13.6 43.6 13.6H43.8V13L43.6 13.2ZM37.6 11.2V12C37.2 12 37.2 12 37.2 11.6V11.2H37.4H37.6Z" fill="#0051BA"/>
<path d="M43.8 17.4H44.2C44.2 17.4 44.4 17.4 44.2 17.2H44.6L44.4 16.8H44.6L44.4 16.4C44.3649 16.3392 44.3464 16.2703 44.3464 16.2C44.3464 16.1298 44.3649 16.0609 44.4 16H43.4L42.4 15.8C43 16 43.6 15.6 43.6 15.2C43.6 14.8 43 14.4 42.2 14.8L40 14.6L41.2 14.2H42.8L41.4 14C40.8 13.8 39.6 14 39.6 14.6C39.6 15.2 41 15.2 42.2 15H43.2L42.2 15.4C41.6734 15.28 41.1265 15.28 40.6 15.4L39.2 15.6C39 15.6 38.4 15.6 38 15.2L37.2 15.8L37.4 16.6C37.6 16.8 37.4 16.6 37 16.6H36C36 16.2 35.6 16 35.4 16.2V16.4H35.8C35.7392 16.3649 35.6702 16.3465 35.6 16.3465C35.5297 16.3465 35.4608 16.3649 35.4 16.4V16.8H35.8H35.6C36 16.8 36 17.2 36.2 17C36.1344 16.9831 36.0656 16.9831 36 17C36 17 36.4 17.4 36.6 17.2L36.4 17.6C36.4 17.4 37.6 17.6 37.6 17.2V17.6C37.6 17.6 38 17.6 38.2 17.2H38.6V16.8H39L39.6 16.6H40.6C40.8 16.6 41 16.6 41.2 16.2C41.6 16.4 42 16.6 43.2 16.4C43.6 16.4 43.8 16.4 43.8 16.8V17H43V17.4C43 17.6 43.2 17.4 43.4 17.4C43.2 17.4 43 17.4 43.2 17.6H43.4L43.8 17.4ZM37 14.4H36.6L36.8 15L37 14.4Z" fill="#F9DD16"/>
<path d="M37.9999 14.4H38.3999L38.1999 15L37.9999 14.4Z" fill="#F9DD16"/>
<path d="M37.5999 14.2001C38.1999 14.2001 38.1999 14.6001 38.1999 15.0001C38.1999 15.4001 37.9999 15.0001 37.7999 15.6001L37.3999 15.8001H37.1999C37.1999 15.2001 36.7999 15.2001 36.7999 15.0001C36.7999 14.8001 36.7999 14.2001 37.5999 14.2001Z" fill="#F9DD16"/>
<path d="M36 15.6001H35.8C35.8 15.6001 35.8 16.0001 36.4 16.0001H36L36.8 16.4001L37.6 16.8001C37.6 16.4001 37.1999 16.2001 37.4 15.8001C36.8 15.8001 36.6 15.4001 36.4 15.2001C36 15.2001 36 14.8001 36 14.4001L35.6 14.2001V14.6001H35.4L35.6 15.0001H35.2C35.6 15.0001 35.8 15.6001 36 15.6001ZM40.8 17.4001H40.6H42.2V17.0001C42 17.0001 41.8 16.8001 42 16.4001C41.4 15.8001 40.4 16.2001 40.4 16.4001L41.2 16.8001C41.2 16.8001 41.6 16.8001 41.2 17.0001H40.8C40.4 17.0001 40.2 16.8001 40 17.0001V17.4001H40.2C40.2 17.4001 40.2 17.6001 40.4 17.4001C40.5294 17.3543 40.6705 17.3543 40.8 17.4001Z" fill="#F9DD16"/>
<path d="M37.6 15.6001C37.6 15.6001 37.8 15.4001 37.6 15.2001C37.6 15.4001 37.8 15.4001 37.6 15.2001C37.6 15.4001 37.2 15.4001 37.2 15.2001V15.6001H37.6Z" fill="#FF0016"/>
<path d="M37.4 15.4001L37 15.2001L37.4 15.4001ZM37.4 15.2001H37H37.4ZM37.4 15.2001L37 15.4001L37.4 15.2001ZM37.6 15.4001L38 15.2001L37.6 15.4001ZM37.6 15.2001H38H37.6ZM37.6 15.2001L38 15.4001L37.6 15.2001Z" fill="black"/>
<path d="M35.6 14L35.2 14.2H35.6V14ZM35.6 14.4L35 14.6H35.4L35.6 14.4ZM35.4 15C35.4 14.8 35 15 35 15H35.4ZM35.4 16.2L35 16.4H35.6L35.4 16.2ZM35.4 16.6C35.4 16.6 35 16.6 35.4 17V16.6ZM35.8 16.6L35.4 17.2L35.8 17V16.8V16.6ZM39.8 17.2C39.8 17.2 39.6 17.2 39.8 17.6L40 17.4V17.2H39.8ZM40.2 17.4C40.2 17.4 39.8 17.6 40 17.8L40.2 17.6V17.4ZM40.2 16.8C40 16.8 39.6 17 39.8 17.2H40V17L40.2 16.8ZM43 17.4C43 17.4 42.8 17.4 43 17.6V17.2V17.4ZM43 17L42.8 17.2H43.2V17H43ZM43.2 17.6C43.2 17.6 43 17.6 43.2 17.8V17.6ZM37.6 15.6V16.4V16C37.6 15.8 37.6 15.6 37.4 15.8V15.6H37.6Z" fill="#0051BA"/>
<path d="M43.796 20.86C43.684 20.86 43.684 21.01 43.656 21.01C43.88 21.01 43.992 20.92 44.048 20.8V20.98C44.216 20.92 44.272 20.77 44.216 20.68L44.412 20.74C44.3 20.65 44.384 20.44 44.188 20.32C44.244 20.32 44.356 20.38 44.412 20.47C44.384 20.26 44.356 20.14 44.188 20.02H44.328C44.2914 19.9939 44.2618 19.958 44.2422 19.9159C44.2225 19.8738 44.2135 19.827 44.216 19.78C44.216 19.66 44.16 19.66 44.048 19.69L43.544 19.72C43.264 19.72 42.984 19.72 42.76 19.54C43.124 19.72 43.6 19.36 43.6 19.09C43.6 18.79 43.208 18.49 42.48 18.67C41.752 18.85 40.856 18.79 40.856 18.52C40.856 18.25 41.5 18.22 41.836 18.28C42.172 18.34 42.396 18.37 43.012 18.13C42.872 18.19 42.368 18.22 41.976 18.1C41.584 17.98 40.632 17.98 40.632 18.52C40.632 19.09 41.64 19.03 42.536 18.88C43.04 18.82 43.32 18.88 43.32 19.03C43.32 19.21 42.844 19.27 42.48 19.24C42.0956 19.1845 41.7047 19.2151 41.332 19.33C40.968 19.45 40.716 19.33 40.324 19.42C40.128 19.42 39.652 19.42 39.428 19C39.288 19.12 38.868 19.33 38.784 19.57C38.7 19.75 38.784 19.96 38.896 20.17C39.064 20.41 38.812 20.38 38.616 20.38C38.392 20.38 38.056 20.38 37.888 20.14C37.72 19.96 37.524 19.81 37.356 19.93C37.272 20.02 37.356 20.11 37.412 20.08L37.636 20.14C37.591 20.1181 37.5414 20.1093 37.4922 20.1145C37.443 20.1198 37.396 20.1389 37.356 20.17C37.272 20.23 37.356 20.35 37.44 20.32C37.496 20.29 37.636 20.26 37.72 20.32C37.636 20.32 37.524 20.32 37.496 20.38C37.468 20.44 37.496 20.5 37.58 20.5C37.748 20.5 37.776 20.62 37.944 20.59C37.9048 20.5923 37.8668 20.6043 37.8327 20.6251C37.7987 20.646 37.7697 20.675 37.748 20.71C37.916 20.62 38.056 20.83 38.252 20.77C38.196 20.8 38.056 20.89 38.056 20.95C38.168 20.8 38.952 21.07 38.952 20.74L38.924 20.98C39.008 20.92 39.316 20.89 39.428 20.68C39.428 20.74 39.428 20.83 39.372 20.86C39.456 20.86 39.596 20.8 39.736 20.59C39.792 20.5 39.792 20.44 39.792 20.38C39.932 20.38 40.016 20.35 40.128 20.26C40.24 20.17 40.352 20.35 40.548 20.2C40.716 20.08 40.884 20.2 40.996 20.14C41.08 20.08 41.22 20.14 41.332 20.08C41.444 20.02 41.612 20.11 41.78 19.96C42.06 20.08 42.424 20.26 43.236 20.11C43.684 20.02 43.852 20.2 43.852 20.41C43.852 20.59 43.74 20.59 43.684 20.59C43.404 20.62 43.32 20.5 43.208 20.53C43.152 20.56 43.096 20.68 43.208 20.74C43.124 20.77 43.124 20.86 43.18 20.89C43.236 20.92 43.32 20.89 43.404 20.86C43.292 20.89 43.208 20.98 43.264 21.07C43.292 21.13 43.376 21.16 43.46 21.07C43.544 20.95 43.684 20.86 43.796 20.86ZM38.588 18.46C38.364 18.37 38.308 18.37 38.336 18.58C38.336 18.67 38.42 18.79 38.476 18.85C38.476 18.76 38.504 18.55 38.588 18.49V18.46Z" fill="#F9DD16" stroke="black" stroke-width="0.0289828"/>
<path d="M39.344 18.49C39.568 18.37 39.652 18.37 39.596 18.58C39.596 18.67 39.512 18.79 39.456 18.85C39.456 18.76 39.456 18.55 39.344 18.49Z" fill="#F9DD16" stroke="black" stroke-width="0.0289828"/>
<path d="M38.98 18.34C39.428 18.34 39.484 18.58 39.456 18.85C39.456 19.15 39.316 19.03 39.232 19.45C39.204 19.57 39.092 19.6 38.952 19.6C38.868 19.6 38.756 19.6 38.7 19.42C38.616 19.03 38.476 19.12 38.476 18.82C38.476 18.58 38.532 18.34 38.98 18.34Z" fill="#F9DD16" stroke="black" stroke-width="0.0289828"/>
<path d="M37.832 19.45C37.72 19.39 37.636 19.45 37.58 19.45C37.748 19.48 37.748 19.69 38.084 19.75C38 19.75 37.972 19.81 37.888 19.75C38.028 19.87 38.168 20.02 38.504 20.02C38.7 20.02 38.56 20.11 38.448 20.05C38.56 20.2 38.812 20.08 38.98 20.35C38.98 20.14 38.7 19.84 38.84 19.63C38.364 19.6 38.336 19.33 38.084 19.12C37.86 18.94 37.832 18.76 37.748 18.43C37.72 18.28 37.552 18.19 37.468 18.22C37.384 18.22 37.328 18.31 37.412 18.37C37.468 18.43 37.58 18.43 37.58 18.58C37.496 18.46 37.356 18.43 37.3 18.49C37.272 18.55 37.3 18.64 37.356 18.64C37.496 18.64 37.412 18.82 37.552 18.94C37.412 18.79 37.3 18.76 37.216 18.85C37.188 18.91 37.216 19 37.328 19C37.468 19 37.608 19.36 37.832 19.45ZM41.472 20.83C41.416 20.83 41.444 20.98 41.332 20.98C41.556 20.98 41.696 20.92 41.78 20.83L41.724 20.98C41.836 20.89 42.144 20.86 42.284 20.89C42.424 20.92 42.452 20.86 42.508 20.77C42.564 20.65 42.508 20.59 42.424 20.53C42.34 20.44 42.312 20.32 42.34 20.14C41.948 19.54 41.22 19.84 41.22 20.08C41.472 20.41 41.5 20.38 41.724 20.41C41.92 20.47 42.06 20.47 41.92 20.59C41.864 20.65 41.64 20.59 41.5 20.62C41.136 20.62 40.94 20.35 40.856 20.5C40.772 20.62 40.856 20.68 41.024 20.68C40.912 20.68 40.744 20.68 40.772 20.8C40.828 21.01 40.996 20.77 41.08 20.83C41.024 20.83 40.912 20.86 40.912 20.92C40.912 20.98 41.052 21.07 41.192 20.92C41.2733 20.8573 41.3719 20.8256 41.472 20.83Z" fill="#F9DD16" stroke="black" stroke-width="0.0289828"/>
<path d="M41.78 19.96C41.668 19.9 41.528 19.87 41.388 19.9M39.82 19.9C39.708 20.14 39.764 20.26 39.792 20.38M38.672 18.7C38.728 18.76 38.784 18.64 38.896 18.76M38.896 18.76C38.868 18.73 38.812 18.85 38.728 18.76M38.896 18.76V18.85C38.868 19.06 38.812 19.15 38.952 19.15C39.12 19.15 39.064 19.06 39.036 18.85V18.76M39.288 18.73C39.204 18.73 39.148 18.64 39.036 18.76M39.036 18.76C39.064 18.73 39.12 18.85 39.204 18.76" stroke="black" stroke-width="0.0289828"/>
<path d="M38.98 19.51C39.092 19.51 39.148 19.51 39.148 19.33C39.148 19.27 39.232 19.24 39.176 19.12C39.232 19.24 38.98 19.24 38.98 19.18C38.98 19.24 38.7 19.24 38.756 19.12C38.728 19.24 38.812 19.27 38.784 19.33C38.784 19.51 38.84 19.51 38.98 19.51Z" fill="#FF0016" stroke="black" stroke-width="0.0289828"/>
<path d="M38.84 19.1501L38.56 19.0601L38.84 19.1501ZM38.84 19.1501H38.56H38.84ZM38.84 19.1801L38.588 19.2701L38.84 19.1801ZM39.064 19.1501L39.344 19.0601L39.064 19.1501ZM39.064 19.1501H39.4H39.064ZM39.064 19.1801L39.344 19.2701L39.064 19.1801Z" fill="black"/>
<path d="M38.56 19.0601L38.84 19.1501H38.56M38.84 19.1801L38.588 19.2701M39.344 19.0601L39.064 19.1501H39.4M39.064 19.1801L39.344 19.2701" stroke="black" stroke-width="0.0289828"/>
<path d="M36.6 19H36.2H36.4H36.6ZM36.6 20.2C36.6 20 36.4 20.2 36.4 20.2H36.6ZM36.6 20.2C36.6 20.2 36.4 20.6 36.6 20.6V20.4V20.2ZM40 20.8C40 20.8 39.6 21 39.8 21.2V20.8H40ZM40 21V21.4V21.2V21ZM40 20.6L39.8 20.8H40V20.6ZM42.2 21.2V21.4H42.4V21.2H42.2Z" fill="#0051BA"/>
</g>
</g>
<defs>
<clipPath id="clip0_84_951">
<rect width="80" height="60" fill="white"/>
</clipPath>
</defs>
</svg>
