<svg width="80" height="60" viewBox="0 0 80 60" fill="none" xmlns="http://www.w3.org/2000/svg">
<g clip-path="url(#clip0_2285_3)">
<mask id="mask0_2285_3" style="mask-type:luminance" maskUnits="userSpaceOnUse" x="-1" y="0" width="81" height="60">
<path d="M-0.0109863 0H79.9929V60H-0.0109863V0Z" fill="white"/>
</mask>
<g mask="url(#mask0_2285_3)">
<path fill-rule="evenodd" clip-rule="evenodd" d="M-5.05005 0H85.0437V60H-5.05005V0Z" fill="#FF0000"/>
<path fill-rule="evenodd" clip-rule="evenodd" d="M22.3132 30.5977C23.907 28.6523 27.2234 30.5508 29.9304 29.1563C26.7195 29.332 24.9734 27.6094 22.4421 27.8555C25.0671 26.2383 27.3054 28.3828 30.2351 27.5273C26.3562 27.1992 26.5203 25.4531 22.9812 25.207C26.1218 23.8711 27.6687 26.5898 30.7507 25.9688C27.1179 25.1367 26.6492 23.0039 23.9539 22.5469C27.8914 21.9609 27.6335 24.2813 31.489 24.5625C27.575 22.8867 28.5945 21.4219 25.325 20.1445C28.9929 20.0625 28.7468 22.6055 32.4734 23.2617C29.2859 21.2461 29.6726 19.4063 27.0593 17.9648C30.1648 18.0234 30.4578 21.1992 33.6335 22.1836C30.8093 19.9453 31.5476 18.0469 29.1101 16.043C32.2039 16.7695 31.7468 19.5117 34.9695 21.2695C32.5789 18.6211 33.4929 16.7227 31.4187 14.5547C34.3953 15.5039 33.2585 18.1172 36.3406 20.6016C34.5828 17.6836 35.6726 15.8203 33.9265 13.3711C36.6921 14.7891 35.3562 17.4609 37.9109 20.1094C36.7039 17.1211 37.9109 15.2695 36.6804 12.6211C39.0476 14.3789 37.6414 17.2266 39.5515 19.9453C38.8484 16.1953 40.4656 15.5859 39.9617 12.3047C41.7546 14.5078 39.7507 16.7109 41.1335 19.957C40.9578 16.2656 42.9265 15.4102 42.5867 12.457C44.3562 15.1055 41.5906 17.4141 42.7507 20.25C43.0437 16.7578 45.3406 15.8438 45.3757 13.125C46.782 15.6211 43.7351 17.4258 44.2273 20.7422C45.2234 17.0859 47.6726 16.6406 47.9773 14.1797C48.8093 17.0625 45.4695 18.3984 45.6687 21.6094C46.6648 18.3633 49.7234 17.9766 50.3562 15.5859C50.7429 18.6328 47.7312 19.1836 46.8757 22.5586C48.4578 19.8047 51.2351 19.582 52.4773 17.4023C52.3835 20.4258 48.9851 20.8242 47.9421 23.6484C49.8992 21.2461 52.3601 21.6562 54.3171 19.5352C54.1062 22.2656 50.6492 22.1133 48.8093 24.9375C50.9304 22.9805 54.1296 23.5664 55.7585 21.8789C55.6765 24.293 51.4343 24.1055 49.4304 26.2734C51.8914 24.9141 55.032 25.7109 56.8367 24.457C56.5085 26.5664 52.032 26.0742 49.8875 27.7383C52.8406 26.918 55.1257 28.1719 57.5046 27.2695C56.3445 29.3203 52.2781 28.0195 50.1218 29.3555C52.7 28.9219 55.4187 30.4805 57.7507 29.9766C56.989 31.7578 52.5242 29.8594 50.1335 30.9727C52.9929 30.9492 54.8562 32.7891 57.5164 32.6602C56.075 34.2773 52.1609 32.0625 49.8757 32.4375C52.6648 33.0234 54.7976 35.3203 56.907 35.4375C55.1609 36.7617 51.9265 33.7383 49.2898 34.1133C52.0085 34.8398 54.282 37.9219 55.8289 37.9922C54.1531 39.1406 50.8484 35.3555 48.5867 35.4961C51.3406 36.7383 52.5945 39.8906 54.4109 40.3359C52.1726 41.0508 49.9695 36.9141 47.5671 36.7617C50.3562 38.5195 50.5085 41.2148 52.6531 42.4102C50.3914 42.9609 48.7859 38.2852 46.407 37.8867C48.6921 39.5625 49.0437 43.1602 50.5554 44.2852C48.2585 44.4023 47.4265 39.5156 45.071 38.8125C47.0867 40.5 46.6062 44.1563 48.1765 45.7266C45.7859 45.2227 46.0906 40.9688 43.5945 39.5273C45.3875 41.8008 44.4734 45.0234 45.6453 46.8398C43.3132 45.9023 44.321 42.082 42.1062 39.9258C43.3132 42.3398 42.0125 45.1523 42.9734 47.4844C40.8406 46.4414 42.2703 41.9297 40.6414 40.1367C41.3914 42.9258 40.0085 45.2344 40.571 47.7305C38.3914 45.2109 40.8992 42.668 39.0125 40.1016C39.5046 43.043 37.4421 45.1055 37.7703 47.5664C36.0476 45.5508 38.7078 42.3281 37.3601 39.7852C37.6414 42.6797 34.9812 45.2227 35.1687 47.0508C33.7625 44.707 36.7273 41.9414 35.9304 39.2813C35.7664 42.0469 33.071 43.5469 32.5671 46.0664C31.6648 43.2891 34.864 41.2852 34.5828 38.5547C33.6687 41.1445 31.0671 42.1875 30.1531 44.707C29.4031 41.9297 33.2 40.4648 33.2937 37.5586C32.1218 40.2773 29.0164 40.8867 27.9851 42.9727C27.5984 40.2188 31.946 38.9883 32.1101 36.375C30.7039 38.8828 27.3054 38.9883 26.1335 40.9805C25.9578 38.2383 30.5398 37.8984 31.2546 35.0273C29.8601 37.1602 26.1335 36.8906 24.575 38.625C24.821 36.082 29.7781 35.9297 30.575 33.6328C28.7234 35.4141 25.3015 34.6875 23.3679 36.0938C24.446 33.5859 29.0984 34.1133 30.1414 32.3086C28.0906 33.375 24.446 32.332 22.6414 33.4102C24.282 31.043 27.8914 32.4609 29.9421 30.832C26.614 31.3125 24.6101 29.9883 22.3015 30.5977H22.3132Z" fill="#FFFF00"/>
<path fill-rule="evenodd" clip-rule="evenodd" d="M51.6687 30.0117C51.6687 33.0964 50.4433 36.0548 48.2621 38.236C46.0809 40.4172 43.1225 41.6426 40.0378 41.6426C36.9531 41.6426 33.9948 40.4172 31.8136 38.236C29.6324 36.0548 28.407 33.0964 28.407 30.0117C28.407 26.9286 29.6318 23.9717 31.8119 21.7916C33.992 19.6115 36.9488 18.3867 40.032 18.3867C43.1151 18.3867 46.072 19.6115 48.2521 21.7916C50.4322 23.9717 51.657 26.9286 51.657 30.0117H51.6687Z" fill="#FFFF00"/>
<path fill-rule="evenodd" clip-rule="evenodd" d="M50.1687 30.0352C50.1687 32.7174 49.1032 35.2897 47.2066 37.1863C45.31 39.0829 42.7376 40.1484 40.0554 40.1484C37.3732 40.1484 34.8009 39.0829 32.9042 37.1863C31.0076 35.2897 29.9421 32.7174 29.9421 30.0352C29.9421 27.3529 31.0076 24.7806 32.9042 22.884C34.8009 20.9874 37.3732 19.9219 40.0554 19.9219C42.7376 19.9219 45.31 20.9874 47.2066 22.884C49.1032 24.7806 50.1687 27.3529 50.1687 30.0352Z" fill="#FF0000"/>
<path fill-rule="evenodd" clip-rule="evenodd" d="M48.7625 30.0586C48.7625 32.3616 47.8476 34.5703 46.2191 36.1988C44.5906 37.8273 42.3819 38.7422 40.0789 38.7422C37.7758 38.7422 35.5671 37.8273 33.9386 36.1988C32.3101 34.5703 31.3953 32.3616 31.3953 30.0586C31.3953 27.7556 32.3101 25.5469 33.9386 23.9184C35.5671 22.2899 37.7758 21.375 40.0789 21.375C42.3819 21.375 44.5906 22.2899 46.2191 23.9184C47.8476 25.5469 48.7625 27.7556 48.7625 30.0586Z" fill="#FFFF00"/>
<path fill-rule="evenodd" clip-rule="evenodd" d="M32.6843 24.375C35.0867 24.3164 38.0749 24.5391 40.0554 26.1094C42.1712 24.7889 44.6622 24.2001 47.1453 24.4336L48.4343 26.7891C46.4313 26.6063 44.4147 26.937 42.5749 27.75C43.8898 28.7198 44.947 29.997 45.6538 31.47C46.3607 32.943 46.6957 34.5668 46.6296 36.1992C46.3132 36.5977 45.8093 37.0312 45.4929 37.4297C45.9617 34.0898 44.2039 30.3633 41.6374 28.4062C43.7234 31.4062 44.9539 34.1016 44.614 37.8281L43.4421 38.5781C43.9812 35.2969 43.2078 31.4297 40.782 29.2031C42.1882 31.2539 43.571 34.9453 42.7039 38.6953C42.3289 38.8125 41.7429 39.1289 41.3679 39.2344C41.8273 37.6958 41.9521 36.0768 41.7338 34.486C41.5155 32.8952 40.9592 31.3696 40.1023 30.0117C38.4851 32.332 37.9578 35.8711 38.8718 39.1523C38.4265 39.0352 38.0867 38.8945 37.6296 38.7891C36.9617 35.2734 37.8875 31.2891 39.4929 29.2148C37.8523 30.1641 36.3171 34.2187 36.7507 38.3555L35.6609 37.8516C35.1335 34.7695 36.5281 30.75 38.532 28.4297C36.2585 29.8594 34.407 33.3867 34.7234 37.1719C34.3718 36.8672 34.0554 36.7148 33.7039 36.3984C33.3054 33.0938 35.2273 29.7656 37.4656 27.7734C35.5789 26.918 33.95 26.7539 31.6062 26.7891C31.9695 26.0273 32.3093 25.1367 32.6843 24.3633V24.375Z" fill="#FF0000"/>
</g>
</g>
<defs>
<clipPath id="clip0_2285_3">
<rect width="80" height="60" fill="white"/>
</clipPath>
</defs>
</svg>
