<svg width="80" height="60" viewBox="0 0 80 60" fill="none" xmlns="http://www.w3.org/2000/svg">
<g clip-path="url(#clip0_84_453)">
<path d="M0 39.9625H80V60H0V39.9625Z" fill="#0038A8"/>
<path d="M0 20H80V40H0V20Z" fill="white"/>
<path d="M0 0H80V20H0V0Z" fill="#D52B1E"/>
<path d="M39.9956 37.6728C44.2332 37.6728 47.6684 34.2376 47.6684 30.0001C47.6684 25.7625 44.2332 22.3273 39.9956 22.3273C35.7581 22.3273 32.3229 25.7625 32.3229 30.0001C32.3229 34.2376 35.7581 37.6728 39.9956 37.6728Z" stroke="black" stroke-width="0.200001"/>
<path d="M39.9956 36.3092C43.4801 36.3092 46.3047 33.4845 46.3047 30.0001C46.3047 26.5157 43.4801 23.691 39.9956 23.691C36.5112 23.691 33.6865 26.5157 33.6865 30.0001C33.6865 33.4845 36.5112 36.3092 39.9956 36.3092Z" stroke="black" stroke-width="0.0909094"/>
<path d="M39.9956 34.8365C42.6667 34.8365 44.832 32.6711 44.832 30.0001C44.832 27.329 42.6667 25.1637 39.9956 25.1637C37.3246 25.1637 35.1592 27.329 35.1592 30.0001C35.1592 32.6711 37.3246 34.8365 39.9956 34.8365Z" stroke="black" stroke-width="0.0727275"/>
<path d="M35.9125 32.9625L35.025 33.4875L34.75 33.025C34.7115 32.9628 34.6821 32.8955 34.6625 32.825C34.6484 32.771 34.6528 32.7137 34.675 32.6625C34.7 32.6125 34.7375 32.575 34.8 32.5375C34.85 32.5125 34.8875 32.5 34.9375 32.5C34.9847 32.4969 35.0319 32.5055 35.075 32.525L35.175 32.6V32.4375L35.2125 32.375L35.4 32.0875L35.575 32.4L35.4 32.7L35.3625 32.8L35.375 32.875L35.3875 32.9L35.7625 32.6875L35.9125 32.9625ZM35.225 33L35.15 32.875L35.1 32.8125C35.0917 32.8044 35.082 32.798 35.0712 32.7938C35.0605 32.7895 35.049 32.7873 35.0375 32.7875C35.0158 32.7847 34.9939 32.7891 34.975 32.8L34.925 32.875C34.925 32.9 34.9375 32.9375 34.975 32.9875L35.0375 33.1125L35.225 33ZM34.3875 32.3125L34.1125 31.5L34.325 31.425L34.4875 31.9375L34.65 31.8875L34.4875 31.4125L34.6875 31.35L34.85 31.8125L35.0375 31.75L34.8625 31.225L35.0875 31.1625L35.3625 31.9875L34.3875 32.3125ZM34.025 31.1L33.975 30.575C33.95 30.45 33.975 30.375 34.025 30.3125C34.075 30.2375 34.15 30.2 34.25 30.1875C34.35 30.1875 34.4375 30.2 34.5 30.2625C34.5625 30.3125 34.6 30.4125 34.625 30.5375L34.6375 30.7125L35.0125 30.6625L35.0625 30.9875L34.025 31.1ZM34.4375 30.725L34.425 30.65C34.425 30.5875 34.4 30.55 34.375 30.525C34.3634 30.5142 34.3495 30.5063 34.3342 30.502C34.319 30.4976 34.303 30.4969 34.2875 30.5C34.2571 30.5068 34.2304 30.5246 34.2125 30.55C34.1875 30.5625 34.1875 30.6125 34.1875 30.675L34.2 30.7625L34.4375 30.725ZM34 29.1625L34.0375 28.8375L34.6375 28.9125C34.6983 28.9189 34.7575 28.9358 34.8125 28.9625C34.8625 28.9875 34.9125 29.0125 34.9375 29.0625C34.9875 29.1 35 29.15 35.0125 29.1875C35.0375 29.2625 35.0375 29.3375 35.025 29.425L35 29.5875C34.9875 29.65 34.9625 29.6875 34.9375 29.725C34.886 29.8059 34.8055 29.8641 34.7125 29.8875H34.5375L33.925 29.825L33.9625 29.5125L34.5875 29.575C34.6375 29.575 34.6875 29.575 34.7125 29.55C34.7625 29.525 34.775 29.475 34.7875 29.425C34.7916 29.3801 34.7781 29.3353 34.75 29.3C34.725 29.25 34.675 29.2375 34.625 29.225L34 29.1625ZM34.125 28.4125L34.3375 27.8375C34.3625 27.7375 34.4125 27.675 34.475 27.65C34.5048 27.6322 34.5379 27.6208 34.5724 27.6165C34.6068 27.6121 34.6417 27.6151 34.675 27.625C34.7375 27.65 34.775 27.6875 34.8 27.7375C34.825 27.775 34.8375 27.8125 34.8375 27.8625C34.875 27.8 34.925 27.7625 34.975 27.7375C35.0314 27.7164 35.0936 27.7164 35.15 27.7375C35.1993 27.7535 35.243 27.7832 35.2762 27.823C35.3094 27.8628 35.3306 27.9111 35.3375 27.9625V28.0875L35.3 28.2125L35.1125 28.7375L34.125 28.4125ZM34.625 28.2375L34.675 28.1C34.675 28.05 34.6875 28.0125 34.675 28C34.675 27.975 34.65 27.95 34.625 27.9375C34.6133 27.9319 34.6005 27.9291 34.5875 27.9291C34.5745 27.9291 34.5617 27.9319 34.55 27.9375C34.525 27.9625 34.5 27.9875 34.4875 28.0375L34.4375 28.1625L34.625 28.2375ZM35 28.3625L35.0625 28.2125C35.075 28.1625 35.0875 28.125 35.0625 28.0875C35.0525 28.0653 35.0347 28.0475 35.0125 28.0375C34.9992 28.0298 34.9841 28.0258 34.9687 28.0258C34.9534 28.0258 34.9383 28.0298 34.925 28.0375L34.8625 28.15L34.8125 28.3L35 28.3625ZM34.625 27.1625L34.7875 26.8875L35.4625 27.2875L35.7125 26.8625L35.9375 26.9875L35.5125 27.6875L34.625 27.1625ZM35.25 26.2125L35.45 25.9625L36.25 26.625L36.05 26.875L35.25 26.2125ZM36.6375 25.675L36.9125 25.55C36.95 25.625 36.9625 25.7 36.975 25.7625C36.9783 25.8272 36.9655 25.8916 36.9375 25.95C36.9016 26.0226 36.8504 26.0865 36.7875 26.1375C36.7193 26.2066 36.6324 26.2544 36.5375 26.275C36.4559 26.2993 36.369 26.2993 36.2875 26.275C36.1872 26.2328 36.1007 26.1635 36.0375 26.075C35.9125 25.95 35.8625 25.825 35.875 25.6875C35.882 25.6167 35.9034 25.548 35.9377 25.4857C35.9721 25.4234 36.0188 25.3687 36.075 25.325C36.1559 25.255 36.2562 25.2114 36.3625 25.2C36.45 25.1875 36.55 25.2 36.65 25.2625L36.475 25.5C36.4524 25.4832 36.427 25.4705 36.4 25.4625C36.3712 25.4556 36.3412 25.4556 36.3125 25.4625C36.2838 25.4728 36.2581 25.49 36.2375 25.5125C36.2105 25.5323 36.1893 25.559 36.1761 25.5898C36.1629 25.6205 36.1582 25.6543 36.1625 25.6875C36.1625 25.7375 36.2125 25.8 36.2625 25.8625C36.3375 25.95 36.4 26 36.4625 26.0125C36.5125 26.0125 36.5625 26.0125 36.6125 25.9625C36.6625 25.925 36.6875 25.8875 36.6875 25.8375C36.6875 25.7875 36.675 25.7375 36.6375 25.675ZM37.7375 25.275L37.425 25.45L37.4625 25.625L37.175 25.775L37.025 24.6875L37.3375 24.525L38.1625 25.25L37.8625 25.4125L37.7375 25.275ZM37.575 25.1125L37.3 24.8375L37.375 25.2125L37.575 25.1125ZM38.55 24.05L39.025 23.975C39.0993 23.9602 39.1757 23.9602 39.25 23.975C39.3125 23.9875 39.375 24.0125 39.4125 24.0625C39.45 24.1125 39.5 24.15 39.525 24.2125C39.55 24.2625 39.575 24.3375 39.575 24.4C39.6 24.5125 39.6 24.6 39.5875 24.65C39.576 24.7133 39.5504 24.7731 39.5125 24.825C39.481 24.8724 39.438 24.9111 39.3875 24.9375C39.328 24.9665 39.265 24.9875 39.2 25L38.7375 25.075L38.55 24.05ZM38.9125 24.225L39.0125 24.7875L39.0875 24.775C39.15 24.7625 39.2 24.75 39.2125 24.725C39.25 24.7125 39.2625 24.675 39.275 24.6375V24.4625C39.25 24.35 39.2125 24.2875 39.175 24.25C39.1375 24.2125 39.075 24.2 38.9875 24.2125L38.9125 24.225ZM39.8875 23.875L40.7375 23.9125V24.1375L40.2 24.1125L40.1875 24.275L40.6875 24.3L40.675 24.5125L40.175 24.4875V24.6875L40.725 24.7125L40.7125 24.95L39.8375 24.9125L39.8875 23.875ZM41.1375 23.975L41.4375 24.05L41.25 24.8L41.75 24.925L41.675 25.175L40.8875 24.975L41.1375 23.975ZM42.7875 24.525L43.25 24.8C43.35 24.85 43.4125 24.925 43.425 25C43.45 25.075 43.425 25.1625 43.3875 25.25C43.3663 25.2911 43.3363 25.327 43.2995 25.3551C43.2628 25.3832 43.2202 25.4028 43.175 25.4125C43.1 25.425 43 25.4125 42.8875 25.3375L42.7375 25.25L42.5375 25.575L42.2625 25.4125L42.7875 24.525ZM42.8375 25.075L42.9125 25.1125L43.0375 25.15C43.053 25.1481 43.0679 25.1426 43.0809 25.1339C43.094 25.1252 43.1048 25.1136 43.1125 25.1C43.123 25.0718 43.123 25.0407 43.1125 25.0125C43.1125 24.975 43.0875 24.95 43.0375 24.9125L42.9625 24.875L42.8375 25.075ZM43.7375 26.275L43.475 26.025L43.325 26.1125L43.075 25.9L44.075 25.4L44.325 25.65L43.9 26.6625L43.65 26.4375L43.7375 26.275ZM43.8375 26.0625L44.0125 25.7125L43.675 25.9125L43.8375 26.0625ZM43.9625 26.75L44.825 26.1625L45.1125 26.6L45.2375 26.8125L45.225 26.9625C45.1997 27.0209 45.1557 27.0693 45.1 27.1C45.0625 27.1375 45.0125 27.15 44.975 27.15C44.9236 27.1553 44.8718 27.1466 44.825 27.125C44.8 27.125 44.7625 27.0875 44.725 27.0625L44.75 27.15L44.725 27.225C44.7191 27.2507 44.7107 27.2759 44.7 27.3L44.5375 27.5875L44.3375 27.3L44.5 26.975L44.5375 26.8875C44.5404 26.8562 44.5315 26.825 44.5125 26.8L44.5 26.775L44.15 27.025L43.9625 26.75ZM44.65 26.675L44.7375 26.7875L44.7875 26.8375C44.8125 26.8625 44.825 26.8625 44.85 26.8625C44.8716 26.8653 44.8936 26.8609 44.9125 26.85C44.9238 26.841 44.933 26.8296 44.9395 26.8166C44.946 26.8037 44.9495 26.7895 44.95 26.775C44.95 26.75 44.95 26.7125 44.9125 26.6625L44.825 26.55L44.65 26.675ZM44.975 28.225L44.85 27.875L44.6625 27.9L44.5375 27.5875L45.65 27.575L45.775 27.9L44.9625 28.65L44.8375 28.325L44.975 28.225ZM45.1625 28.075L45.4625 27.825L45.075 27.8625L45.1625 28.075ZM45.425 29.2L45.6375 29.175L45.7125 29.6625L45.275 29.725C45.2106 29.6579 45.1559 29.5822 45.1125 29.5C45.0748 29.421 45.0495 29.3367 45.0375 29.25C45.0151 29.1465 45.0194 29.0389 45.05 28.9375C45.0857 28.8578 45.1418 28.7888 45.2125 28.7375C45.2935 28.678 45.388 28.6394 45.4875 28.625C45.588 28.6088 45.691 28.6173 45.7875 28.65C45.8749 28.6847 45.9492 28.7459 46 28.825C46.05 28.9 46.075 28.9875 46.1 29.1V29.35C46.0901 29.4099 46.0642 29.4661 46.025 29.5125C45.9875 29.5625 45.9375 29.5875 45.875 29.625L45.775 29.325C45.8125 29.3125 45.8375 29.2875 45.8625 29.25C45.8875 29.2125 45.875 29.175 45.8625 29.125C45.8593 29.0952 45.8498 29.0665 45.8348 29.0407C45.8197 29.0148 45.7993 28.9924 45.775 28.975C45.725 28.9375 45.65 28.925 45.525 28.95C45.4467 28.9562 45.3724 28.9868 45.3125 29.0375C45.2625 29.0875 45.25 29.1625 45.2625 29.225C45.2625 29.2625 45.275 29.3 45.3 29.325L45.3625 29.425H45.4625L45.425 29.2ZM46.1 30.7L46.075 31.025L45.45 30.975C45.3935 30.9673 45.3386 30.9504 45.2875 30.925C45.2391 30.9011 45.1965 30.8669 45.1625 30.825C45.1281 30.785 45.1025 30.7381 45.0875 30.6875C45.0658 30.6146 45.0573 30.5384 45.0625 30.4625L45.0875 30.3L45.15 30.15C45.1767 30.1106 45.2106 30.0767 45.25 30.05C45.2877 30.0248 45.3303 30.0078 45.375 30C45.4318 29.9832 45.4908 29.9748 45.55 29.975L46.175 30.0375L46.1375 30.35L45.5125 30.3C45.45 30.3 45.4 30.3 45.375 30.3375C45.3565 30.3529 45.3415 30.372 45.3307 30.3935C45.32 30.415 45.3138 30.4385 45.3125 30.4625C45.3125 30.5125 45.3125 30.5625 45.35 30.5875C45.375 30.625 45.4125 30.65 45.475 30.65L46.1 30.7ZM44.9625 31.8L45.075 31.45L44.925 31.35L45.025 31.0375L45.9 31.7375L45.775 32.0625L44.675 32.1125L44.7875 31.8H44.9625ZM45.2 31.8L45.575 31.8125L45.2625 31.5875L45.2 31.8ZM45.575 32.65L45.3875 32.95H44.975L45.1625 33.3125L44.9875 33.6125L44.675 32.9625L44.3 32.7375L44.475 32.4625L44.85 32.6875L45.575 32.65Z" fill="black"/>
<path d="M41.0125 26.4125C41.0125 26.4125 43.9375 27.675 43.425 30.275C42.925 32.875 41.3 32.85 40.65 33.15C40.025 33.425 39.575 33.8375 39.325 33.775C39.075 33.725 38.7375 33.525 38.7375 33.525C38.7375 33.525 38.7125 33.9625 39.225 34.025C39.7375 34.1125 40.4125 33.3625 40.725 33.275C41.05 33.2 43.0375 32.975 43.525 30.3375C44.0875 27.5125 41.025 26.5 41.025 26.4125H41.0125Z" fill="#009B3A" stroke="black" stroke-width="0.0125"/>
<path d="M42.4875 26.975C42.4959 27.0422 42.4968 27.0991 42.4901 27.139C42.4834 27.1789 42.4693 27.2001 42.4496 27.2001C42.4299 27.2001 42.4053 27.1789 42.3788 27.139C42.3523 27.0991 42.3249 27.0422 42.3 26.975C42.2781 26.916 42.2587 26.8511 42.2438 26.7862C42.2289 26.7214 42.2188 26.6587 42.2146 26.6039C42.2103 26.5491 42.212 26.5041 42.2194 26.4729C42.2269 26.4417 42.2399 26.4253 42.2572 26.4253C42.2745 26.4253 42.2956 26.4417 42.3186 26.4729C42.3415 26.5041 42.3656 26.5491 42.3885 26.6039C42.4115 26.6587 42.4326 26.7214 42.4498 26.7862C42.4671 26.8511 42.4801 26.916 42.4875 26.975Z" fill="#009B3A" stroke="black" stroke-width="0.0125"/>
<path d="M42.3875 27C42.4129 27.0512 42.4357 27.1026 42.4547 27.1514C42.4738 27.2002 42.4886 27.2455 42.4984 27.2845C42.5083 27.3236 42.5128 27.3557 42.5119 27.3791C42.511 27.4025 42.5046 27.4166 42.4932 27.4207C42.4817 27.4248 42.4653 27.4188 42.445 27.403C42.4246 27.3872 42.4008 27.362 42.3747 27.3287C42.3486 27.2955 42.3209 27.2548 42.2931 27.2092C42.2652 27.1635 42.2379 27.1137 42.2125 27.0625C42.1613 26.9592 42.1213 26.8569 42.1015 26.778C42.0817 26.6991 42.0836 26.6501 42.1068 26.6418C42.13 26.6335 42.1726 26.6666 42.2253 26.7338C42.2779 26.801 42.3363 26.8967 42.3875 27ZM42.1 27.1875C42.1905 27.2169 42.273 27.2532 42.3316 27.2895C42.3902 27.3258 42.421 27.3596 42.4179 27.3843C42.4148 27.4091 42.3781 27.4231 42.3148 27.4237C42.2516 27.4243 42.1662 27.4114 42.075 27.3875C41.9845 27.3581 41.902 27.3218 41.8434 27.2855C41.7847 27.2492 41.754 27.2154 41.7571 27.1907C41.7602 27.1659 41.7969 27.1519 41.8601 27.1513C41.9234 27.1507 42.0088 27.1636 42.1 27.1875Z" fill="#009B3A" stroke="black" stroke-width="0.0125"/>
<path d="M42.1375 27.0875C42.2327 27.1516 42.3194 27.2216 42.3786 27.2821C42.4377 27.3426 42.4644 27.3888 42.4528 27.4103C42.4412 27.4319 42.3922 27.4271 42.3167 27.397C42.2412 27.3669 42.1452 27.3141 42.05 27.25C42.0028 27.2183 41.9573 27.1848 41.9159 27.1514C41.8746 27.118 41.8382 27.0854 41.8089 27.0554C41.7498 26.9948 41.7231 26.9487 41.7347 26.9272C41.7463 26.9056 41.7953 26.9104 41.8708 26.9405C41.9463 26.9705 42.0423 27.0234 42.1375 27.0875Z" fill="#009B3A" stroke="black" stroke-width="0.0125"/>
<path d="M42.2625 27.0375C42.339 27.1172 42.4059 27.2002 42.4483 27.2682C42.4907 27.3363 42.5052 27.3838 42.4886 27.4004C42.472 27.417 42.4257 27.4012 42.3599 27.3566C42.294 27.312 42.214 27.2422 42.1375 27.1625C42.0609 27.0828 41.9941 26.9998 41.9517 26.9318C41.9093 26.8637 41.8948 26.8162 41.9114 26.7996C41.9279 26.783 41.9742 26.7988 42.0401 26.8434C42.1059 26.888 42.1859 26.9578 42.2625 27.0375Z" fill="#009B3A" stroke="black" stroke-width="0.0125"/>
<path d="M42.4625 27.4L42.3375 27.475C42.3 27.475 42.2625 27.4375 42.1875 27.475C42.1125 27.5125 42.0625 27.5875 42.05 27.625C42.0375 27.6625 42.075 27.6875 42.1625 27.6375C42.25 27.6 42.275 27.525 42.3125 27.5L42.475 27.4125L42.575 27.25C42.6125 27.2 42.725 27.125 42.775 27.025C42.8125 26.95 42.8 26.8875 42.75 26.9125C42.6848 26.9504 42.6325 27.007 42.6 27.075C42.575 27.125 42.6 27.2 42.5625 27.25L42.4625 27.4ZM43.375 27.7C43.3779 27.8739 43.3662 28.0373 43.3425 28.1544C43.3187 28.2714 43.2849 28.3326 43.2485 28.3243C43.212 28.316 43.1759 28.239 43.148 28.1102C43.1202 27.9814 43.1029 27.8114 43.1 27.6375C43.097 27.4637 43.1087 27.3002 43.1324 27.1832C43.1562 27.0661 43.19 27.005 43.2265 27.0133C43.2629 27.0216 43.2991 27.0986 43.3269 27.2274C43.3548 27.3561 43.372 27.5262 43.375 27.7Z" fill="#009B3A" stroke="black" stroke-width="0.0125"/>
<path d="M43.225 27.6875C43.2627 27.8633 43.2843 28.0326 43.2852 28.1581C43.2861 28.2836 43.2661 28.355 43.2296 28.3566C43.1931 28.3583 43.1432 28.2901 43.0907 28.1669C43.0383 28.0438 42.9877 27.8758 42.95 27.7C42.9325 27.6177 42.9186 27.5362 42.909 27.4601C42.8995 27.3841 42.8945 27.315 42.8943 27.2568C42.8941 27.1986 42.8988 27.1524 42.908 27.1209C42.9172 27.0895 42.9309 27.0732 42.9481 27.0732C42.9653 27.0732 42.9859 27.0895 43.0085 27.1209C43.0311 27.1524 43.0554 27.1986 43.0799 27.2568C43.1045 27.315 43.1288 27.3841 43.1515 27.4601C43.1743 27.5362 43.195 27.6177 43.2125 27.7L43.225 27.6875Z" fill="#009B3A" stroke="black" stroke-width="0.0125"/>
<path d="M42.75 27.8375C42.814 27.8807 42.8763 27.9271 42.9333 27.974C42.9903 28.0208 43.0409 28.0673 43.0821 28.1106C43.1233 28.154 43.1544 28.1934 43.1736 28.2266C43.1929 28.2598 43.1998 28.2862 43.194 28.3043C43.1883 28.3223 43.17 28.3317 43.1402 28.3318C43.1103 28.332 43.0696 28.3229 43.0202 28.3051C42.9709 28.2873 42.9139 28.2611 42.8525 28.228C42.7911 28.195 42.7265 28.1557 42.6625 28.1125C42.5984 28.0693 42.5361 28.0229 42.4791 27.976C42.4221 27.9292 42.3716 27.8827 42.3303 27.8394C42.2891 27.796 42.258 27.7566 42.2388 27.7234C42.2196 27.6902 42.2126 27.6638 42.2184 27.6457C42.2241 27.6277 42.2424 27.6183 42.2723 27.6182C42.3021 27.618 42.3428 27.6271 42.3922 27.6449C42.4416 27.6627 42.4986 27.6889 42.5599 27.722C42.6213 27.755 42.6859 27.7943 42.75 27.8375Z" fill="#009B3A" stroke="black" stroke-width="0.0125"/>
<path d="M42.85 27.7C42.9604 27.8341 43.0572 27.9731 43.1188 28.0867C43.1805 28.2002 43.2022 28.2789 43.179 28.3054C43.1558 28.3319 43.0896 28.3041 42.9951 28.2281C42.9006 28.1521 42.7854 28.0341 42.675 27.9C42.568 27.7699 42.4747 27.6352 42.4154 27.5256C42.3562 27.416 42.336 27.3404 42.3592 27.3156C42.3824 27.2907 42.4471 27.3186 42.5392 27.393C42.6312 27.4674 42.743 27.5824 42.85 27.7125V27.7Z" fill="#009B3A" stroke="black" stroke-width="0.0125"/>
<path d="M43.0375 27.6875C43.1198 27.8409 43.1869 27.9945 43.2241 28.1147C43.2612 28.2348 43.2653 28.3116 43.2355 28.3282C43.2056 28.3448 43.1443 28.2998 43.065 28.2031C42.9857 28.1064 42.8948 27.9659 42.8125 27.8125C42.7717 27.7366 42.7343 27.6598 42.7023 27.5865C42.6702 27.5132 42.6443 27.4449 42.6259 27.3854C42.5888 27.2652 42.5847 27.1884 42.6145 27.1718C42.6444 27.1553 42.7057 27.2003 42.785 27.297C42.8643 27.3937 42.9552 27.5342 43.0375 27.6875Z" fill="#009B3A" stroke="black" stroke-width="0.0125"/>
<path d="M43.2 28.3L42.975 28.35C42.9375 28.35 42.9 28.2625 42.7875 28.2875C42.675 28.3125 42.575 28.3875 42.5375 28.4375C42.5125 28.4875 42.55 28.5375 42.6875 28.5125C42.8375 28.4875 42.8875 28.3875 42.9625 28.3875C43.025 28.3625 43.1375 28.3375 43.2125 28.3375C43.2375 28.2875 43.3375 28.1875 43.4 28.1375C43.4625 28.075 43.65 28.0125 43.7375 27.9125C43.825 27.8125 43.825 27.7125 43.7375 27.725C43.6418 27.7573 43.5558 27.8132 43.4875 27.8875C43.425 27.9625 43.4375 28.075 43.375 28.1375L43.2 28.3ZM43.8375 28.9125C43.8095 29.0795 43.7696 29.2331 43.7264 29.3395C43.6831 29.4459 43.6402 29.4964 43.6071 29.4798C43.5739 29.4632 43.5533 29.381 43.5496 29.2511C43.5459 29.1213 43.5595 28.9545 43.5875 28.7875C43.6013 28.7048 43.6183 28.6245 43.6374 28.5513C43.6564 28.478 43.6772 28.4132 43.6986 28.3605C43.72 28.3078 43.7416 28.2683 43.762 28.2442C43.7825 28.2202 43.8015 28.212 43.8179 28.2202C43.8343 28.2284 43.8478 28.2528 43.8577 28.2921C43.8676 28.3313 43.8736 28.3846 43.8754 28.4489C43.8772 28.5132 43.8748 28.5872 43.8683 28.6667C43.8618 28.7463 43.8513 28.8298 43.8375 28.9125Z" fill="#009B3A" stroke="black" stroke-width="0.0125"/>
<path d="M43.7 28.875C43.7041 28.9621 43.7046 29.0496 43.7015 29.1318C43.6983 29.214 43.6914 29.289 43.6814 29.352C43.6714 29.4151 43.6585 29.4647 43.6434 29.4978C43.6283 29.5308 43.6114 29.5465 43.5939 29.5439C43.5763 29.5413 43.5584 29.5203 43.5414 29.4825C43.5243 29.4446 43.5085 29.3906 43.495 29.3241C43.4814 29.2575 43.4704 29.1798 43.4626 29.096C43.4549 29.0122 43.4506 28.9241 43.45 28.8375C43.4458 28.7503 43.4453 28.6628 43.4485 28.5807C43.4517 28.4985 43.4585 28.4235 43.4685 28.3604C43.4785 28.2974 43.4914 28.2477 43.5065 28.2147C43.5216 28.1816 43.5385 28.1659 43.5561 28.1686C43.5736 28.1712 43.5915 28.1921 43.6086 28.23C43.6256 28.2679 43.6414 28.3218 43.655 28.3884C43.6685 28.455 43.6795 28.5327 43.6873 28.6165C43.695 28.7003 43.6994 28.7884 43.7 28.875Z" fill="#009B3A" stroke="black" stroke-width="0.0125"/>
<path d="M43.2125 28.925C43.277 28.981 43.3424 29.0448 43.4036 29.1113C43.4649 29.1779 43.5203 29.2454 43.5655 29.3085C43.6106 29.3717 43.6443 29.4287 43.664 29.4752C43.6836 29.5217 43.6885 29.5564 43.6785 29.5765C43.6684 29.5966 43.6436 29.6016 43.606 29.5911C43.5684 29.5806 43.519 29.5549 43.4617 29.516C43.4044 29.4771 43.3408 29.426 43.2759 29.3668C43.2109 29.3077 43.1465 29.242 43.0875 29.175C43.023 29.119 42.9575 29.0552 42.8963 28.9887C42.835 28.9221 42.7797 28.8546 42.7345 28.7915C42.6893 28.7283 42.6556 28.6712 42.636 28.6247C42.6164 28.5782 42.6114 28.5435 42.6215 28.5234C42.6315 28.5033 42.6563 28.4983 42.6939 28.5088C42.7315 28.5193 42.7809 28.5451 42.8382 28.584C42.8955 28.6229 42.9591 28.674 43.0241 28.7331C43.089 28.7923 43.1535 28.858 43.2125 28.925Z" fill="#009B3A" stroke="black" stroke-width="0.0125"/>
<path d="M43.3375 28.8125C43.3789 28.8886 43.4172 28.9661 43.4502 29.0405C43.4832 29.115 43.5101 29.1849 43.5296 29.2463C43.549 29.3076 43.5606 29.3593 43.5636 29.3983C43.5665 29.4373 43.5609 29.4629 43.5469 29.4735C43.533 29.4842 43.511 29.4798 43.4822 29.4605C43.4535 29.4412 43.4185 29.4075 43.3793 29.3612C43.3401 29.3149 43.2975 29.2569 43.2539 29.1907C43.2102 29.1244 43.1664 29.0511 43.125 28.975C43.0835 28.8989 43.0452 28.8214 43.0122 28.7469C42.9792 28.6725 42.9523 28.6026 42.9328 28.5412C42.9134 28.4798 42.9018 28.4282 42.8988 28.3892C42.8959 28.3502 42.9015 28.3246 42.9155 28.314C42.9294 28.3033 42.9514 28.3077 42.9802 28.327C43.0089 28.3463 43.0439 28.38 43.0831 28.4263C43.1223 28.4726 43.1649 28.5305 43.2085 28.5968C43.2522 28.6631 43.296 28.7364 43.3375 28.8125Z" fill="#009B3A" stroke="black" stroke-width="0.0125"/>
<path d="M43.5125 28.8375C43.5381 28.9182 43.5603 28.9992 43.578 29.076C43.5957 29.1527 43.6085 29.2237 43.6155 29.2848C43.6226 29.3459 43.6239 29.396 43.6193 29.4322C43.6147 29.4684 43.6043 29.49 43.5887 29.4957C43.5731 29.5015 43.5526 29.4913 43.5284 29.4657C43.5042 29.4401 43.4767 29.3997 43.4476 29.3467C43.4185 29.2937 43.3882 29.2292 43.3586 29.1568C43.329 29.0845 43.3006 29.0057 43.275 28.925C43.2482 28.8405 43.2249 28.7556 43.2065 28.6754C43.188 28.5951 43.1748 28.5209 43.1675 28.4571C43.1527 28.3282 43.163 28.2492 43.1962 28.2376C43.2293 28.226 43.2826 28.2827 43.3442 28.3952C43.4059 28.5077 43.4709 28.6668 43.525 28.8375H43.5125Z" fill="#009B3A" stroke="black" stroke-width="0.0125"/>
<path d="M43.5625 29.475H43.35C43.3125 29.475 43.2875 29.375 43.175 29.375C43.0785 29.3766 42.9856 29.412 42.9125 29.475C42.8625 29.525 42.9 29.575 43.0375 29.575C43.175 29.575 43.25 29.5125 43.325 29.5H43.575L43.8 29.35C43.875 29.3 44.0625 29.275 44.175 29.1875C44.2625 29.1125 44.2875 29.0125 44.2125 29.0125C44.1088 29.0254 44.0099 29.0641 43.925 29.125C43.8625 29.175 43.85 29.2875 43.775 29.3375C43.725 29.3625 43.575 29.475 43.5625 29.4625M43.875 30.2625C43.7869 30.4026 43.6932 30.5257 43.6145 30.6048C43.5358 30.684 43.4786 30.7126 43.4553 30.6844C43.4321 30.6562 43.4449 30.5735 43.4908 30.4546C43.5366 30.3356 43.6119 30.1901 43.7 30.05C43.7881 29.9099 43.8818 29.7868 43.9605 29.7077C44.0392 29.6286 44.0965 29.6 44.1197 29.6281C44.1429 29.6563 44.1301 29.739 44.0842 29.8579C44.0384 29.9769 43.9631 30.1224 43.875 30.2625Z" fill="#009B3A"/>
<path d="M43.5625 29.475H43.35C43.3125 29.475 43.2875 29.375 43.175 29.375C43.0785 29.3766 42.9856 29.412 42.9125 29.475C42.8625 29.525 42.9 29.575 43.0375 29.575C43.175 29.575 43.25 29.5125 43.325 29.5H43.575L43.8 29.35C43.875 29.3 44.0625 29.275 44.175 29.1875C44.2625 29.1125 44.2875 29.0125 44.2125 29.0125C44.1088 29.0254 44.0099 29.0641 43.925 29.125C43.8625 29.175 43.85 29.2875 43.775 29.3375C43.725 29.3625 43.575 29.475 43.5625 29.4625M43.875 30.2625C43.7869 30.4026 43.6932 30.5257 43.6145 30.6048C43.5358 30.684 43.4786 30.7126 43.4553 30.6844C43.4321 30.6562 43.4449 30.5735 43.4908 30.4546C43.5366 30.3356 43.6119 30.1901 43.7 30.05C43.7881 29.9099 43.8818 29.7868 43.9605 29.7077C44.0392 29.6286 44.0965 29.6 44.1197 29.6281C44.1429 29.6563 44.1301 29.739 44.0842 29.8579C44.0384 29.9769 43.9631 30.1224 43.875 30.2625Z" stroke="black" stroke-width="0.0125"/>
<path d="M43.7625 30.1625C43.7009 30.3228 43.6299 30.4693 43.5652 30.5697C43.5005 30.6701 43.4474 30.7163 43.4176 30.6981C43.3877 30.6799 43.3836 30.5987 43.4061 30.4725C43.4286 30.3462 43.4759 30.1853 43.5375 30.025C43.5992 29.8647 43.6701 29.7183 43.7348 29.6178C43.7995 29.5174 43.8526 29.4712 43.8825 29.4894C43.9123 29.5077 43.9164 29.5888 43.8939 29.715C43.8714 29.8413 43.8242 30.0022 43.7625 30.1625ZM43.3 30.0125C43.3626 30.1764 43.4107 30.3434 43.4339 30.4769C43.457 30.6104 43.4532 30.6993 43.4234 30.7242C43.3936 30.749 43.3401 30.7078 43.2748 30.6095C43.2094 30.5112 43.1376 30.3639 43.075 30.2C43.0124 30.0361 42.9643 29.8691 42.9411 29.7356C42.918 29.6021 42.9218 29.5132 42.9516 29.4883C42.9814 29.4635 43.0349 29.5047 43.1002 29.603C43.1656 29.7013 43.2374 29.8486 43.3 30.0125Z" fill="#009B3A" stroke="black" stroke-width="0.0125"/>
<path d="M43.45 29.9625C43.4657 30.1338 43.4677 30.3015 43.4554 30.4285C43.4431 30.5555 43.4176 30.6315 43.3844 30.6398C43.3512 30.6481 43.3132 30.588 43.2786 30.4727C43.244 30.3574 43.2157 30.1963 43.2 30.025C43.1922 29.9402 43.1877 29.8553 43.1868 29.7754C43.1858 29.6954 43.1885 29.6219 43.1946 29.559C43.2007 29.4961 43.2101 29.4451 43.2223 29.4088C43.2344 29.3726 43.2492 29.3518 43.2656 29.3477C43.282 29.3436 43.2998 29.3562 43.3179 29.3849C43.3361 29.4136 43.3542 29.4577 43.3714 29.5148C43.3885 29.5719 43.4042 29.6408 43.4177 29.7176C43.4312 29.7945 43.4422 29.8777 43.45 29.9625Z" fill="#009B3A" stroke="black" stroke-width="0.0125"/>
<path d="M43.625 30.05C43.6087 30.2217 43.58 30.3856 43.5451 30.5058C43.5101 30.626 43.4719 30.6926 43.4387 30.691C43.4056 30.6893 43.3803 30.6195 43.3683 30.497C43.3563 30.3744 43.3587 30.2092 43.375 30.0375C43.383 29.9525 43.3942 29.8685 43.4079 29.7903C43.4216 29.7121 43.4376 29.6412 43.4549 29.5817C43.4721 29.5221 43.4904 29.4752 43.5087 29.4434C43.5269 29.4116 43.5448 29.3957 43.5612 29.3965C43.5943 29.3982 43.6197 29.468 43.6316 29.5905C43.6436 29.7131 43.6412 29.8783 43.625 30.05Z" fill="#009B3A" stroke="black" stroke-width="0.0125"/>
<path d="M43.4125 30.6625C43.4125 30.6625 43.2375 30.6 43.2125 30.575C43.175 30.55 43.2 30.475 43.0875 30.4125C42.9989 30.3789 42.901 30.3789 42.8125 30.4125C42.75 30.4125 42.7625 30.4875 42.8875 30.5375C43.0125 30.6125 43.1125 30.5625 43.175 30.5875L43.4 30.7C43.4625 30.675 43.6 30.6625 43.675 30.65C43.75 30.6375 43.9375 30.7 44.075 30.65C44.1875 30.6125 44.2375 30.525 44.1625 30.5C44.0682 30.4751 43.9692 30.4751 43.875 30.5C43.7875 30.5125 43.7375 30.625 43.65 30.625C43.5875 30.625 43.4125 30.675 43.4 30.6625M43.525 31.625C43.4509 31.6956 43.3715 31.7636 43.2926 31.8239C43.2138 31.8842 43.1375 31.9354 43.0694 31.9734C43.0014 32.0115 42.9434 32.0356 42.8997 32.0439C42.856 32.0522 42.8278 32.0445 42.8172 32.0213C42.8066 31.9981 42.8138 31.9601 42.8384 31.9101C42.8629 31.86 42.9041 31.7993 42.9589 31.7324C43.0137 31.6654 43.0807 31.594 43.1549 31.5235C43.2291 31.453 43.3086 31.3851 43.3875 31.325C43.4626 31.2504 43.5452 31.1772 43.6284 31.1115C43.7117 31.0458 43.7932 30.9895 43.8663 30.9471C43.9393 30.9047 44.0019 30.8776 44.0488 30.8678C44.0957 30.8581 44.1255 30.866 44.136 30.891C44.1464 30.916 44.1371 30.9574 44.1087 31.0117C44.0804 31.066 44.0339 31.1316 43.973 31.2033C43.9121 31.2749 43.8386 31.3505 43.7586 31.4238C43.6785 31.4972 43.5942 31.5661 43.5125 31.625" fill="#009B3A"/>
<path d="M43.4125 30.6625C43.4125 30.6625 43.2375 30.6 43.2125 30.575C43.175 30.55 43.2 30.475 43.0875 30.4125C42.9989 30.3789 42.901 30.3789 42.8125 30.4125C42.75 30.4125 42.7625 30.4875 42.8875 30.5375C43.0125 30.6125 43.1125 30.5625 43.175 30.5875L43.4 30.7C43.4625 30.675 43.6 30.6625 43.675 30.65C43.75 30.6375 43.9375 30.7 44.075 30.65C44.1875 30.6125 44.2375 30.525 44.1625 30.5C44.0682 30.4751 43.9692 30.4751 43.875 30.5C43.7875 30.5125 43.7375 30.625 43.65 30.625C43.5875 30.625 43.4125 30.675 43.4 30.6625M43.525 31.625C43.4509 31.6956 43.3715 31.7636 43.2926 31.8239C43.2138 31.8842 43.1375 31.9354 43.0694 31.9734C43.0014 32.0115 42.9434 32.0356 42.8997 32.0439C42.856 32.0522 42.8278 32.0445 42.8172 32.0213C42.8066 31.9981 42.8138 31.9601 42.8384 31.9101C42.8629 31.86 42.9041 31.7993 42.9589 31.7324C43.0137 31.6654 43.0807 31.594 43.1549 31.5235C43.2291 31.453 43.3086 31.3851 43.3875 31.325C43.4626 31.2504 43.5452 31.1772 43.6284 31.1115C43.7117 31.0458 43.7932 30.9895 43.8663 30.9471C43.9393 30.9047 44.0019 30.8776 44.0488 30.8678C44.0957 30.8581 44.1255 30.866 44.136 30.891C44.1464 30.916 44.1371 30.9574 44.1087 31.0117C44.0804 31.066 44.0339 31.1316 43.973 31.2033C43.9121 31.2749 43.8386 31.3505 43.7586 31.4238C43.6785 31.4972 43.5942 31.5661 43.5125 31.625" stroke="black" stroke-width="0.0125"/>
<path d="M43.4124 31.4875C43.2932 31.6391 43.1689 31.7713 43.067 31.8551C42.9651 31.9389 42.8939 31.9673 42.869 31.9342C42.8442 31.901 42.8677 31.809 42.9345 31.6783C43.0012 31.5477 43.1057 31.3891 43.2249 31.2375C43.284 31.1624 43.3449 31.0913 43.4042 31.0282C43.4634 30.9651 43.5199 30.9113 43.5704 30.8698C43.6208 30.8284 43.6643 30.8 43.6982 30.7865C43.7322 30.7729 43.756 30.7744 43.7683 30.7908C43.7807 30.8072 43.7812 30.8382 43.77 30.8821C43.7588 30.926 43.736 30.9819 43.7029 31.0466C43.6699 31.1113 43.6272 31.1835 43.5774 31.2592C43.5275 31.3348 43.4715 31.4124 43.4124 31.4875Z" fill="#009B3A" stroke="black" stroke-width="0.0125"/>
<path d="M42.9625 31.15C42.9787 31.2494 42.9898 31.3579 42.9947 31.4666C42.9995 31.5753 42.9982 31.6811 42.9906 31.7752C42.983 31.8693 42.9695 31.949 42.9512 32.0077C42.9328 32.0665 42.9102 32.1025 42.8851 32.113C42.86 32.1235 42.8331 32.108 42.8068 32.0679C42.7805 32.0277 42.7554 31.9641 42.7337 31.8822C42.7119 31.8004 42.6941 31.7026 42.6817 31.597C42.6694 31.4914 42.6627 31.381 42.6624 31.275C42.6462 31.1756 42.6351 31.067 42.6302 30.9583C42.6254 30.8496 42.6267 30.7438 42.6343 30.6498C42.6419 30.5557 42.6554 30.476 42.6737 30.4172C42.6921 30.3585 42.7147 30.3224 42.7398 30.312C42.7649 30.3015 42.7918 30.317 42.8181 30.3571C42.8444 30.3972 42.8695 30.4608 42.8912 30.5427C42.913 30.6246 42.9308 30.7224 42.9432 30.8279C42.9555 30.9335 42.9622 31.0439 42.9625 31.15Z" fill="#009B3A" stroke="black" stroke-width="0.0125"/>
<path d="M43.1375 31.15C43.0984 31.297 43.0534 31.4246 43.0092 31.5142C42.9649 31.6038 42.9237 31.6507 42.8915 31.6479C42.8593 31.6451 42.8379 31.5928 42.8305 31.4987C42.823 31.4046 42.8298 31.2736 42.8499 31.125C42.8638 31.0159 42.8847 30.8999 42.9108 30.7866C42.9369 30.6732 42.9674 30.5658 43 30.4732C43.0325 30.3806 43.0661 30.3055 43.0979 30.254C43.1297 30.2026 43.1588 30.1763 43.1829 30.1773C43.207 30.1784 43.2253 30.2067 43.2364 30.26C43.2474 30.3134 43.2508 30.3901 43.2464 30.4839C43.2419 30.5778 43.2297 30.686 43.2108 30.7996C43.1919 30.9133 43.1667 31.0291 43.1375 31.1375" fill="#009B3A"/>
<path d="M43.1375 31.15C43.0984 31.297 43.0534 31.4246 43.0092 31.5142C42.9649 31.6038 42.9237 31.6507 42.8915 31.6479C42.8593 31.6451 42.8379 31.5928 42.8305 31.4987C42.823 31.4046 42.8298 31.2736 42.8499 31.125C42.8638 31.0159 42.8847 30.8999 42.9108 30.7866C42.9369 30.6732 42.9674 30.5658 43 30.4732C43.0325 30.3806 43.0661 30.3055 43.0979 30.254C43.1297 30.2026 43.1588 30.1763 43.1829 30.1773C43.207 30.1784 43.2253 30.2067 43.2364 30.26C43.2474 30.3134 43.2508 30.3901 43.2464 30.4839C43.2419 30.5778 43.2297 30.686 43.2108 30.7996C43.1919 30.9133 43.1667 31.0291 43.1375 31.1375" stroke="black" stroke-width="0.0125"/>
<path d="M43.2875 31.3C43.2528 31.4082 43.2097 31.5224 43.1618 31.6329C43.1138 31.7433 43.0625 31.8467 43.0122 31.9341C42.9618 32.0216 42.914 32.0905 42.8729 32.135C42.8317 32.1795 42.7983 32.1982 42.7757 32.1896C42.753 32.1809 42.7417 32.1452 42.7427 32.0854C42.7438 32.0256 42.7571 31.9436 42.7816 31.8463C42.8062 31.749 42.8411 31.6394 42.8835 31.5268C42.9258 31.4143 42.9744 31.3021 43.025 31.2C43.0596 31.0918 43.1027 30.9775 43.1507 30.8671C43.1986 30.7567 43.25 30.6533 43.3003 30.5658C43.3506 30.4784 43.3984 30.4095 43.4396 30.365C43.4808 30.3205 43.5141 30.3018 43.5368 30.3104C43.5595 30.319 43.5708 30.3548 43.5697 30.4146C43.5687 30.4743 43.5553 30.5564 43.5308 30.6537C43.5063 30.7509 43.4714 30.8606 43.429 30.9731C43.3866 31.0857 43.338 31.1978 43.2875 31.3Z" fill="#009B3A" stroke="black" stroke-width="0.0125"/>
<path d="M42.875 31.9125C42.8046 31.8586 42.7377 31.8001 42.675 31.7375C42.65 31.7 42.6875 31.6125 42.5875 31.5125C42.4875 31.4125 42.3625 31.3875 42.2875 31.3875C42.2125 31.4 42.2125 31.475 42.325 31.5875C42.45 31.7125 42.575 31.6875 42.625 31.7375C42.7 31.7875 42.8 31.875 42.8375 31.9375L43.1625 31.9875C43.25 31.9875 43.4375 32.125 43.6 32.125C43.725 32.125 43.825 32.0625 43.75 32C43.6547 31.9301 43.5425 31.887 43.425 31.875C43.325 31.875 43.2375 31.975 43.15 31.95L42.8625 31.9125M42.575 32.825C42.3786 32.8572 42.1922 32.8689 42.0568 32.8577C41.9215 32.8464 41.8482 32.8131 41.8532 32.765C41.8582 32.7169 41.941 32.6581 42.0834 32.6013C42.2257 32.5446 42.4161 32.4947 42.6125 32.4625C42.7097 32.4466 42.8055 32.4355 42.8944 32.4299C42.9833 32.4243 43.0636 32.4243 43.1306 32.4299C43.1976 32.4354 43.2501 32.4465 43.285 32.4624C43.32 32.4783 43.3367 32.4987 43.3342 32.5225C43.3318 32.5463 43.3102 32.573 43.2707 32.6011C43.2312 32.6292 43.1746 32.6581 43.1041 32.6862C43.0336 32.7143 42.9506 32.741 42.8598 32.7648C42.769 32.7886 42.6722 32.8091 42.575 32.825Z" fill="#009B3A"/>
<path d="M42.875 31.9125C42.8046 31.8586 42.7377 31.8001 42.675 31.7375C42.65 31.7 42.6875 31.6125 42.5875 31.5125C42.4875 31.4125 42.3625 31.3875 42.2875 31.3875C42.2125 31.4 42.2125 31.475 42.325 31.5875C42.45 31.7125 42.575 31.6875 42.625 31.7375C42.7 31.7875 42.8 31.875 42.8375 31.9375L43.1625 31.9875C43.25 31.9875 43.4375 32.125 43.6 32.125C43.725 32.125 43.825 32.0625 43.75 32C43.6547 31.9301 43.5425 31.887 43.425 31.875C43.325 31.875 43.2375 31.975 43.15 31.95L42.8625 31.9125M42.575 32.825C42.3786 32.8572 42.1922 32.8689 42.0568 32.8577C41.9215 32.8464 41.8482 32.8131 41.8532 32.765C41.8582 32.7169 41.941 32.6581 42.0834 32.6013C42.2257 32.5446 42.4161 32.4947 42.6125 32.4625C42.7097 32.4466 42.8055 32.4355 42.8944 32.4299C42.9833 32.4243 43.0636 32.4243 43.1306 32.4299C43.1976 32.4354 43.2501 32.4465 43.285 32.4624C43.32 32.4783 43.3367 32.4987 43.3342 32.5225C43.3318 32.5463 43.3102 32.573 43.2707 32.6011C43.2312 32.6292 43.1746 32.6581 43.1041 32.6862C43.0336 32.7143 42.9506 32.741 42.8598 32.7648C42.769 32.7886 42.6722 32.8091 42.575 32.825Z" stroke="black" stroke-width="0.0125"/>
<path d="M42.5625 32.625C42.3643 32.7013 42.1709 32.7573 42.0249 32.7808C41.8789 32.8043 41.7923 32.7933 41.784 32.7502C41.7757 32.7071 41.8465 32.6354 41.9808 32.551C42.115 32.4666 42.3018 32.3763 42.5 32.3C42.7053 32.221 42.9055 32.163 43.0565 32.1388C43.2075 32.1147 43.297 32.1262 43.3053 32.171C43.3136 32.2157 43.24 32.29 43.1007 32.3775C42.9614 32.465 42.7678 32.5585 42.5625 32.6375" fill="#009B3A"/>
<path d="M42.5625 32.625C42.3643 32.7013 42.1709 32.7573 42.0249 32.7808C41.8789 32.8043 41.7923 32.7933 41.784 32.7502C41.7757 32.7071 41.8465 32.6354 41.9808 32.551C42.115 32.4666 42.3018 32.3763 42.5 32.3C42.7053 32.221 42.9055 32.163 43.0565 32.1388C43.2075 32.1147 43.297 32.1262 43.3053 32.171C43.3136 32.2157 43.24 32.29 43.1007 32.3775C42.9614 32.465 42.7678 32.5585 42.5625 32.6375" stroke="black" stroke-width="0.0125"/>
<path d="M42.3 32.05C42.2197 32.2002 42.1334 32.3324 42.0554 32.4244C41.9773 32.5163 41.9124 32.5625 41.8714 32.5552C41.8304 32.5479 41.8158 32.4875 41.8301 32.3842C41.8444 32.2808 41.8867 32.1408 41.95 31.9875C41.9911 31.888 42.0396 31.7861 42.0922 31.6892C42.1447 31.5924 42.1999 31.5031 42.2536 31.4278C42.3074 31.3525 42.3584 31.2932 42.403 31.2541C42.4475 31.215 42.4845 31.1972 42.5111 31.202C42.5377 31.2067 42.5534 31.2339 42.5569 31.2816C42.5605 31.3292 42.5518 31.3961 42.5316 31.4774C42.5114 31.5587 42.4801 31.6523 42.44 31.7513C42.3999 31.8504 42.3521 31.9524 42.3 32.05Z" fill="#009B3A" stroke="black" stroke-width="0.0125"/>
<path d="M42.4875 32.15C42.3386 32.3186 42.1806 32.4705 42.0483 32.5721C41.9161 32.6738 41.8203 32.7169 41.7822 32.6921C41.7441 32.6672 41.7667 32.5764 41.845 32.4395C41.9234 32.3027 42.0511 32.1311 42.2 31.9625C42.2737 31.879 42.3505 31.7988 42.4258 31.7263C42.5012 31.6539 42.5736 31.5907 42.6391 31.5404C42.7714 31.4387 42.8671 31.3956 42.9052 31.4205C42.9434 31.4453 42.9208 31.5361 42.8424 31.673C42.8036 31.7407 42.7523 31.8177 42.6914 31.8996C42.6305 31.9814 42.5612 32.0665 42.4875 32.15Z" fill="#009B3A" stroke="black" stroke-width="0.0125"/>
<path d="M42.5375 32.3875C42.4472 32.4616 42.3512 32.5335 42.2563 32.5983C42.1613 32.663 42.0698 32.7189 41.988 32.7622C41.9063 32.8054 41.8363 32.8348 41.783 32.8485C41.7297 32.8621 41.6944 32.8595 41.6796 32.841C41.6647 32.8225 41.6707 32.7884 41.6972 32.7412C41.7236 32.694 41.7698 32.6348 41.8325 32.5677C41.8952 32.5007 41.9729 32.4274 42.0601 32.3531C42.1474 32.2788 42.242 32.2052 42.3375 32.1375C42.4912 32.0285 42.639 31.9405 42.7549 31.8888C42.8708 31.8372 42.9474 31.8252 42.9713 31.8551C42.9951 31.8849 42.9647 31.9546 42.8854 32.052C42.8061 32.1494 42.6829 32.2682 42.5375 32.3875Z" fill="#009B3A" stroke="black" stroke-width="0.0125"/>
<path d="M41.8 32.7125C41.765 32.6228 41.7358 32.5309 41.7125 32.4375C41.7 32.3875 41.7875 32.3375 41.75 32.1875C41.7077 32.0664 41.6234 31.9644 41.5125 31.9C41.45 31.8625 41.4 31.925 41.45 32.1C41.5 32.275 41.625 32.3375 41.6625 32.425L41.7625 32.725L42.0375 32.9625C42.1125 33.025 42.225 33.2625 42.375 33.35C42.5 33.4375 42.625 33.4125 42.6 33.325C42.5436 33.2053 42.4575 33.102 42.35 33.025C42.2625 32.95 42.125 32.9875 42.0375 32.925C41.9875 32.8625 41.7875 32.725 41.7875 32.7125" fill="#009B3A"/>
<path d="M41.8 32.7125C41.765 32.6228 41.7358 32.5309 41.7125 32.4375C41.7 32.3875 41.7875 32.3375 41.75 32.1875C41.7077 32.0664 41.6234 31.9644 41.5125 31.9C41.45 31.8625 41.4 31.925 41.45 32.1C41.5 32.275 41.625 32.3375 41.6625 32.425L41.7625 32.725L42.0375 32.9625C42.1125 33.025 42.225 33.2625 42.375 33.35C42.5 33.4375 42.625 33.4125 42.6 33.325C42.5436 33.2053 42.4575 33.102 42.35 33.025C42.2625 32.95 42.125 32.9875 42.0375 32.925C41.9875 32.8625 41.7875 32.725 41.7875 32.7125" stroke="black" stroke-width="0.0125"/>
<path d="M41.35 33.5C41.1837 33.4908 41.0357 33.4651 40.9299 33.4272C40.824 33.3892 40.7665 33.341 40.7665 33.2905C40.7665 33.24 40.824 33.1901 40.9299 33.1487C41.0357 33.1074 41.1837 33.077 41.35 33.0625C41.5163 33.0717 41.6643 33.0974 41.7701 33.1353C41.876 33.1733 41.9335 33.2215 41.9335 33.272C41.9335 33.3225 41.876 33.3724 41.7701 33.4138C41.6643 33.4551 41.5163 33.4855 41.35 33.5Z" fill="#009B3A" stroke="black" stroke-width="0.0125"/>
<path d="M41.25 32.8125C41.1192 32.9817 40.9759 33.1295 40.8517 33.2233C40.7276 33.3172 40.6327 33.3494 40.5879 33.3129C40.5432 33.2765 40.5522 33.1743 40.6131 33.0289C40.674 32.8834 40.7816 32.7067 40.9125 32.5375C40.9759 32.4557 41.0429 32.3783 41.1096 32.3097C41.1764 32.241 41.2416 32.1825 41.3015 32.1375C41.3615 32.0924 41.415 32.0617 41.4589 32.0471C41.5029 32.0325 41.5365 32.0342 41.5579 32.0523C41.5792 32.0703 41.5879 32.1043 41.5833 32.1523C41.5788 32.2003 41.5611 32.2613 41.5313 32.3319C41.5016 32.4025 41.4603 32.4813 41.4099 32.5638C41.3595 32.6462 41.3009 32.7307 41.2375 32.8125" fill="#009B3A"/>
<path d="M41.25 32.8125C41.1192 32.9817 40.9759 33.1295 40.8517 33.2233C40.7276 33.3172 40.6327 33.3494 40.5879 33.3129C40.5432 33.2765 40.5522 33.1743 40.6131 33.0289C40.674 32.8834 40.7816 32.7067 40.9125 32.5375C40.9759 32.4557 41.0429 32.3783 41.1096 32.3097C41.1764 32.241 41.2416 32.1825 41.3015 32.1375C41.3615 32.0924 41.415 32.0617 41.4589 32.0471C41.5029 32.0325 41.5365 32.0342 41.5579 32.0523C41.5792 32.0703 41.5879 32.1043 41.5833 32.1523C41.5788 32.2003 41.5611 32.2613 41.5313 32.3319C41.5016 32.4025 41.4603 32.4813 41.4099 32.5638C41.3595 32.6462 41.3009 32.7307 41.2375 32.8125" stroke="black" stroke-width="0.0125"/>
<path d="M41.35 33.1625C41.1553 33.2461 40.9607 33.3045 40.8089 33.325C40.6572 33.3454 40.5608 33.3261 40.5409 33.2714C40.521 33.2167 40.5792 33.1311 40.7029 33.0333C40.8265 32.9355 41.0053 32.8336 41.2 32.75C41.3947 32.6664 41.5893 32.608 41.741 32.5876C41.8928 32.5671 41.9892 32.5864 42.0091 32.6411C42.029 32.6958 41.9707 32.7815 41.8471 32.8792C41.7235 32.977 41.5447 33.0789 41.35 33.1625ZM41.5625 26.4875C41.6481 26.5677 41.7189 26.6471 41.761 26.71C41.8031 26.7729 41.8134 26.8148 41.7899 26.8273C41.7663 26.8399 41.7106 26.8222 41.6338 26.7778C41.557 26.7334 41.4647 26.6655 41.375 26.5875C41.3253 26.5443 41.278 26.4993 41.236 26.4554C41.1941 26.4116 41.1585 26.3697 41.1314 26.3326C41.1043 26.2955 41.0863 26.2639 41.0786 26.2398C41.0709 26.2158 41.0737 26.1997 41.0868 26.1928C41.0998 26.1858 41.1228 26.1881 41.1544 26.1994C41.1859 26.2108 41.2253 26.2309 41.2701 26.2586C41.3148 26.2864 41.3639 26.321 41.4142 26.3604C41.4646 26.3998 41.5151 26.4431 41.5625 26.4875ZM41.325 26.675C41.4284 26.6942 41.5212 26.7189 41.5891 26.7453C41.6569 26.7718 41.696 26.7984 41.7002 26.8212C41.7045 26.8439 41.6737 26.8616 41.6127 26.8713C41.5516 26.881 41.4637 26.8823 41.3625 26.875C41.2917 26.8699 41.2169 26.8607 41.1436 26.8483C41.0704 26.8358 41.0007 26.8203 40.9401 26.803C40.8795 26.7857 40.8295 26.7671 40.794 26.7486C40.7586 26.7301 40.7386 26.7122 40.7356 26.6963C40.7326 26.6804 40.7467 26.6669 40.7768 26.6568C40.807 26.6468 40.8523 26.6406 40.9093 26.6385C40.9663 26.6364 41.0334 26.6387 41.1055 26.645C41.1776 26.6513 41.2527 26.6616 41.325 26.675Z" fill="#009B3A" stroke="black" stroke-width="0.0125"/>
<path d="M41.425 26.55C41.4886 26.5823 41.5502 26.6164 41.6065 26.6504C41.6627 26.6843 41.7124 26.7175 41.7527 26.7479C41.7931 26.7783 41.8232 26.8054 41.8415 26.8276C41.8598 26.8498 41.8658 26.8668 41.8592 26.8774C41.8527 26.8881 41.8336 26.8923 41.8032 26.8898C41.7728 26.8873 41.7316 26.8781 41.682 26.8628C41.6324 26.8475 41.5753 26.8263 41.5141 26.8005C41.4528 26.7747 41.3886 26.7448 41.325 26.7125C41.1965 26.6472 41.0786 26.576 40.9972 26.5146C40.9158 26.4532 40.8774 26.4066 40.8907 26.3851C40.904 26.3635 40.9677 26.3688 41.0679 26.3997C41.1681 26.4307 41.2965 26.4847 41.425 26.55ZM37.9625 32.75C37.9625 32.75 38.6 32.8875 39.1625 33.0875C39.725 33.3 40.575 33.9875 40.8 34.0375C41.05 34.0375 41.4125 33.95 41.55 33.5875C41.15 33.6875 40.925 33.85 40.55 33.65C40.4125 33.6 39.975 33.2 39.4875 32.9875C39.0125 32.775 38.05 32.5375 38.05 32.5375L37.9625 32.75ZM38.65 26.9375L39.3875 26.55L38.575 26.7625L38.475 26.9L38.65 26.9375Z" fill="#009B3A" stroke="black" stroke-width="0.0125"/>
<path d="M39.35 27.125C39.0625 27.0625 38.625 26.9625 38.35 26.95C38.5375 26.7375 38.8 26.3625 38.975 26.15C38.85 26.3625 38.6875 26.65 38.625 26.8375C38.8125 26.95 39.125 27.0375 39.35 27.1125" fill="#009B3A"/>
<path d="M39.35 27.125C39.0625 27.0625 38.625 26.9625 38.35 26.95C38.5375 26.7375 38.8 26.3625 38.975 26.15C38.85 26.3625 38.6875 26.65 38.625 26.8375C38.8125 26.95 39.125 27.0375 39.35 27.1125" stroke="black" stroke-width="0.0125"/>
<path d="M38.5125 26.9875C38.7315 26.8143 38.9523 26.6435 39.175 26.475L38.4125 26.8125L38.3375 26.975H38.5125" fill="#009B3A"/>
<path d="M38.5125 26.9875C38.7315 26.8143 38.9523 26.6435 39.175 26.475L38.4125 26.8125L38.3375 26.975H38.5125" stroke="black" stroke-width="0.0125"/>
<path d="M39.2125 27.1125C38.925 27.05 38.4875 26.95 38.2125 26.925C38.3875 26.7125 38.65 26.3375 38.8125 26.1C38.7125 26.325 38.5375 26.6125 38.475 26.825C38.675 26.9375 38.9875 27.025 39.225 27.1125" fill="#009B3A"/>
<path d="M39.2125 27.1125C38.925 27.05 38.4875 26.95 38.2125 26.925C38.3875 26.7125 38.65 26.3375 38.8125 26.1C38.7125 26.325 38.5375 26.6125 38.475 26.825C38.675 26.9375 38.9875 27.025 39.225 27.1125" stroke="black" stroke-width="0.0125"/>
<path d="M38.4125 27.025L39.175 26.7L38.35 26.8375L38.2375 26.9625L38.4 27.025" fill="#009B3A"/>
<path d="M38.4125 27.025L39.175 26.7L38.35 26.8375L38.2375 26.9625L38.4 27.025" stroke="black" stroke-width="0.0125"/>
<path d="M39.125 27.125C38.8375 27.0875 38.375 27.0375 38.1 27.05C38.2625 26.8 38.475 26.3875 38.6125 26.1375C38.5375 26.375 38.4 26.6875 38.3625 26.9C38.575 27 38.9 27.05 39.125 27.1125" fill="#009B3A"/>
<path d="M39.125 27.125C38.8375 27.0875 38.375 27.0375 38.1 27.05C38.2625 26.8 38.475 26.3875 38.6125 26.1375C38.5375 26.375 38.4 26.6875 38.3625 26.9C38.575 27 38.9 27.05 39.125 27.1125" stroke="black" stroke-width="0.0125"/>
<path d="M38.325 27.025L38.85 26.4L38.1875 26.8875L38.15 27.05L38.325 27.025Z" fill="#009B3A" stroke="black" stroke-width="0.0125"/>
<path d="M39.125 27.1625C38.8125 27.1625 38.325 27.125 38.025 27.1625C38.175 26.875 38.3625 26.4125 38.475 26.125C38.425 26.3875 38.3125 26.75 38.3 26.9875C38.525 27.0625 38.875 27.1125 39.125 27.1625Z" fill="#009B3A" stroke="black" stroke-width="0.0125"/>
<path d="M38.225 27.175L38.85 26.5625L38.0875 27L38.0375 27.175H38.225Z" fill="#009B3A" stroke="black" stroke-width="0.0125"/>
<path d="M38.9875 27.175C38.65 27.175 38.1375 27.1625 37.8 27.2C38.025 26.8875 38.325 26.375 38.5 26.0625C38.375 26.35 38.2 26.7375 38.125 27C38.3625 27.0875 38.725 27.125 38.9875 27.175Z" fill="#009B3A" stroke="black" stroke-width="0.0125"/>
<path d="M38 27.225L38.825 26.5375L37.9 27.025L37.8 27.225H38Z" fill="#009B3A" stroke="black" stroke-width="0.0125"/>
<path d="M38.875 27.2C38.5375 27.25 38.0125 27.3 37.7 27.3875C37.8625 27.05 38.0874 26.5125 38.2249 26.175C38.1499 26.475 38.0124 26.875 37.9749 27.15C38.2249 27.2 38.5999 27.1875 38.8624 27.2" fill="#009B3A"/>
<path d="M38.875 27.2C38.5375 27.25 38.0125 27.3 37.7 27.3875C37.8625 27.05 38.0874 26.5125 38.2249 26.175C38.1499 26.475 38.0124 26.875 37.9749 27.15C38.2249 27.2 38.5999 27.1875 38.8624 27.2" stroke="black" stroke-width="0.0125"/>
<path d="M37.9 27.3625L38.525 26.4875L37.7374 27.2L37.7 27.4125L37.9 27.3625Z" fill="#009B3A" stroke="black" stroke-width="0.0125"/>
<path d="M38.675 27.3C38.35 27.3375 37.825 27.3625 37.5 27.425C37.6875 27.1 37.9375 26.575 38.1 26.25C38 26.5375 37.85 26.9375 37.8 27.2125C38.05 27.275 38.425 27.275 38.675 27.3Z" fill="#009B3A" stroke="black" stroke-width="0.0125"/>
<path d="M37.7875 27.45L38.5875 26.7625L37.675 27.25L37.5875 27.45H37.7875Z" fill="#009B3A" stroke="black" stroke-width="0.0125"/>
<path d="M38.5875 27.3375C38.25 27.4125 37.725 27.5 37.4125 27.6C37.5625 27.2625 37.7625 26.7125 37.8875 26.375C37.825 26.675 37.7125 27.075 37.6875 27.35C37.9375 27.3875 38.3125 27.35 38.5875 27.3375Z" fill="#009B3A" stroke="black" stroke-width="0.0125"/>
<path d="M37.65 27.5L38.15 26.5375L37.475 27.3625L37.4625 27.575L37.65 27.4875" fill="#009B3A"/>
<path d="M37.65 27.5L38.15 26.5375L37.475 27.3625L37.4625 27.575L37.65 27.4875" stroke="black" stroke-width="0.0125"/>
<path d="M38.5875 27.3875C38.2125 27.4875 37.6625 27.6125 37.3375 27.7375C37.4625 27.35 37.6 26.7375 37.7 26.35C37.6625 26.6875 37.5875 27.1375 37.6 27.45C37.8875 27.475 38.2875 27.4125 38.575 27.3875" fill="#009B3A"/>
<path d="M38.5875 27.3875C38.2125 27.4875 37.6625 27.6125 37.3375 27.7375C37.4625 27.35 37.6 26.7375 37.7 26.35C37.6625 26.6875 37.5875 27.1375 37.6 27.45C37.8875 27.475 38.2875 27.4125 38.575 27.3875" stroke="black" stroke-width="0.0125"/>
<path d="M37.55 27.7125L38.2 26.7625L37.375 27.525L37.3375 27.775L37.55 27.7125Z" fill="#009B3A" stroke="black" stroke-width="0.0125"/>
<path d="M38.4375 27.5C38.0875 27.6125 37.5375 27.7625 37.2125 27.9125C37.3125 27.5125 37.4375 26.9 37.5125 26.5125C37.5 26.85 37.45 27.3 37.475 27.6C37.75 27.6125 38.15 27.525 38.4375 27.5Z" fill="#009B3A" stroke="black" stroke-width="0.0125"/>
<path d="M37.425 27.85L37.9125 26.8L37.2125 27.7V27.95L37.425 27.85Z" fill="#009B3A" stroke="black" stroke-width="0.0125"/>
<path d="M38.3 27.65C37.95 27.725 37.3875 27.8375 37.05 27.95C37.1875 27.575 37.3625 26.95 37.475 26.575C37.425 26.9125 37.3375 27.375 37.3375 27.6625C37.6125 27.7 38.0125 27.65 38.3 27.6375" fill="#009B3A"/>
<path d="M38.3 27.65C37.95 27.725 37.3875 27.8375 37.05 27.95C37.1875 27.575 37.3625 26.95 37.475 26.575C37.425 26.9125 37.3375 27.375 37.3375 27.6625C37.6125 27.7 38.0125 27.65 38.3 27.6375" stroke="black" stroke-width="0.0125"/>
<path d="M37.3 27.95L38.1 27.125L37.1625 27.7375L37.0875 27.9625L37.3 27.95Z" fill="#009B3A" stroke="black" stroke-width="0.0125"/>
<path d="M38.15 27.7875C37.7875 27.8375 37.2375 27.8875 36.9 27.975C37.0625 27.6 37.275 27 37.4 26.625C37.325 26.9625 37.2125 27.4125 37.1875 27.7125C37.4625 27.775 37.8625 27.7625 38.15 27.7875Z" fill="#009B3A" stroke="black" stroke-width="0.0125"/>
<path d="M37.15 27.875L37.6875 26.8375L36.95 27.7125V27.95L37.15 27.8625" fill="#009B3A"/>
<path d="M37.15 27.875L37.6875 26.8375L36.95 27.7125V27.95L37.15 27.8625" stroke="black" stroke-width="0.0125"/>
<path d="M38.1875 27.6625C37.8125 27.825 37.1875 28.0375 36.825 28.2375C36.95 27.775 37.075 27.05 37.15 26.6C37.15 26.9875 37.0874 27.525 37.1124 27.8625C37.4249 27.8625 37.8625 27.725 38.1875 27.6625Z" fill="#009B3A" stroke="black" stroke-width="0.0125"/>
<path d="M37.075 28.175L37.725 27L36.8625 28L36.8375 28.275L37.075 28.175Z" fill="#009B3A" stroke="black" stroke-width="0.0125"/>
<path d="M38.0375 27.8125C37.6625 27.9875 37.0625 28.2375 36.7125 28.45C36.8125 28 36.9 27.2625 36.9625 26.825C36.9625 27.2 36.9375 27.7375 36.975 28.075C37.2875 28.0375 37.725 27.8875 38.0375 27.8125Z" fill="#009B3A" stroke="black" stroke-width="0.0125"/>
<path d="M36.9375 28.35L37.4124 27.0875L36.7 28.2125L36.7249 28.5L36.9375 28.35Z" fill="#009B3A" stroke="black" stroke-width="0.0125"/>
<path d="M37.875 27.9125C37.5 28.1 36.9 28.35 36.55 28.575C36.6375 28.1125 36.725 27.3875 36.7875 26.9375C36.7875 27.3125 36.7625 27.85 36.8125 28.1875C37.125 28.15 37.5625 27.9875 37.875 27.9125Z" fill="#009B3A" stroke="black" stroke-width="0.0125"/>
<path d="M36.8375 28.5L37.5625 27.3875L36.6375 28.3L36.6 28.575L36.8375 28.5Z" fill="#009B3A" stroke="black" stroke-width="0.0125"/>
<path d="M37.8375 27.85C37.5 28.125 36.9625 28.525 36.6625 28.825C36.6625 28.35 36.6 27.6375 36.5625 27.2C36.6375 27.5625 36.725 28.075 36.85 28.3875C37.15 28.275 37.5375 28.0125 37.85 27.8625" fill="#009B3A"/>
<path d="M37.8375 27.85C37.5 28.125 36.9625 28.525 36.6625 28.825C36.6625 28.35 36.6 27.6375 36.5625 27.2C36.6375 27.5625 36.725 28.075 36.85 28.3875C37.15 28.275 37.5375 28.0125 37.85 27.8625" stroke="black" stroke-width="0.0125"/>
<path d="M36.875 28.5625L36.95 27.225L36.6 28.525L36.7 28.775L36.875 28.5625Z" fill="#009B3A" stroke="black" stroke-width="0.0125"/>
<path d="M37.75 27.975C37.4 28.25 36.875 28.6375 36.5625 28.9375C36.5625 28.475 36.5 27.75 36.4625 27.3125C36.55 27.6875 36.625 28.1875 36.75 28.5C37.05 28.4 37.4375 28.125 37.75 27.975Z" fill="#009B3A" stroke="black" stroke-width="0.0125"/>
<path d="M36.7875 28.7875L37.125 27.475L36.5375 28.675L36.575 28.95L36.7875 28.7875Z" fill="#009B3A" stroke="black" stroke-width="0.0125"/>
<path d="M37.7 28C37.3875 28.325 36.875 28.8 36.5875 29.125C36.5375 28.6625 36.4 27.925 36.3125 27.475C36.4375 27.85 36.575 28.3625 36.7375 28.6625C37.025 28.525 37.4125 28.2125 37.7 28.0125" fill="#009B3A"/>
<path d="M37.7 28C37.3875 28.325 36.875 28.8 36.5875 29.125C36.5375 28.6625 36.4 27.925 36.3125 27.475C36.4375 27.85 36.575 28.3625 36.7375 28.6625C37.025 28.525 37.4125 28.2125 37.7 28.0125" stroke="black" stroke-width="0.0125"/>
<path d="M36.7874 28.95L36.8499 27.5625L36.5125 28.9125L36.6124 29.1625L36.7874 28.95Z" fill="#009B3A" stroke="black" stroke-width="0.0125"/>
<path d="M37.6 28.25C37.2625 28.525 36.725 28.9375 36.4 29.25C36.4 28.775 36.3125 28.025 36.275 27.5625C36.3625 27.9375 36.4625 28.475 36.5875 28.8C36.9 28.675 37.3 28.4125 37.6 28.2375" fill="#009B3A"/>
<path d="M37.6 28.25C37.2625 28.525 36.725 28.9375 36.4 29.25C36.4 28.775 36.3125 28.025 36.275 27.5625C36.3625 27.9375 36.4625 28.475 36.5875 28.8C36.9 28.675 37.3 28.4125 37.6 28.2375" stroke="black" stroke-width="0.0125"/>
<path d="M36.6875 29.1125L37.1625 27.8L36.4375 28.9625L36.4625 29.25L36.6875 29.1125Z" fill="#009B3A" stroke="black" stroke-width="0.0125"/>
<path d="M37.6 28.25C37.2875 28.5625 36.8125 29.05 36.5375 29.3875C36.4875 28.9125 36.35 28.1625 36.275 27.7125C36.4 28.0875 36.525 28.6125 36.675 28.9125C36.9625 28.7625 37.3125 28.45 37.6 28.25Z" fill="#009B3A" stroke="black" stroke-width="0.0125"/>
<path d="M36.7 29.175L36.65 27.8L36.425 29.175L36.55 29.4125L36.7 29.175Z" fill="#009B3A" stroke="black" stroke-width="0.0125"/>
<path d="M37.45 28.35C37.15 28.675 36.6875 29.1625 36.425 29.5125C36.3625 29.0125 36.2 28.2875 36.1125 27.825C36.2375 28.2 36.4 28.725 36.55 29.025C36.825 28.875 37.175 28.55 37.45 28.35Z" fill="#009B3A" stroke="black" stroke-width="0.0125"/>
<path d="M36.625 29.3125L36.775 27.9125L36.3625 29.2375L36.45 29.5125L36.625 29.3125Z" fill="#009B3A" stroke="black" stroke-width="0.0125"/>
<path d="M37.375 28.4C37.125 28.7625 36.6875 29.275 36.45 29.65C36.35 29.175 36.1375 28.4625 36.0125 28.025C36.175 28.375 36.3624 28.875 36.5374 29.1625C36.7999 28.9875 37.125 28.6375 37.3875 28.4125" fill="#009B3A"/>
<path d="M37.375 28.4C37.125 28.7625 36.6875 29.275 36.45 29.65C36.35 29.175 36.1375 28.4625 36.0125 28.025C36.175 28.375 36.3624 28.875 36.5374 29.1625C36.7999 28.9875 37.125 28.6375 37.3875 28.4125" stroke="black" stroke-width="0.0125"/>
<path d="M36.625 29.45L36.525 28.0375L36.35 29.4375L36.475 29.6875L36.6125 29.4375" fill="#009B3A"/>
<path d="M36.625 29.45L36.525 28.0375L36.35 29.4375L36.475 29.6875L36.6125 29.4375" stroke="black" stroke-width="0.0125"/>
<path d="M37.3625 28.4875C37.1125 28.8625 36.7 29.4 36.4875 29.7875C36.3625 29.3125 36.1125 28.6 35.9625 28.1625C36.1375 28.5125 36.35 29.0125 36.55 29.2875C36.8 29.1 37.1125 28.725 37.3625 28.4875Z" fill="#009B3A" stroke="black" stroke-width="0.0125"/>
<path d="M36.7 29.575L36.8499 28.1625L36.45 29.4875L36.525 29.775L36.7 29.575Z" fill="#009B3A" stroke="black" stroke-width="0.0125"/>
<path d="M37.2999 28.625C37.0874 29.0125 36.7374 29.625 36.5499 30.0375C36.3874 29.5875 36.075 28.9125 35.8875 28.4875C36.1 28.8125 36.35 29.275 36.575 29.5375C36.8125 29.3125 37.0749 28.8875 37.2999 28.6125" fill="#009B3A"/>
<path d="M37.2999 28.625C37.0874 29.0125 36.7374 29.625 36.5499 30.0375C36.3874 29.5875 36.075 28.9125 35.8875 28.4875C36.1 28.8125 36.35 29.275 36.575 29.5375C36.8125 29.3125 37.0749 28.8875 37.2999 28.6125" stroke="black" stroke-width="0.0125"/>
<path d="M36.6624 29.7L36.2625 28.35L36.3875 29.7625L36.575 29.9625L36.65 29.7" fill="#009B3A"/>
<path d="M36.6624 29.7L36.2625 28.35L36.3875 29.7625L36.575 29.9625L36.65 29.7" stroke="black" stroke-width="0.0125"/>
<path d="M37.3 28.775C37.075 29.175 36.7 29.775 36.5125 30.1875C36.35 29.7375 36.0375 29.0625 35.8375 28.65C36.05 28.975 36.3125 29.4375 36.5375 29.6875C36.7875 29.4625 37.0625 29.05 37.2875 28.775" fill="#009B3A"/>
<path d="M37.3 28.775C37.075 29.175 36.7 29.775 36.5125 30.1875C36.35 29.7375 36.0375 29.0625 35.8375 28.65C36.05 28.975 36.3125 29.4375 36.5375 29.6875C36.7875 29.4625 37.0625 29.05 37.2875 28.775" stroke="black" stroke-width="0.0125"/>
<path d="M36.675 29.95L36.525 28.5375L36.4 29.95L36.5375 30.2L36.675 29.95Z" fill="#009B3A" stroke="black" stroke-width="0.0125"/>
<path d="M37.325 28.9C37.0875 29.2875 36.7 29.8875 36.5125 30.2875C36.35 29.8375 36.05 29.1625 35.8625 28.7375C36.075 29.0625 36.325 29.5375 36.55 29.7875C36.8 29.575 37.0875 29.1625 37.325 28.9Z" fill="#009B3A" stroke="black" stroke-width="0.0125"/>
<path d="M36.6624 30.0625L36.4 28.6875L36.3875 30.0875L36.5499 30.3125L36.6624 30.0625Z" fill="#009B3A" stroke="black" stroke-width="0.0125"/>
<path d="M37.225 29.1C36.975 29.475 36.5625 30.0375 36.35 30.4375C36.2125 29.975 35.9375 29.2625 35.775 28.8375C35.9625 29.175 36.2 29.6625 36.4 29.9375C36.6625 29.7375 36.975 29.35 37.225 29.1Z" fill="#009B3A" stroke="black" stroke-width="0.0125"/>
<path d="M36.5375 30.2125L36.6625 28.8L36.275 30.1375L36.3625 30.4125L36.5375 30.2125Z" fill="#009B3A" stroke="black" stroke-width="0.0125"/>
<path d="M37.2375 29.125C37.025 29.5375 36.6625 30.1625 36.4875 30.575C36.3125 30.1375 35.9875 29.475 35.775 29.075C36 29.375 36.275 29.825 36.5 30.075C36.75 29.8375 37 29.4125 37.2375 29.1375" fill="#009B3A"/>
<path d="M37.2375 29.125C37.025 29.5375 36.6625 30.1625 36.4875 30.575C36.3125 30.1375 35.9875 29.475 35.775 29.075C36 29.375 36.275 29.825 36.5 30.075C36.75 29.8375 37 29.4125 37.2375 29.1375" stroke="black" stroke-width="0.0125"/>
<path d="M36.5 30.3375L36.0625 29.0125L36.225 30.4125L36.4125 30.6125L36.4875 30.3375" fill="#009B3A"/>
<path d="M36.5 30.3375L36.0625 29.0125L36.225 30.4125L36.4125 30.6125L36.4875 30.3375" stroke="black" stroke-width="0.0125"/>
<path d="M37.175 29.2375C37.025 29.6875 36.775 30.3625 36.675 30.825C36.425 30.425 35.9875 29.85 35.725 29.4875C35.9875 29.75 36.3375 30.1375 36.6 30.325C36.8 30.0375 37 29.575 37.175 29.2375Z" fill="#009B3A" stroke="black" stroke-width="0.0125"/>
<path d="M36.875 30.4375L36.4125 29.1375L36.6125 30.5375L36.8 30.7125L36.875 30.4375Z" fill="#009B3A" stroke="black" stroke-width="0.0125"/>
<path d="M37.175 29.375C37.025 29.825 36.775 30.5125 36.675 30.9625C36.425 30.5625 36 30 35.725 29.65C35.9875 29.9 36.3375 30.275 36.6 30.475C36.8 30.1875 37 29.7125 37.175 29.375Z" fill="#009B3A" stroke="black" stroke-width="0.0125"/>
<path d="M36.875 30.6625L36.275 29.45L36.625 30.8L36.8375 30.95L36.8875 30.6625" fill="#009B3A"/>
<path d="M36.875 30.6625L36.275 29.45L36.625 30.8L36.8375 30.95L36.8875 30.6625" stroke="black" stroke-width="0.0125"/>
<path d="M37.125 29.4875C37.0375 29.95 36.875 30.675 36.8125 31.1375C36.525 30.775 36.025 30.2625 35.725 29.9625C36.0125 30.175 36.4 30.5125 36.6875 30.65C36.85 30.3375 36.9875 29.8375 37.125 29.4875Z" fill="#009B3A" stroke="black" stroke-width="0.0125"/>
<path d="M36.925 30.85L36.6 29.4875L36.65 30.9L36.825 31.1125L36.925 30.8625" fill="#009B3A"/>
<path d="M36.925 30.85L36.6 29.4875L36.65 30.9L36.825 31.1125L36.925 30.8625" stroke="black" stroke-width="0.0125"/>
<path d="M37.125 29.625C37.075 30.1125 36.975 30.85 36.975 31.3125C36.65 31 36.1125 30.5625 35.7875 30.3C36.0875 30.475 36.5 30.75 36.8 30.85C36.925 30.525 37.025 30 37.125 29.6375" fill="#009B3A"/>
<path d="M37.125 29.625C37.075 30.1125 36.975 30.85 36.975 31.3125C36.65 31 36.1125 30.5625 35.7875 30.3C36.0875 30.475 36.5 30.75 36.8 30.85C36.925 30.525 37.025 30 37.125 29.6375" stroke="black" stroke-width="0.0125"/>
<path d="M36.9375 30.95L36.075 29.975L36.7249 31.1625L36.9749 31.2375L36.9375 30.95Z" fill="#009B3A" stroke="black" stroke-width="0.0125"/>
<path d="M37.15 29.8C37.1 30.275 37 31.0125 36.9875 31.475C36.6625 31.1625 36.125 30.725 35.8 30.45C36.1125 30.625 36.525 30.9125 36.8125 31.0125C36.95 30.6875 37.0375 30.1625 37.15 29.8Z" fill="#009B3A" stroke="black" stroke-width="0.0125"/>
<path d="M37.0375 31.175L36.375 30L36.7875 31.3375L37 31.475L37.0375 31.1875" fill="#009B3A"/>
<path d="M37.0375 31.175L36.375 30L36.7875 31.3375L37 31.475L37.0375 31.1875" stroke="black" stroke-width="0.0125"/>
<path d="M37.1875 30C37.15 30.475 37.0875 31.2125 37.0875 31.6875C36.6962 31.3494 36.2873 31.0323 35.8625 30.7375C36.1875 30.8875 36.6125 31.15 36.9 31.2375C37.025 30.9 37.1 30.3625 37.1875 29.9875" fill="#009B3A"/>
<path d="M37.1875 30C37.15 30.475 37.0875 31.2125 37.0875 31.6875C36.6962 31.3494 36.2873 31.0323 35.8625 30.7375C36.1875 30.8875 36.6125 31.15 36.9 31.2375C37.025 30.9 37.1 30.3625 37.1875 29.9875" stroke="black" stroke-width="0.0125"/>
<path d="M37.125 31.4L36.3 30.3625L36.9 31.5875L37.125 31.6875V31.4Z" fill="#009B3A" stroke="black" stroke-width="0.0125"/>
<path d="M37.2 30.225C37.1625 30.7 37.1 31.4375 37.1125 31.9125C36.775 31.6125 36.225 31.2125 35.875 30.9625C36.2 31.125 36.625 31.375 36.925 31.4625C37.05 31.125 37.1125 30.5875 37.2 30.2125" fill="#009B3A"/>
<path d="M37.2 30.225C37.1625 30.7 37.1 31.4375 37.1125 31.9125C36.775 31.6125 36.225 31.2125 35.875 30.9625C36.2 31.125 36.625 31.375 36.925 31.4625C37.05 31.125 37.1125 30.5875 37.2 30.2125" stroke="black" stroke-width="0.0125"/>
<path d="M37.1875 31.575L36.625 30.325L36.9375 31.7L37.1375 31.8625L37.1875 31.575Z" fill="#009B3A" stroke="black" stroke-width="0.0125"/>
<path d="M37.2125 30.3625C37.2375 30.85 37.2375 31.5875 37.2875 32.0625C36.8661 31.7847 36.4323 31.5261 35.9875 31.2875C36.3125 31.4 36.75 31.5875 37.0625 31.6375C37.15 31.275 37.1625 30.75 37.2125 30.3625Z" fill="#009B3A" stroke="black" stroke-width="0.0125"/>
<path d="M37.2875 31.525L36.25 30.8125L37.125 31.7875L37.375 31.8L37.2875 31.525Z" fill="#009B3A" stroke="black" stroke-width="0.0125"/>
<path d="M37.25 30.4125C37.2875 30.9 37.3375 31.6375 37.4125 32.1C37.0375 31.8625 36.4375 31.5625 36.0625 31.375C36.4 31.475 36.85 31.65 37.1625 31.6875C37.225 31.325 37.2125 30.8 37.25 30.4125Z" fill="#009B3A" stroke="black" stroke-width="0.0125"/>
<path d="M37.4125 31.7875L36.5375 30.7875L37.2 31.9875L37.4375 32.075L37.4 31.7875" fill="#009B3A"/>
<path d="M37.4125 31.7875L36.5375 30.7875L37.2 31.9875L37.4375 32.075L37.4 31.7875" stroke="black" stroke-width="0.0125"/>
<path d="M37.325 30.6C37.3875 31.075 37.45 31.8125 37.5625 32.275C37.1875 32.0625 36.5625 31.8 36.1875 31.6375C36.525 31.7125 36.9875 31.8625 37.2875 31.8875C37.3375 31.5125 37.3125 30.9875 37.325 30.6Z" fill="#009B3A" stroke="black" stroke-width="0.0125"/>
<path d="M37.575 31.9625L36.5375 31.225L37.4125 32.225L37.6625 32.2375L37.575 31.9625Z" fill="#009B3A" stroke="black" stroke-width="0.0125"/>
<path d="M37.3625 30.8C37.45 31.275 37.575 32.0125 37.7 32.4625C37.3125 32.275 36.675 32.075 36.2875 31.95C36.6375 31.9875 37.1 32.1 37.4125 32.075C37.4375 31.7125 37.375 31.2 37.3625 30.8Z" fill="#009B3A" stroke="black" stroke-width="0.0125"/>
<path d="M37.7 32.1125L36.825 31.0875L37.4749 32.3L37.7249 32.4L37.7 32.1125Z" fill="#009B3A" stroke="black" stroke-width="0.0125"/>
<path d="M37.4125 30.925C37.55 31.3875 37.7375 32.1125 37.9125 32.55C37.5 32.425 36.8625 32.3 36.4625 32.225C36.8125 32.225 37.275 32.2625 37.5875 32.2125C37.5875 31.8375 37.4625 31.325 37.4125 30.9375" fill="#009B3A"/>
<path d="M37.4125 30.925C37.55 31.3875 37.7375 32.1125 37.9125 32.55C37.5 32.425 36.8625 32.3 36.4625 32.225C36.8125 32.225 37.275 32.2625 37.5875 32.2125C37.5875 31.8375 37.4625 31.325 37.4125 30.9375" stroke="black" stroke-width="0.0125"/>
<path d="M37.75 32.1125L36.5375 31.8625L37.675 32.425L37.9125 32.3375L37.7375 32.1125" fill="#009B3A"/>
<path d="M37.75 32.1125L36.5375 31.8625L37.675 32.425L37.9125 32.3375L37.7375 32.1125" stroke="black" stroke-width="0.0125"/>
<path d="M37.5 31.075C37.625 31.5375 37.8125 32.25 37.975 32.6875C37.575 32.5625 36.9375 32.4375 36.5375 32.3625C36.8875 32.3625 37.35 32.4 37.6625 32.3625C37.6625 31.9875 37.5375 31.4625 37.5 31.075Z" fill="#009B3A" stroke="black" stroke-width="0.0125"/>
<path d="M37.9375 32.2375L36.7875 31.675L37.8125 32.5125L38.0625 32.4875L37.9375 32.2375Z" fill="#009B3A" stroke="black" stroke-width="0.0125"/>
<path d="M37.4375 31.15C37.6625 31.575 38 32.2375 38.25 32.6125C37.825 32.5875 37.175 32.6125 36.775 32.6125C37.1125 32.55 37.575 32.4875 37.8625 32.3625C37.775 32 37.5625 31.525 37.4375 31.15Z" fill="#009B3A" stroke="black" stroke-width="0.0125"/>
<path d="M38.125 32.3625L36.925 32.0375L38.05 32.6625L38.275 32.6L38.1125 32.35" fill="#009B3A"/>
<path d="M38.125 32.3625L36.925 32.0375L38.05 32.6625L38.275 32.6L38.1125 32.35" stroke="black" stroke-width="0.0125"/>
<path d="M37.55 31.3375C37.7875 31.75 38.125 32.4125 38.3875 32.7875C37.9625 32.7625 37.3125 32.7875 36.9125 32.8125C37.2375 32.725 37.7125 32.6625 37.9875 32.5375C37.9125 32.175 37.6875 31.7 37.5625 31.3375" fill="#009B3A"/>
<path d="M37.55 31.3375C37.7875 31.75 38.125 32.4125 38.3875 32.7875C37.9625 32.7625 37.3125 32.7875 36.9125 32.8125C37.2375 32.725 37.7125 32.6625 37.9875 32.5375C37.9125 32.175 37.6875 31.7 37.5625 31.3375" stroke="black" stroke-width="0.0125"/>
<path d="M38.2625 32.4625L37.15 31.8L38.125 32.725H38.375L38.2625 32.4625Z" fill="#009B3A" stroke="black" stroke-width="0.0125"/>
<path d="M37.65 31.4375C37.9125 31.825 38.3125 32.4375 38.6 32.8C38.1125 32.8392 37.6282 32.9102 37.15 33.0125C37.475 32.8875 37.925 32.7625 38.2 32.6C38.075 32.25 37.8125 31.7875 37.65 31.4375Z" fill="#009B3A" stroke="black" stroke-width="0.0125"/>
<path d="M38.35 32.5625L37.15 32.525L38.3375 32.8875L38.55 32.75L38.35 32.5625ZM39.05 26.7375L39.9125 26.6L39.05 26.6125L38.9 26.6875L39.05 26.7375Z" fill="#009B3A" stroke="black" stroke-width="0.0125"/>
<path d="M39.525 26.925C39.275 26.85 38.9 26.725 38.6375 26.675L39.5625 26.2375C39.375 26.3625 39.0875 26.5125 38.9375 26.6375C39.0875 26.7375 39.35 26.8375 39.525 26.925Z" fill="#009B3A" stroke="black" stroke-width="0.0125"/>
<path d="M39 26.7625L39.85 26.5375L38.975 26.65L38.85 26.7375L39.0125 26.7625" fill="#009B3A"/>
<path d="M39 26.7625L39.85 26.5375L38.975 26.65L38.85 26.7375L39.0125 26.7625" stroke="black" stroke-width="0.0125"/>
<path d="M39.5625 26.9875C39.2625 26.95 38.8125 26.9 38.525 26.9C38.75 26.7 39.05 26.3875 39.2375 26.1875C39.1125 26.375 38.9125 26.6125 38.825 26.7875C39.025 26.875 39.3375 26.925 39.5625 26.9875Z" fill="#009B3A" stroke="black" stroke-width="0.0125"/>
<path d="M38.7 26.825L39.575 26.725L38.725 26.7L38.5625 26.775L38.6875 26.825" fill="#009B3A"/>
<path d="M38.7 26.825L39.575 26.725L38.725 26.7L38.5625 26.775L38.6875 26.825" stroke="black" stroke-width="0.0125"/>
<path d="M39.3375 27.0125L38.4 26.85L39.2625 26.375C39.0875 26.5 38.8375 26.675 38.7125 26.8C38.875 26.875 39.15 26.95 39.3375 27.0125Z" fill="#009B3A" stroke="black" stroke-width="0.0125"/>
<path d="M38.625 26.825L39.3875 26.4875L38.5499 26.7125L38.45 26.8125H38.625" fill="#009B3A"/>
<path d="M38.625 26.825L39.3875 26.4875L38.5499 26.7125L38.45 26.8125H38.625" stroke="black" stroke-width="0.0125"/>
<path d="M39.3125 27.1125C39.1 27.025 38.75 26.8625 38.5375 26.8L39.0875 26.2C38.9875 26.3625 38.8375 26.575 38.7625 26.75C38.9125 26.875 39.1375 27 39.3125 27.1125Z" fill="#009B3A" stroke="black" stroke-width="0.0125"/>
<path d="M38.6625 26.875L39.2625 26.625L38.6125 26.7L38.5375 26.825L38.6625 26.875ZM38.1625 32.45H36.9375L38.1875 32.7625L38.3875 32.6375L38.1625 32.45Z" fill="#009B3A" stroke="black" stroke-width="0.0125"/>
<path d="M38.3875 32.525L37.1375 32.2375L38.3375 32.825L38.5875 32.75L38.3875 32.525Z" fill="#009B3A" stroke="black" stroke-width="0.0125"/>
<path d="M38.6 32.6125L37.35 32.55L38.6 32.925L38.8125 32.8L38.6 32.6125Z" fill="#009B3A" stroke="black" stroke-width="0.0125"/>
<path d="M37.8125 31.7375C38.125 32.0875 38.6125 32.6625 38.95 32.975C38.5375 33.0375 37.9125 33.2 37.525 33.3125C37.825 33.1625 38.275 32.9875 38.525 32.8125C38.35 32.4875 38.025 32.0625 37.8125 31.7375Z" fill="#009B3A" stroke="black" stroke-width="0.0125"/>
<path d="M38.7625 32.675L37.5125 32.2625L38.6875 32.9625L38.9375 32.9125L38.7625 32.6625" fill="#009B3A"/>
<path d="M38.7625 32.675L37.5125 32.2625L38.6875 32.9625L38.9375 32.9125L38.7625 32.6625" stroke="black" stroke-width="0.0125"/>
<path d="M37.925 31.8125C38.275 32.1375 38.8 32.65 39.175 32.9375C38.775 33.05 38.175 33.2875 37.8 33.4375C38.0875 33.2625 38.5 33.0375 38.725 32.8125C38.525 32.5125 38.1625 32.125 37.925 31.8125Z" fill="#009B3A" stroke="black" stroke-width="0.0125"/>
<path d="M38.875 32.75L37.6875 32.9875L38.9375 33.0625L39.1125 32.9L38.8625 32.75" fill="#009B3A"/>
<path d="M38.875 32.75L37.6875 32.9875L38.9375 33.0625L39.1125 32.9L38.8625 32.75" stroke="black" stroke-width="0.0125"/>
<path d="M38.625 32.675L37.4 32.775L38.6625 32.9875L38.8625 32.8375L38.6125 32.675" fill="#009B3A"/>
<path d="M38.625 32.675L37.4 32.775L38.6625 32.9875L38.8625 32.8375L38.6125 32.675" stroke="black" stroke-width="0.0125"/>
<path d="M38.8499 32.75L37.575 32.5375L38.825 33.0375L39.0499 32.95L38.8499 32.7375V32.75Z" fill="#009B3A" stroke="black" stroke-width="0.0125"/>
<path d="M39.0625 32.8125L37.8125 32.8375L39.0875 33.125L39.2875 32.9875L39.0625 32.8125Z" fill="#009B3A" stroke="black" stroke-width="0.0125"/>
<path d="M38.2125 32C38.5625 32.325 39.0875 32.85 39.45 33.15C39.0375 33.2375 38.4125 33.45 38.0375 33.575C38.3375 33.4125 38.7625 33.2125 39 33.0125C38.8 32.7 38.45 32.3 38.2125 31.9875V32Z" fill="#009B3A" stroke="black" stroke-width="0.0125"/>
<path d="M39.2375 32.8625L37.9625 32.5375L39.1875 33.1625L39.425 33.0875L39.2375 32.8625Z" fill="#009B3A" stroke="black" stroke-width="0.0125"/>
<path d="M38.325 32.0625C38.7 32.3625 39.2749 32.8375 39.6624 33.0875C39.2624 33.225 38.6875 33.525 38.3375 33.7C38.6125 33.4875 39 33.2375 39.2125 33.0125C38.9875 32.7125 38.5875 32.35 38.3375 32.0625H38.325Z" fill="#009B3A" stroke="black" stroke-width="0.0125"/>
<path d="M39.35 32.925L38.1875 33.25H39.4375L39.6 33.0625L39.35 32.9375V32.925Z" fill="#009B3A" stroke="black" stroke-width="0.0125"/>
<path d="M40.95 31.1875L40 30.525L39.05 31.1875L39.4125 30.1375L38.575 29.4875H39.65L40 28.4375L40.35 29.4875H41.425L40.5875 30.1375L40.95 31.1875Z" fill="#FEDF00" stroke="black" stroke-width="0.05"/>
</g>
<defs>
<clipPath id="clip0_84_453">
<rect width="80" height="60" fill="white"/>
</clipPath>
</defs>
</svg>
